<?xml version="1.0" encoding="UTF-8" standalone="no"?>
<!-- Created with Inkscape (http://www.inkscape.org/) -->

<svg
   id="svg5"
   version="1.1"
   viewBox="0 0 12 12"
   height="12mm"
   width="12mm"
   sodipodi:docname="qr-code.svg"
   inkscape:version="1.2.2 (b0a8486541, 2022-12-01)"
   xmlns:inkscape="http://www.inkscape.org/namespaces/inkscape"
   xmlns:sodipodi="http://sodipodi.sourceforge.net/DTD/sodipodi-0.dtd"
   xmlns="http://www.w3.org/2000/svg"
   xmlns:svg="http://www.w3.org/2000/svg">
  <sodipodi:namedview
     id="namedview9"
     pagecolor="#ffffff"
     bordercolor="#666666"
     borderopacity="1.0"
     inkscape:showpageshadow="2"
     inkscape:pageopacity="0.0"
     inkscape:pagecheckerboard="0"
     inkscape:deskcolor="#d1d1d1"
     inkscape:document-units="mm"
     showgrid="false"
     inkscape:zoom="11.321962"
     inkscape:cx="22.875894"
     inkscape:cy="29.985969"
     inkscape:window-width="1499"
     inkscape:window-height="1236"
     inkscape:window-x="5640"
     inkscape:window-y="405"
     inkscape:window-maximized="0"
     inkscape:current-layer="svg5" />
  <defs
     id="defs2" />
  <g
     style="fill:#000000;stroke:none"
     id="g253"
     transform="scale(0.08108108)">
    <path
       d="m 131.6,132 h -3.2 c -0.22091,0 -0.4,-0.17909 -0.4,-0.4 V 124 h 3.6 c 0.22091,0 0.4,0.17909 0.4,0.4 v 7.2 c 0,0.22091 -0.17909,0.4 -0.4,0.4 z m -8,0 h -15.2 c -0.22091,0 -0.4,-0.17909 -0.4,-0.4 V 128 h 3.6 c 0.22091,0 0.4,-0.17909 0.4,-0.4 v -7.2 c 0,-0.22091 0.17909,-0.4 0.4,-0.4 h 7.6 v 4 h -3.6 c -0.22091,0 -0.4,0.17909 -0.4,0.4 v 3.2 c 0,0.22091 0.17909,0.4 0.4,0.4 h 3.2 c 0.22091,0 0.4,-0.17909 0.4,-0.4 V 124 h 4 v 7.6 c 0,0.22091 -0.17909,0.4 -0.4,0.4 z m -36,0 h -7.2 c -0.220914,0 -0.4,-0.17909 -0.4,-0.4 v -3.2 c 0,-0.22091 0.179086,-0.4 0.4,-0.4 h 3.2 c 0.220914,0 0.4,-0.17909 0.4,-0.4 v -3.2 C 84,124.17909 83.820914,124 83.6,124 H 76 v -3.6 c 0,-0.22091 0.179086,-0.4 0.4,-0.4 h 7.2 c 0.220914,0 0.4,-0.17909 0.4,-0.4 v -3.2 c 0,-0.22091 0.179086,-0.4 0.4,-0.4 h 3.2 c 0.220914,0 0.4,-0.17909 0.4,-0.4 V 112 h 3.6 c 0.220914,0 0.4,-0.17909 0.4,-0.4 V 108 h 3.6 c 0.220914,0 0.4,0.17909 0.4,0.4 v 7.6 h -3.6 c -0.220914,0 -0.4,0.17909 -0.4,0.4 v 3.2 c 0,0.22091 0.179086,0.4 0.4,0.4 H 96 v 7.6 c 0,0.22091 -0.179086,0.4 -0.4,0.4 h -7.2 c -0.220914,0 -0.4,0.17909 -0.4,0.4 v 3.2 c 0,0.22091 -0.179086,0.4 -0.4,0.4 z m -16,0 H 60.4 C 60.179086,132 60,131.82091 60,131.6 V 128 h 3.6 c 0.220914,0 0.4,-0.17909 0.4,-0.4 v -7.2 c 0,-0.22091 0.179086,-0.4 0.4,-0.4 H 68 v 3.6 c 0,0.22091 0.179086,0.4 0.4,0.4 H 76 v 3.6 c 0,0.22091 -0.179086,0.4 -0.4,0.4 h -3.2 c -0.220914,0 -0.4,0.17909 -0.4,0.4 v 3.2 c 0,0.22091 -0.179086,0.4 -0.4,0.4 z m -16,0 h -3.2 c -0.220914,0 -0.4,-0.17909 -0.4,-0.4 v -7.2 c 0,-0.22091 0.179086,-0.4 0.4,-0.4 h 3.2 c 0.220914,0 0.4,-0.17909 0.4,-0.4 V 120 h 3.6 c 0.220914,0 0.4,0.17909 0.4,0.4 v 7.6 h -3.6 c -0.220914,0 -0.4,0.17909 -0.4,0.4 v 3.2 c 0,0.22091 -0.179086,0.4 -0.4,0.4 z m -8,0 H 44.4 C 44.179086,132 44,131.82091 44,131.6 V 104.4 C 44,104.17909 43.820914,104 43.6,104 H 16.4 C 16.179086,104 16,103.82091 16,103.6 V 92.4 C 16,92.179086 16.179086,92 16.4,92 h 3.2 C 19.820914,92 20,91.820914 20,91.6 V 88 h 3.6 c 0.220914,0 0.4,0.179086 0.4,0.4 v 3.2 c 0,0.220914 0.179086,0.4 0.4,0.4 h 7.2 c 0.220914,0 0.4,0.179086 0.4,0.4 V 96 H 20.4 C 20.179086,96 20,96.179086 20,96.4 v 3.2 c 0,0.220914 0.179086,0.4 0.4,0.4 h 11.2 c 0.220914,0 0.4,-0.179086 0.4,-0.4 V 96 h 3.6 c 0.220914,0 0.4,0.179086 0.4,0.4 v 3.2 c 0,0.220914 0.179086,0.4 0.4,0.4 H 48 v 3.6 c 0,0.22091 0.179086,0.4 0.4,0.4 H 52 v 12 h -3.6 c -0.220914,0 -0.4,0.17909 -0.4,0.4 v 15.2 c 0,0.22091 -0.179086,0.4 -0.4,0.4 z m 60,-4 h -3.2 c -0.22091,0 -0.4,-0.17909 -0.4,-0.4 v -3.2 c 0,-0.22091 -0.17909,-0.4 -0.4,-0.4 h -3.2 c -0.22091,0 -0.4,-0.17909 -0.4,-0.4 V 120 h 3.6 c 0.22091,0 0.4,-0.17909 0.4,-0.4 v -3.2 c 0,-0.22091 0.17909,-0.4 0.4,-0.4 h 3.2 c 0.22091,0 0.4,0.17909 0.4,0.4 V 128 Z m -68,0 H 20.4 c -0.220914,0 -0.4,-0.17909 -0.4,-0.4 v -19.2 c 0,-0.22091 0.179086,-0.4 0.4,-0.4 h 19.2 c 0.220914,0 0.4,0.17909 0.4,0.4 v 19.2 c 0,0.22091 -0.179086,0.4 -0.4,0.4 z m 88,-4 H 124 v -3.6 c 0,-0.22091 -0.17909,-0.4 -0.4,-0.4 H 120 v -4 h 7.6 c 0.22091,0 0.4,0.17909 0.4,0.4 V 124 Z M 36,123.6 V 112.4 C 36,112.17909 35.820914,112 35.6,112 H 24.4 c -0.220914,0 -0.4,0.17909 -0.4,0.4 v 11.2 c 0,0.22091 0.179086,0.4 0.4,0.4 h 11.2 c 0.220914,0 0.4,-0.17909 0.4,-0.4 z M 99.6,120 H 96 v -4 h 3.6 c 0.220914,0 0.4,0.17909 0.4,0.4 v 3.6 z m -28,0 H 68 v -3.6 c 0,-0.22091 0.179086,-0.4 0.4,-0.4 h 3.2 c 0.220914,0 0.4,0.17909 0.4,0.4 v 3.2 c 0,0.22091 -0.179086,0.4 -0.4,0.4 z m -16,0 H 52.4 C 52.179086,120 52,119.82091 52,119.6 V 116 h 3.6 c 0.220914,0 0.4,0.17909 0.4,0.4 v 3.6 z m 64,-4 h -3.2 c -0.22091,0 -0.4,-0.17909 -0.4,-0.4 v -3.2 c 0,-0.22091 0.17909,-0.4 0.4,-0.4 h 3.6 v 4 z m -56,0 h -3.2 c -0.220914,0 -0.4,-0.17909 -0.4,-0.4 v -3.2 c 0,-0.22091 -0.179086,-0.4 -0.4,-0.4 h -3.2 c -0.220914,0 -0.4,-0.17909 -0.4,-0.4 v -3.2 c 0,-0.22091 0.179086,-0.4 0.4,-0.4 H 68 v 3.6 c 0,0.22091 -0.179086,0.4 -0.4,0.4 h -3.2 c -0.220914,0 -0.4,0.17909 -0.4,0.4 v 3.2 c 0,0.22091 -0.179086,0.4 -0.4,0.4 z m 68,-4 h -3.2 c -0.22091,0 -0.4,-0.17909 -0.4,-0.4 v -7.2 c 0,-0.22091 0.17909,-0.4 0.4,-0.4 h 3.2 c 0.22091,0 0.4,0.17909 0.4,0.4 v 7.2 c 0,0.22091 -0.17909,0.4 -0.4,0.4 z m -8,0 H 120 v -7.6 c 0,-0.22091 0.17909,-0.4 0.4,-0.4 h 3.2 c 0.22091,0 0.4,0.17909 0.4,0.4 v 7.2 c 0,0.22091 -0.17909,0.4 -0.4,0.4 z m -12,0 h -11.2 c -0.22091,0 -0.4,-0.17909 -0.4,-0.4 v -11.2 c 0,-0.22091 0.17909,-0.4 0.4,-0.4 h 11.2 c 0.22091,0 0.4,0.17909 0.4,0.4 v 11.2 c 0,0.22091 -0.17909,0.4 -0.4,0.4 z m -24,0 h -3.2 c -0.220914,0 -0.4,-0.17909 -0.4,-0.4 v -3.2 c 0,-0.22091 -0.179086,-0.4 -0.4,-0.4 h -3.2 c -0.220914,0 -0.4,0.17909 -0.4,0.4 v 3.2 c 0,0.22091 -0.179086,0.4 -0.4,0.4 h -7.2 c -0.220914,0 -0.4,-0.17909 -0.4,-0.4 v -3.2 C 72,108.17909 71.820914,108 71.6,108 H 68 v -3.6 c 0,-0.22091 0.179086,-0.4 0.4,-0.4 h 3.2 c 0.220914,0 0.4,-0.17909 0.4,-0.4 V 100 h 7.6 c 0.220914,0 0.4,0.17909 0.4,0.4 v 3.2 c 0,0.22091 0.179086,0.4 0.4,0.4 h 3.2 c 0.220914,0 0.4,-0.17909 0.4,-0.4 v -3.2 c 0,-0.22091 0.179086,-0.4 0.4,-0.4 h 7.2 c 0.220914,0 0.4,-0.179086 0.4,-0.4 V 92.4 C 92,92.179086 91.820914,92 91.6,92 H 88.4 C 88.179086,92 88,91.820914 88,91.6 V 84.4 C 88,84.179086 87.820914,84 87.6,84 H 84.4 C 84.179086,84 84,84.179086 84,84.4 v 7.2 C 84,91.820914 83.820914,92 83.6,92 H 80 V 84.4 C 80,84.179086 79.820914,84 79.6,84 H 76.4 C 76.179086,84 76,84.179086 76,84.4 v 3.2 C 76,87.820914 75.820914,88 75.6,88 H 72 V 80 H 83.6 C 83.820914,80 84,79.820914 84,79.6 V 76 h 4 v 3.6 c 0,0.220914 0.179086,0.4 0.4,0.4 h 3.2 c 0.220914,0 0.4,0.179086 0.4,0.4 v 3.2 c 0,0.220914 0.179086,0.4 0.4,0.4 h 7.2 c 0.220914,0 0.4,-0.179086 0.4,-0.4 v -3.2 c 0,-0.220914 0.17909,-0.4 0.4,-0.4 h 11.2 c 0.22091,0 0.4,0.179086 0.4,0.4 V 84 h -3.6 c -0.22091,0 -0.4,0.179086 -0.4,0.4 v 3.2 c 0,0.220914 -0.17909,0.4 -0.4,0.4 h -3.2 c -0.22091,0 -0.4,0.179086 -0.4,0.4 v 7.2 c 0,0.220914 -0.17909,0.4 -0.4,0.4 H 96.4 C 96.179086,96 96,96.179086 96,96.4 v 7.2 c 0,0.22091 -0.179086,0.4 -0.4,0.4 h -3.2 c -0.220914,0 -0.4,0.17909 -0.4,0.4 v 3.6 h -3.6 c -0.220914,0 -0.4,0.17909 -0.4,0.4 v 3.6 z m 20.4,-4.4 v -3.2 c 0,-0.22091 -0.17909,-0.4 -0.4,-0.4 h -3.2 c -0.22091,0 -0.4,0.17909 -0.4,0.4 v 3.2 c 0,0.22091 0.17909,0.4 0.4,0.4 h 3.2 c 0.22091,0 0.4,-0.17909 0.4,-0.4 z M 63.6,104 h -3.2 c -0.220914,0 -0.4,-0.17909 -0.4,-0.4 v -3.2 c 0,-0.22091 0.179086,-0.4 0.4,-0.4 h 3.2 c 0.220914,0 0.4,0.17909 0.4,0.4 v 3.2 c 0,0.22091 -0.179086,0.4 -0.4,0.4 z m -8,0 H 52 v -3.6 C 52,100.17909 51.820914,100 51.6,100 H 48 V 96.4 C 48,96.179086 48.179086,96 48.4,96 h 7.2 c 0.220914,0 0.4,0.179086 0.4,0.4 v 7.2 c 0,0.22091 -0.179086,0.4 -0.4,0.4 z m 76,-4 h -7.2 c -0.22091,0 -0.4,-0.179086 -0.4,-0.4 V 88.4 c 0,-0.220914 0.17909,-0.4 0.4,-0.4 h 3.2 c 0.22091,0 0.4,-0.179086 0.4,-0.4 V 76.4 c 0,-0.220914 0.17909,-0.4 0.4,-0.4 h 3.2 c 0.22091,0 0.4,0.179086 0.4,0.4 v 23.2 c 0,0.220914 -0.17909,0.4 -0.4,0.4 z m -60,0 H 68.4 C 68.179086,100 68,99.820914 68,99.6 V 88.4 C 68,88.179086 68.179086,88 68.4,88 H 72 v 3.6 c 0,0.220914 0.179086,0.4 0.4,0.4 H 80 v 3.6 C 80,95.820914 79.820914,96 79.6,96 H 72.4 C 72.179086,96 72,96.179086 72,96.4 v 3.6 z m 48,-4 h -3.2 C 116.17909,96 116,95.820914 116,95.6 V 88 h 3.6 c 0.22091,0 0.4,0.179086 0.4,0.4 v 7.2 c 0,0.220914 -0.17909,0.4 -0.4,0.4 z m -56,0 H 60.4 C 60.179086,96 60,95.820914 60,95.6 V 92.4 C 60,92.179086 60.179086,92 60.4,92 h 3.2 c 0.220914,0 0.4,0.179086 0.4,0.4 v 3.2 c 0,0.220914 -0.179086,0.4 -0.4,0.4 z m -20,0 H 40.4 C 40.179086,96 40,95.820914 40,95.6 V 92.4 C 40,92.179086 40.179086,92 40.4,92 H 44 v 3.6 C 44,95.820914 43.820914,96 43.6,96 Z M 100,91.6 V 88.4 C 100,88.179086 99.820914,88 99.6,88 H 96.4 C 96.179086,88 96,88.179086 96,88.4 v 3.2 c 0,0.220914 0.179086,0.4 0.4,0.4 h 3.2 c 0.220914,0 0.4,-0.179086 0.4,-0.4 z M 47.6,92 H 44 V 88.4 C 44,88.179086 43.820914,88 43.6,88 H 40.4 C 40.179086,88 40,87.820914 40,87.6 V 84.4 C 40,84.179086 40.179086,84 40.4,84 H 48 v 7.6 c 0,0.220914 -0.179086,0.4 -0.4,0.4 z m 68,-4 h -3.2 C 112.17909,88 112,87.820914 112,87.6 V 84 h 3.6 c 0.22091,0 0.4,0.179086 0.4,0.4 V 88 Z m -52,0 H 52.4 C 52.179086,88 52,87.820914 52,87.6 V 84.4 C 52,84.179086 51.820914,84 51.6,84 H 48 V 80.4 C 48,80.179086 48.179086,80 48.4,80 H 60 v 3.6 c 0,0.220914 0.179086,0.4 0.4,0.4 H 64 v 3.6 c 0,0.220914 -0.179086,0.4 -0.4,0.4 z m -44,0 H 16.4 C 16.179086,88 16,87.820914 16,87.6 V 68.4 C 16,68.179086 16.179086,68 16.4,68 h 3.2 c 0.220914,0 0.4,0.179086 0.4,0.4 v 3.2 c 0,0.220914 0.179086,0.4 0.4,0.4 h 3.2 C 23.820914,72 24,71.820914 24,71.6 V 64.4 C 24,64.179086 23.820914,64 23.6,64 H 16.4 C 16.179086,64 16,63.820914 16,63.6 V 60.4 C 16,60.179086 16.179086,60 16.4,60 h 7.2 C 23.820914,60 24,59.820914 24,59.6 V 52.4 C 24,52.179086 24.179086,52 24.4,52 h 3.2 c 0.220914,0 0.4,0.179086 0.4,0.4 v 3.2 c 0,0.220914 0.179086,0.4 0.4,0.4 h 3.2 c 0.220914,0 0.4,0.179086 0.4,0.4 v 3.2 C 32,59.820914 31.820914,60 31.6,60 H 28.4 C 28.179086,60 28,60.179086 28,60.4 v 3.2 c 0,0.220914 0.179086,0.4 0.4,0.4 h 7.2 c 0.220914,0 0.4,0.179086 0.4,0.4 V 68 H 28.4 C 28.179086,68 28,68.179086 28,68.4 V 76 H 24.4 C 24.179086,76 24,76.179086 24,76.4 v 3.2 c 0,0.220914 0.179086,0.4 0.4,0.4 h 3.2 C 27.820914,80 28,79.820914 28,79.6 V 76 h 4 v 7.6 C 32,83.820914 31.820914,84 31.6,84 H 20.4 C 20.179086,84 20,84.179086 20,84.4 V 88 Z m 104,-4 h -3.2 c -0.22091,0 -0.4,-0.179086 -0.4,-0.4 v -3.2 c 0,-0.220914 -0.17909,-0.4 -0.4,-0.4 h -3.2 c -0.22091,0 -0.4,-0.179086 -0.4,-0.4 v -3.2 c 0,-0.220914 -0.17909,-0.4 -0.4,-0.4 h -7.2 c -0.22091,0 -0.4,-0.179086 -0.4,-0.4 v -7.2 c 0,-0.220914 -0.17909,-0.4 -0.4,-0.4 h -3.2 c -0.22091,0 -0.4,0.179086 -0.4,0.4 v 7.2 c 0,0.220914 -0.17909,0.4 -0.4,0.4 h -3.2 C 100.17909,76 100,75.820914 100,75.6 V 72.4 C 100,72.179086 99.820914,72 99.6,72 H 96.4 C 96.179086,72 96,71.820914 96,71.6 V 60 h 3.6 c 0.220914,0 0.4,0.179086 0.4,0.4 v 3.2 c 0,0.220914 0.17909,0.4 0.4,0.4 h 7.2 c 0.22091,0 0.4,-0.179086 0.4,-0.4 V 60 h 4 v 3.6 c 0,0.220914 0.17909,0.4 0.4,0.4 h 3.6 v 3.6 c 0,0.220914 0.17909,0.4 0.4,0.4 h 3.2 c 0.22091,0 0.4,0.179086 0.4,0.4 v 7.2 c 0,0.220914 0.17909,0.4 0.4,0.4 h 3.2 c 0.22091,0 0.4,0.179086 0.4,0.4 v 7.2 c 0,0.220914 -0.17909,0.4 -0.4,0.4 z m -56,0 H 64 v -4 h 4 v 3.6 c 0,0.220914 -0.179086,0.4 -0.4,0.4 z m 4,-4 H 68 V 76.4 C 68,76.179086 68.179086,76 68.4,76 H 72 v 4 z m -8,0 H 60 V 76.4 C 60,76.179086 59.820914,76 59.6,76 H 48.4 C 48.179086,76 48,75.820914 48,75.6 V 60.4 C 48,60.179086 48.179086,60 48.4,60 h 3.2 C 51.820914,60 52,59.820914 52,59.6 V 56.4 C 52,56.179086 52.179086,56 52.4,56 h 3.2 C 55.820914,56 56,55.820914 56,55.6 V 52.4 C 56,52.179086 55.820914,52 55.6,52 H 52.4 C 52.179086,52 52,51.820914 52,51.6 V 48 h 3.6 C 55.820914,48 56,47.820914 56,47.6 V 44 h 4 v 3.6 c 0,0.220914 0.179086,0.4 0.4,0.4 h 3.2 C 63.820914,48 64,47.820914 64,47.6 V 44 h 3.6 C 67.820914,44 68,43.820914 68,43.6 V 36.4 C 68,36.179086 67.820914,36 67.6,36 H 64 V 28.4 C 64,28.179086 64.179086,28 64.4,28 h 3.2 c 0.220914,0 0.4,0.179086 0.4,0.4 v 3.2 c 0,0.220914 0.179086,0.4 0.4,0.4 H 76 v 3.6 c 0,0.220914 0.179086,0.4 0.4,0.4 H 88 v 7.6 C 88,43.820914 87.820914,44 87.6,44 H 84 V 40.4 C 84,40.179086 83.820914,40 83.6,40 H 80.4 C 80.179086,40 80,40.179086 80,40.4 v 3.2 c 0,0.220914 0.179086,0.4 0.4,0.4 H 84 v 3.6 C 84,47.820914 83.820914,48 83.6,48 H 72.4 C 72.179086,48 72,48.179086 72,48.4 V 52 H 68.4 C 68.179086,52 68,52.179086 68,52.4 v 3.2 c 0,0.220914 0.179086,0.4 0.4,0.4 H 72 v 4 H 60.4 C 60.179086,60 60,60.179086 60,60.4 v 7.2 C 60,67.820914 59.820914,68 59.6,68 H 56.4 C 56.179086,68 56,67.820914 56,67.6 V 64.4 C 56,64.179086 55.820914,64 55.6,64 H 52.4 C 52.179086,64 52,64.179086 52,64.4 v 7.2 c 0,0.220914 0.179086,0.4 0.4,0.4 H 64 v 8 z m -20,0 H 36.4 C 36.179086,80 36,79.820914 36,79.6 V 76.4 C 36,76.179086 35.820914,76 35.6,76 H 32 V 72.4 C 32,72.179086 32.179086,72 32.4,72 h 3.2 C 35.820914,72 36,71.820914 36,71.6 V 68 h 7.6 c 0.220914,0 0.4,0.179086 0.4,0.4 v 3.2 C 44,71.820914 43.820914,72 43.6,72 H 40.4 C 40.179086,72 40,72.179086 40,72.4 v 3.2 c 0,0.220914 0.179086,0.4 0.4,0.4 h 3.2 c 0.220914,0 0.4,0.179086 0.4,0.4 v 3.2 c 0,0.220914 -0.179086,0.4 -0.4,0.4 z m 48,-4 H 88 v -4 h 3.6 c 0.220914,0 0.4,0.179086 0.4,0.4 v 3.2 c 0,0.220914 -0.179086,0.4 -0.4,0.4 z m -8,0 H 72 V 72.4 C 72,72.179086 72.179086,72 72.4,72 h 7.2 C 79.820914,72 80,71.820914 80,71.6 V 68.4 C 80,68.179086 79.820914,68 79.6,68 H 76.4 C 76.179086,68 76,67.820914 76,67.6 V 64.4 C 76,64.179086 75.820914,64 75.6,64 H 72.4 C 72.179086,64 72,63.820914 72,63.6 V 60 h 3.6 C 75.820914,60 76,59.820914 76,59.6 V 56.4 C 76,56.179086 75.820914,56 75.6,56 H 72 v -4 h 7.6 c 0.220914,0 0.4,0.179086 0.4,0.4 v 7.2 c 0,0.220914 0.179086,0.4 0.4,0.4 H 88 v 4 H 84.4 C 84.179086,64 84,64.179086 84,64.4 v 3.2 c 0,0.220914 0.179086,0.4 0.4,0.4 H 88 v 4 H 84.4 C 84.179086,72 84,72.179086 84,72.4 V 76 Z m -16,-4 H 64 V 64.4 C 64,64.179086 64.179086,64 64.4,64 h 3.2 c 0.220914,0 0.4,0.179086 0.4,0.4 v 7.2 c 0,0.220914 -0.179086,0.4 -0.4,0.4 z m 64,-4 h -7.2 C 124.17909,68 124,67.820914 124,67.6 V 64.4 C 124,64.179086 123.82091,64 123.6,64 H 116 V 60.4 C 116,60.179086 115.82091,60 115.6,60 H 112 v -3.6 c 0,-0.220914 0.17909,-0.4 0.4,-0.4 h 3.2 c 0.22091,0 0.4,-0.179086 0.4,-0.4 v -3.2 c 0,-0.220914 0.17909,-0.4 0.4,-0.4 h 7.2 c 0.22091,0 0.4,-0.179086 0.4,-0.4 v -3.2 c 0,-0.220914 -0.17909,-0.4 -0.4,-0.4 h -11.2 c -0.22091,0 -0.4,0.179086 -0.4,0.4 v 3.2 c 0,0.220914 -0.17909,0.4 -0.4,0.4 H 104 V 48.4 C 104,48.179086 103.82091,48 103.6,48 H 92.4 C 92.179086,48 92,47.820914 92,47.6 V 40.4 C 92,40.179086 92.179086,40 92.4,40 H 96 v 3.6 c 0,0.220914 0.179086,0.4 0.4,0.4 h 3.2 c 0.220914,0 0.4,-0.179086 0.4,-0.4 V 40.4 C 100,40.179086 99.820914,40 99.6,40 H 96 V 28.4 C 96,28.179086 96.179086,28 96.4,28 h 3.2 c 0.220914,0 0.4,-0.179086 0.4,-0.4 V 16.4 c 0,-0.220914 0.17909,-0.4 0.4,-0.4 h 3.2 c 0.22091,0 0.4,0.179086 0.4,0.4 v 27.2 c 0,0.220914 0.17909,0.4 0.4,0.4 h 27.2 c 0.22091,0 0.4,0.179086 0.4,0.4 v 3.2 c 0,0.220914 -0.17909,0.4 -0.4,0.4 h -3.2 c -0.22091,0 -0.4,0.179086 -0.4,0.4 V 56 h -7.6 c -0.22091,0 -0.4,0.179086 -0.4,0.4 v 3.2 c 0,0.220914 0.17909,0.4 0.4,0.4 h 7.6 v 3.6 c 0,0.220914 0.17909,0.4 0.4,0.4 h 3.2 c 0.22091,0 0.4,0.179086 0.4,0.4 v 3.2 c 0,0.220914 -0.17909,0.4 -0.4,0.4 z m -40,0 H 88 v -4 h 3.6 c 0.220914,0 0.4,0.179086 0.4,0.4 v 3.2 c 0,0.220914 -0.179086,0.4 -0.4,0.4 z m -48,-4 H 40.4 C 40.179086,64 40,63.820914 40,63.6 V 60 h 3.6 c 0.220914,0 0.4,0.179086 0.4,0.4 v 3.2 c 0,0.220914 -0.179086,0.4 -0.4,0.4 z m 88,-4 H 128 v -4 h 3.6 c 0.22091,0 0.4,0.179086 0.4,0.4 v 3.2 c 0,0.220914 -0.17909,0.4 -0.4,0.4 z m -24,0 h -3.2 C 104.17909,60 104,59.820914 104,59.6 V 56 h 3.6 c 0.22091,0 0.4,0.179086 0.4,0.4 V 60 Z m -12,0 H 88 V 56.4 C 88,56.179086 88.179086,56 88.4,56 h 7.2 c 0.220914,0 0.4,0.179086 0.4,0.4 V 60 Z m -56,0 H 36.4 C 36.179086,60 36,59.820914 36,59.6 V 52.4 C 36,52.179086 35.820914,52 35.6,52 H 32.4 C 32.179086,52 32,51.820914 32,51.6 V 48.4 C 32,48.179086 31.820914,48 31.6,48 H 16.4 C 16.179086,48 16,47.820914 16,47.6 V 44.4 C 16,44.179086 16.179086,44 16.4,44 H 43.6 C 43.820914,44 44,43.820914 44,43.6 V 16.4 C 44,16.179086 44.179086,16 44.4,16 h 3.2 c 0.220914,0 0.4,0.179086 0.4,0.4 v 3.2 c 0,0.220914 0.179086,0.4 0.4,0.4 h 7.2 C 55.820914,20 56,19.820914 56,19.6 V 16.4 C 56,16.179086 56.179086,16 56.4,16 h 11.2 c 0.220914,0 0.4,0.179086 0.4,0.4 v 3.2 c 0,0.220914 0.179086,0.4 0.4,0.4 h 3.2 C 71.820914,20 72,19.820914 72,19.6 V 16.4 C 72,16.179086 72.179086,16 72.4,16 h 19.2 c 0.220914,0 0.4,0.179086 0.4,0.4 V 20 H 88.4 C 88.179086,20 88,20.179086 88,20.4 V 28 H 84.4 C 84.179086,28 84,28.179086 84,28.4 v 3.2 C 84,31.820914 83.820914,32 83.6,32 H 76 V 28.4 C 76,28.179086 76.179086,28 76.4,28 h 3.2 C 79.820914,28 80,27.820914 80,27.6 V 24 h 3.6 C 83.820914,24 84,23.820914 84,23.6 V 20.4 C 84,20.179086 83.820914,20 83.6,20 H 80.4 C 80.179086,20 80,20.179086 80,20.4 V 24 H 60.4 C 60.179086,24 60,24.179086 60,24.4 v 7.2 C 60,31.820914 59.820914,32 59.6,32 H 56.4 C 56.179086,32 56,31.820914 56,31.6 V 28.4 C 56,28.179086 55.820914,28 55.6,28 H 52.4 C 52.179086,28 52,27.820914 52,27.6 V 24.4 C 52,24.179086 51.820914,24 51.6,24 H 48.4 C 48.179086,24 48,24.179086 48,24.4 v 11.2 c 0,0.220914 0.179086,0.4 0.4,0.4 h 3.2 c 0.220914,0 0.4,0.179086 0.4,0.4 V 40 H 48.4 C 48.179086,40 48,40.179086 48,40.4 v 3.2 c 0,0.220914 0.179086,0.4 0.4,0.4 H 52 v 4 H 48.4 C 48.179086,48 48,48.179086 48,48.4 v 7.2 C 48,55.820914 47.820914,56 47.6,56 H 40.4 C 40.179086,56 40,56.179086 40,56.4 V 60 Z m 64,-4 h -3.2 c -0.22091,0 -0.4,-0.179086 -0.4,-0.4 v -3.2 c 0,-0.220914 0.17909,-0.4 0.4,-0.4 h 3.6 v 4 z m -84,0 H 16.4 C 16.179086,56 16,55.820914 16,55.6 V 52.4 C 16,52.179086 16.179086,52 16.4,52 h 3.2 c 0.220914,0 0.4,0.179086 0.4,0.4 v 3.2 C 20,55.820914 19.820914,56 19.6,56 Z M 44,51.6 V 48.4 C 44,48.179086 43.820914,48 43.6,48 H 40.4 C 40.179086,48 40,48.179086 40,48.4 v 3.2 c 0,0.220914 0.179086,0.4 0.4,0.4 h 3.2 c 0.220914,0 0.4,-0.179086 0.4,-0.4 z m 32,-8 V 40.4 C 76,40.179086 75.820914,40 75.6,40 H 72.4 C 72.179086,40 72,40.179086 72,40.4 v 3.2 c 0,0.220914 0.179086,0.4 0.4,0.4 h 3.2 C 75.820914,44 76,43.820914 76,43.6 Z M 63.6,44 H 60 V 40.4 C 60,40.179086 59.820914,40 59.6,40 H 56 V 36.4 C 56,36.179086 56.179086,36 56.4,36 H 64 v 8 z m -8,0 H 52 v -4 h 4 v 4 z m 72,-4 H 108.4 C 108.17909,40 108,39.820914 108,39.6 V 20.4 c 0,-0.220914 0.17909,-0.4 0.4,-0.4 h 19.2 c 0.22091,0 0.4,0.179086 0.4,0.4 v 19.2 c 0,0.220914 -0.17909,0.4 -0.4,0.4 z m -88,0 H 20.4 C 20.179086,40 20,39.820914 20,39.6 V 20.4 C 20,20.179086 20.179086,20 20.4,20 h 19.2 c 0.220914,0 0.4,0.179086 0.4,0.4 V 39.6 C 40,39.820914 39.820914,40 39.6,40 Z M 124,35.6 V 24.4 c 0,-0.220914 -0.17909,-0.4 -0.4,-0.4 h -11.2 c -0.22091,0 -0.4,0.179086 -0.4,0.4 v 11.2 c 0,0.220914 0.17909,0.4 0.4,0.4 h 11.2 c 0.22091,0 0.4,-0.179086 0.4,-0.4 z M 91.6,36 H 88 v -8 h 3.6 c 0.220914,0 0.4,0.179086 0.4,0.4 v 7.2 C 92,35.820914 91.820914,36 91.6,36 Z M 36,35.6 V 24.4 C 36,24.179086 35.820914,24 35.6,24 H 24.4 C 24.179086,24 24,24.179086 24,24.4 v 11.2 c 0,0.220914 0.179086,0.4 0.4,0.4 H 35.6 C 35.820914,36 36,35.820914 36,35.6 Z M 95.6,24 H 92.4 C 92.179086,24 92,23.820914 92,23.6 V 20 h 3.6 c 0.220914,0 0.4,0.179086 0.4,0.4 v 3.2 c 0,0.220914 -0.179086,0.4 -0.4,0.4 z"
       id="path251"
       style="fill:#000000" />
  </g>
</svg>
