<?xml version="1.0" encoding="UTF-8" standalone="no"?>
<!-- Created with Inkscape (http://www.inkscape.org/) -->

<svg
   inkscape:version="1.2.2 (b0a8486541, 2022-12-01)"
   sodipodi:docname="qr-code-htl.svg"
   id="svg5"
   version="1.1"
   viewBox="0 0 9 9"
   height="9mm"
   width="9mm"
   xmlns:inkscape="http://www.inkscape.org/namespaces/inkscape"
   xmlns:sodipodi="http://sodipodi.sourceforge.net/DTD/sodipodi-0.dtd"
   xmlns="http://www.w3.org/2000/svg"
   xmlns:svg="http://www.w3.org/2000/svg">
  <sodipodi:namedview
     id="namedview7"
     pagecolor="#ffffff"
     bordercolor="#666666"
     borderopacity="1.0"
     inkscape:showpageshadow="2"
     inkscape:pageopacity="0.0"
     inkscape:pagecheckerboard="0"
     inkscape:deskcolor="#d1d1d1"
     inkscape:document-units="mm"
     showgrid="false"
     inkscape:zoom="3.659624"
     inkscape:cx="15.028866"
     inkscape:cy="58.339327"
     inkscape:window-width="1499"
     inkscape:window-height="1236"
     inkscape:window-x="4287"
     inkscape:window-y="901"
     inkscape:window-maximized="0"
     inkscape:current-layer="layer1" />
  <defs
     id="defs2" />
  <g
     inkscape:label="Layer 1"
     inkscape:groupmode="layer"
     id="layer1"
     transform="translate(-75.733167,-143.27433)">
    <g
       inkscape:label="QR Code: https://htlweiz.at"
       transform="matrix(0.06818182,0,0,0.06818182,75.733167,143.27433)"
       id="g522">
      <g
         style="fill:#000000;stroke:none"
         id="g520">
        <path
           d="m 115.6,116 h -7.2 c -0.22091,0 -0.4,-0.17909 -0.4,-0.4 v -7.2 c 0,-0.22091 0.17909,-0.4 0.4,-0.4 h 3.6 v 3.6 c 0,0.22091 0.17909,0.4 0.4,0.4 h 3.2 c 0.22091,0 0.4,0.17909 0.4,0.4 v 3.2 c 0,0.22091 -0.17909,0.4 -0.4,0.4 z m -20,0 h -3.2 c -0.220914,0 -0.4,-0.17909 -0.4,-0.4 v -3.2 c 0,-0.22091 0.179086,-0.4 0.4,-0.4 H 96 v 3.6 c 0,0.22091 -0.179086,0.4 -0.4,0.4 z m -8,0 H 76.4 C 76.179086,116 76,115.82091 76,115.6 V 104 h 11.6 c 0.220914,0 0.4,0.17909 0.4,0.4 v 3.2 c 0,0.22091 -0.179086,0.4 -0.4,0.4 h -3.2 c -0.220914,0 -0.4,0.17909 -0.4,0.4 v 3.2 c 0,0.22091 0.179086,0.4 0.4,0.4 h 3.2 c 0.220914,0 0.4,0.17909 0.4,0.4 v 3.2 c 0,0.22091 -0.179086,0.4 -0.4,0.4 z m -20,0 H 64.4 C 64.179086,116 64,115.82091 64,115.6 V 112 h 3.6 c 0.220914,0 0.4,0.17909 0.4,0.4 v 3.2 c 0,0.22091 -0.179086,0.4 -0.4,0.4 z m -8,0 H 48.4 c -0.220914,0 -0.4,-0.17909 -0.4,-0.4 v -11.2 c 0,-0.22091 0.179086,-0.4 0.4,-0.4 h 7.2 c 0.220914,0 0.4,-0.17909 0.4,-0.4 V 100 h 3.6 c 0.220914,0 0.4,-0.179086 0.4,-0.4 V 96.4 C 60,96.179086 60.179086,96 60.4,96 H 64 v 7.6 c 0,0.22091 -0.179086,0.4 -0.4,0.4 h -3.2 c -0.220914,0 -0.4,0.17909 -0.4,0.4 v 3.2 c 0,0.22091 0.179086,0.4 0.4,0.4 h 3.2 c 0.220914,0 0.4,0.17909 0.4,0.4 v 3.6 h -3.6 c -0.220914,0 -0.4,0.17909 -0.4,0.4 v 3.2 c 0,0.22091 -0.179086,0.4 -0.4,0.4 z m -16,0 H 16.4 C 16.179086,116 16,115.82091 16,115.6 V 88.4 C 16,88.179086 16.179086,88 16.4,88 h 27.2 c 0.220914,0 0.4,0.179086 0.4,0.4 v 27.2 c 0,0.22091 -0.179086,0.4 -0.4,0.4 z m 60,-4 H 96 v -7.6 c 0,-0.22091 -0.179086,-0.4 -0.4,-0.4 h -3.2 c -0.220914,0 -0.4,-0.17909 -0.4,-0.4 v -3.2 C 92,100.17909 91.820914,100 91.6,100 H 80.4 C 80.179086,100 80,99.820914 80,99.6 V 92.4 C 80,92.179086 79.820914,92 79.6,92 H 76.4 C 76.179086,92 76,92.179086 76,92.4 V 104 H 72 V 96.4 C 72,96.179086 71.820914,96 71.6,96 H 64 V 92.4 C 64,92.179086 63.820914,92 63.6,92 H 60.4 C 60.179086,92 60,91.820914 60,91.6 V 88.4 C 60,88.179086 59.820914,88 59.6,88 H 56.4 C 56.179086,88 56,88.179086 56,88.4 V 100 H 48.4 C 48.179086,100 48,99.820914 48,99.6 V 84.4 C 48,84.179086 48.179086,84 48.4,84 H 63.6 C 63.820914,84 64,83.820914 64,83.6 V 80 h 3.6 c 0.220914,0 0.4,0.179086 0.4,0.4 v 3.2 c 0,0.220914 0.179086,0.4 0.4,0.4 h 3.2 c 0.220914,0 0.4,0.179086 0.4,0.4 V 88 H 68.4 C 68.179086,88 68,88.179086 68,88.4 v 3.2 c 0,0.220914 0.179086,0.4 0.4,0.4 h 3.2 C 71.820914,92 72,91.820914 72,91.6 V 88 h 3.6 C 75.820914,88 76,87.820914 76,87.6 V 76.4 C 76,76.179086 76.179086,76 76.4,76 h 3.2 c 0.220914,0 0.4,0.179086 0.4,0.4 v 3.2 c 0,0.220914 0.179086,0.4 0.4,0.4 h 3.2 C 83.820914,80 84,79.820914 84,79.6 V 72.4 C 84,72.179086 83.820914,72 83.6,72 H 80.4 C 80.179086,72 80,71.820914 80,71.6 V 68 h 3.6 C 83.820914,68 84,67.820914 84,67.6 V 60.4 C 84,60.179086 83.820914,60 83.6,60 H 80.4 C 80.179086,60 80,59.820914 80,59.6 V 56.4 C 80,56.179086 80.179086,56 80.4,56 h 7.2 C 87.820914,56 88,55.820914 88,55.6 V 52.4 C 88,52.179086 87.820914,52 87.6,52 H 76.4 C 76.179086,52 76,51.820914 76,51.6 V 48.4 C 76,48.179086 76.179086,48 76.4,48 h 3.2 C 79.820914,48 80,47.820914 80,47.6 V 40 h 3.6 c 0.220914,0 0.4,0.179086 0.4,0.4 v 7.2 c 0,0.220914 0.179086,0.4 0.4,0.4 h 7.2 c 0.220914,0 0.4,0.179086 0.4,0.4 V 60 H 88.4 C 88.179086,60 88,60.179086 88,60.4 v 3.2 c 0,0.220914 0.179086,0.4 0.4,0.4 H 92 v 8 H 88.4 C 88.179086,72 88,72.179086 88,72.4 v 7.2 c 0,0.220914 0.179086,0.4 0.4,0.4 h 7.2 C 95.820914,80 96,79.820914 96,79.6 V 76 h 3.6 c 0.220914,0 0.4,0.179086 0.4,0.4 v 3.2 c 0,0.220914 0.17909,0.4 0.4,0.4 h 3.2 c 0.22091,0 0.4,0.179086 0.4,0.4 v 19.2 c 0,0.220914 0.17909,0.4 0.4,0.4 h 3.2 c 0.22091,0 0.4,0.17909 0.4,0.4 v 3.2 c 0,0.22091 -0.17909,0.4 -0.4,0.4 h -7.2 c -0.22091,0 -0.4,0.17909 -0.4,0.4 v 3.2 c 0,0.22091 0.17909,0.4 0.4,0.4 h 3.2 c 0.22091,0 0.4,0.17909 0.4,0.4 v 3.2 c 0,0.22091 -0.17909,0.4 -0.4,0.4 z M 40,111.6 V 92.4 C 40,92.179086 39.820914,92 39.6,92 H 20.4 C 20.179086,92 20,92.179086 20,92.4 v 19.2 c 0,0.22091 0.179086,0.4 0.4,0.4 h 19.2 c 0.220914,0 0.4,-0.17909 0.4,-0.4 z M 115.6,108 H 112 v -3.6 c 0,-0.22091 0.17909,-0.4 0.4,-0.4 h 3.2 c 0.22091,0 0.4,0.17909 0.4,0.4 v 3.2 c 0,0.22091 -0.17909,0.4 -0.4,0.4 z m -44,0 h -3.2 c -0.220914,0 -0.4,-0.17909 -0.4,-0.4 v -3.2 c 0,-0.22091 0.179086,-0.4 0.4,-0.4 H 72 v 3.6 c 0,0.22091 -0.179086,0.4 -0.4,0.4 z m -36,0 H 24.4 C 24.179086,108 24,107.82091 24,107.6 V 96.4 C 24,96.179086 24.179086,96 24.4,96 h 11.2 c 0.220914,0 0.4,0.179086 0.4,0.4 v 11.2 c 0,0.22091 -0.179086,0.4 -0.4,0.4 z m 80,-8 h -3.2 c -0.22091,0 -0.4,-0.179086 -0.4,-0.4 v -3.2 c 0,-0.220914 -0.17909,-0.4 -0.4,-0.4 h -3.2 C 108.17909,96 108,95.820914 108,95.6 V 84.4 c 0,-0.220914 0.17909,-0.4 0.4,-0.4 h 7.2 c 0.22091,0 0.4,0.179086 0.4,0.4 v 15.2 c 0,0.220914 -0.17909,0.4 -0.4,0.4 z M 96,95.6 V 84.4 C 96,84.179086 95.820914,84 95.6,84 H 84.4 C 84.179086,84 84,84.179086 84,84.4 v 11.2 c 0,0.220914 0.179086,0.4 0.4,0.4 H 95.6 C 95.820914,96 96,95.820914 96,95.6 Z M 91.6,92 H 88.4 C 88.179086,92 88,91.820914 88,91.6 V 88.4 C 88,88.179086 88.179086,88 88.4,88 h 3.2 c 0.220914,0 0.4,0.179086 0.4,0.4 v 3.2 c 0,0.220914 -0.179086,0.4 -0.4,0.4 z m -48,-8 H 32.4 C 32.179086,84 32,83.820914 32,83.6 V 80.4 C 32,80.179086 32.179086,80 32.4,80 h 11.2 c 0.220914,0 0.4,0.179086 0.4,0.4 v 3.2 c 0,0.220914 -0.179086,0.4 -0.4,0.4 z m -24,0 H 16.4 C 16.179086,84 16,83.820914 16,83.6 V 80.4 C 16,80.179086 16.179086,80 16.4,80 H 20 v 3.6 c 0,0.220914 -0.179086,0.4 -0.4,0.4 z m 92,-4 h -3.2 c -0.22091,0 -0.4,-0.179086 -0.4,-0.4 v -3.2 c 0,-0.220914 -0.17909,-0.4 -0.4,-0.4 h -3.2 C 104.17909,76 104,75.820914 104,75.6 V 72 h 7.6 c 0.22091,0 0.4,-0.179086 0.4,-0.4 v -3.2 c 0,-0.220914 -0.17909,-0.4 -0.4,-0.4 h -3.2 c -0.22091,0 -0.4,-0.179086 -0.4,-0.4 v -7.2 c 0,-0.220914 -0.17909,-0.4 -0.4,-0.4 h -3.2 c -0.22091,0 -0.4,-0.179086 -0.4,-0.4 v -3.2 c 0,-0.220914 0.17909,-0.4 0.4,-0.4 h 7.2 c 0.22091,0 0.4,-0.179086 0.4,-0.4 v -3.2 c 0,-0.220914 0.17909,-0.4 0.4,-0.4 h 3.2 c 0.22091,0 0.4,0.179086 0.4,0.4 v 7.2 c 0,0.220914 -0.17909,0.4 -0.4,0.4 h -3.2 c -0.22091,0 -0.4,0.179086 -0.4,0.4 v 3.2 c 0,0.220914 0.17909,0.4 0.4,0.4 h 3.2 c 0.22091,0 0.4,0.179086 0.4,0.4 v 11.2 c 0,0.220914 -0.17909,0.4 -0.4,0.4 h -3.2 c -0.22091,0 -0.4,0.179086 -0.4,0.4 v 3.2 c 0,0.220914 -0.17909,0.4 -0.4,0.4 z m -48,0 H 60.4 C 60.179086,80 60,79.820914 60,79.6 V 76.4 C 60,76.179086 60.179086,76 60.4,76 h 3.2 c 0.220914,0 0.4,0.179086 0.4,0.4 V 80 Z m -8,0 H 52.4 C 52.179086,80 52,79.820914 52,79.6 V 76.4 C 52,76.179086 52.179086,76 52.4,76 h 3.2 c 0.220914,0 0.4,0.179086 0.4,0.4 v 3.2 c 0,0.220914 -0.179086,0.4 -0.4,0.4 z m -28,0 H 20 v -4 h 3.6 C 23.820914,76 24,75.820914 24,75.6 V 72 h 3.6 c 0.220914,0 0.4,0.179086 0.4,0.4 v 7.2 c 0,0.220914 -0.179086,0.4 -0.4,0.4 z m 68,-4 H 92.4 C 92.179086,76 92,75.820914 92,75.6 V 72 h 3.6 c 0.220914,0 0.4,0.179086 0.4,0.4 V 76 Z m -24,0 H 68.4 C 68.179086,76 68,75.820914 68,75.6 V 72.4 C 68,72.179086 68.179086,72 68.4,72 H 72 v 3.6 c 0,0.220914 -0.179086,0.4 -0.4,0.4 z m -28,0 H 40.4 C 40.179086,76 40,75.820914 40,75.6 V 72 h 3.6 c 0.220914,0 0.4,0.179086 0.4,0.4 v 3.2 c 0,0.220914 -0.179086,0.4 -0.4,0.4 z m -24,0 H 16.4 C 16.179086,76 16,75.820914 16,75.6 V 72.4 C 16,72.179086 16.179086,72 16.4,72 H 20 v 4 z m 84,-4 h -3.2 C 100.17909,72 100,71.820914 100,71.6 V 64 h 3.6 c 0.22091,0 0.4,0.179086 0.4,0.4 V 72 Z m -28,0 H 72 V 64.4 C 72,64.179086 71.820914,64 71.6,64 H 64 V 60.4 C 64,60.179086 63.820914,60 63.6,60 H 60.4 C 60.179086,60 60,60.179086 60,60.4 v 3.2 c 0,0.220914 0.179086,0.4 0.4,0.4 H 64 v 7.6 C 64,71.820914 63.820914,72 63.6,72 H 56.4 C 56.179086,72 56,71.820914 56,71.6 V 64.4 C 56,64.179086 55.820914,64 55.6,64 H 52 v -4 h 3.6 C 55.820914,60 56,59.820914 56,59.6 V 56 h 3.6 C 59.820914,56 60,55.820914 60,55.6 V 52.4 C 60,52.179086 60.179086,52 60.4,52 h 3.2 C 63.820914,52 64,51.820914 64,51.6 V 48 h 3.6 c 0.220914,0 0.4,0.179086 0.4,0.4 v 3.2 c 0,0.220914 0.179086,0.4 0.4,0.4 h 3.2 c 0.220914,0 0.4,0.179086 0.4,0.4 V 56 H 68.4 C 68.179086,56 68,56.179086 68,56.4 v 3.2 c 0,0.220914 0.179086,0.4 0.4,0.4 h 3.2 C 71.820914,60 72,59.820914 72,59.6 V 56 h 3.6 c 0.220914,0 0.4,0.179086 0.4,0.4 v 7.2 c 0,0.220914 0.179086,0.4 0.4,0.4 h 3.2 c 0.220914,0 0.4,0.179086 0.4,0.4 V 68 H 76.4 C 76.179086,68 76,68.179086 76,68.4 v 3.2 c 0,0.220914 -0.179086,0.4 -0.4,0.4 z m -24,0 H 48.4 C 48.179086,72 48,71.820914 48,71.6 V 64 h 4 v 7.6 c 0,0.220914 -0.179086,0.4 -0.4,0.4 z m -12,0 H 32.4 C 32.179086,72 32,71.820914 32,71.6 V 68 h 3.6 C 35.820914,68 36,67.820914 36,67.6 V 64.4 C 36,64.179086 36.179086,64 36.4,64 H 44 v 3.6 C 44,67.820914 43.820914,68 43.6,68 H 40.4 C 40.179086,68 40,68.179086 40,68.4 V 72 Z m -16,0 H 20 V 68.4 C 20,68.179086 19.820914,68 19.6,68 H 16.4 C 16.179086,68 16,67.820914 16,67.6 V 60.4 C 16,60.179086 16.179086,60 16.4,60 H 32 v 8 H 24.4 C 24.179086,68 24,68.179086 24,68.4 V 72 Z m 76,-8 H 92 v -4 h 3.6 C 95.820914,60 96,59.820914 96,59.6 V 56.4 C 96,56.179086 96.179086,56 96.4,56 h 3.2 c 0.220914,0 0.4,0.179086 0.4,0.4 V 64 Z m -52,0 H 44 V 60.4 C 44,60.179086 43.820914,60 43.6,60 H 32 V 56.4 C 32,56.179086 32.179086,56 32.4,56 h 3.2 C 35.820914,56 36,55.820914 36,55.6 V 52.4 C 36,52.179086 35.820914,52 35.6,52 H 32.4 C 32.179086,52 32,51.820914 32,51.6 V 48.4 C 32,48.179086 32.179086,48 32.4,48 H 47.6 C 47.820914,48 48,47.820914 48,47.6 V 40.4 C 48,40.179086 48.179086,40 48.4,40 h 3.2 c 0.220914,0 0.4,0.179086 0.4,0.4 v 11.2 c 0,0.220914 0.179086,0.4 0.4,0.4 h 3.2 c 0.220914,0 0.4,0.179086 0.4,0.4 V 56 H 52.4 C 52.179086,56 52,56.179086 52,56.4 V 60 H 48.4 C 48.179086,60 48,60.179086 48,60.4 V 64 Z M 48,55.6 V 52.4 C 48,52.179086 47.820914,52 47.6,52 H 40.4 C 40.179086,52 40,52.179086 40,52.4 v 3.2 c 0,0.220914 0.179086,0.4 0.4,0.4 h 7.2 C 47.820914,56 48,55.820914 48,55.6 Z M 27.6,56 H 24.4 C 24.179086,56 24,55.820914 24,55.6 V 52.4 C 24,52.179086 23.820914,52 23.6,52 H 16.4 C 16.179086,52 16,51.820914 16,51.6 V 48.4 C 16,48.179086 16.179086,48 16.4,48 h 11.2 c 0.220914,0 0.4,0.179086 0.4,0.4 v 7.2 c 0,0.220914 -0.179086,0.4 -0.4,0.4 z m 80,-4 h -3.2 c -0.22091,0 -0.4,-0.179086 -0.4,-0.4 v -3.2 c 0,-0.220914 0.17909,-0.4 0.4,-0.4 h 3.2 c 0.22091,0 0.4,0.179086 0.4,0.4 v 3.2 c 0,0.220914 -0.17909,0.4 -0.4,0.4 z m -44,-4 H 60.4 C 60.179086,48 60,47.820914 60,47.6 V 44 h 4 v 4 z m 52,-4 H 88.4 C 88.179086,44 88,43.820914 88,43.6 V 16.4 C 88,16.179086 88.179086,16 88.4,16 h 27.2 c 0.22091,0 0.4,0.179086 0.4,0.4 v 27.2 c 0,0.220914 -0.17909,0.4 -0.4,0.4 z m -40,0 H 72.4 C 72.179086,44 72,43.820914 72,43.6 V 36.4 C 72,36.179086 71.820914,36 71.6,36 H 68.4 C 68.179086,36 68,36.179086 68,36.4 v 7.2 C 68,43.820914 67.820914,44 67.6,44 H 64 V 40.4 C 64,40.179086 63.820914,40 63.6,40 H 60.4 C 60.179086,40 60,40.179086 60,40.4 V 44 H 56.4 C 56.179086,44 56,43.820914 56,43.6 V 36 h 7.6 C 63.820914,36 64,35.820914 64,35.6 V 28 h 8 v 3.6 c 0,0.220914 0.179086,0.4 0.4,0.4 h 3.2 C 75.820914,32 76,31.820914 76,31.6 V 28 h 4 V 40 H 76.4 C 76.179086,40 76,40.179086 76,40.4 v 3.2 c 0,0.220914 -0.179086,0.4 -0.4,0.4 z m -32,0 H 16.4 C 16.179086,44 16,43.820914 16,43.6 V 16.4 C 16,16.179086 16.179086,16 16.4,16 h 27.2 c 0.220914,0 0.4,0.179086 0.4,0.4 V 43.6 C 44,43.820914 43.820914,44 43.6,44 Z M 112,39.6 V 20.4 C 112,20.179086 111.82091,20 111.6,20 H 92.4 C 92.179086,20 92,20.179086 92,20.4 v 19.2 c 0,0.220914 0.179086,0.4 0.4,0.4 h 19.2 c 0.22091,0 0.4,-0.179086 0.4,-0.4 z m -72,0 V 20.4 C 40,20.179086 39.820914,20 39.6,20 H 20.4 C 20.179086,20 20,20.179086 20,20.4 v 19.2 c 0,0.220914 0.179086,0.4 0.4,0.4 H 39.6 C 39.820914,40 40,39.820914 40,39.6 Z M 107.6,36 H 96.4 C 96.179086,36 96,35.820914 96,35.6 V 24.4 C 96,24.179086 96.179086,24 96.4,24 h 11.2 c 0.22091,0 0.4,0.179086 0.4,0.4 v 11.2 c 0,0.220914 -0.17909,0.4 -0.4,0.4 z m -52,0 H 52.4 C 52.179086,36 52,35.820914 52,35.6 V 28 h 3.6 c 0.220914,0 0.4,0.179086 0.4,0.4 V 36 Z m -20,0 H 24.4 C 24.179086,36 24,35.820914 24,35.6 V 24.4 C 24,24.179086 24.179086,24 24.4,24 h 11.2 c 0.220914,0 0.4,0.179086 0.4,0.4 v 11.2 c 0,0.220914 -0.179086,0.4 -0.4,0.4 z m 48,-8 H 80 V 24.4 C 80,24.179086 79.820914,24 79.6,24 H 76.4 C 76.179086,24 76,24.179086 76,24.4 V 28 H 72 V 24.4 C 72,24.179086 71.820914,24 71.6,24 H 68.4 C 68.179086,24 68,23.820914 68,23.6 V 20.4 C 68,20.179086 68.179086,20 68.4,20 h 7.2 C 75.820914,20 76,19.820914 76,19.6 V 16.4 C 76,16.179086 76.179086,16 76.4,16 h 3.2 c 0.220914,0 0.4,0.179086 0.4,0.4 v 3.2 c 0,0.220914 0.179086,0.4 0.4,0.4 h 3.2 c 0.220914,0 0.4,0.179086 0.4,0.4 v 7.2 c 0,0.220914 -0.179086,0.4 -0.4,0.4 z m -20,0 H 60.4 C 60.179086,28 60,27.820914 60,27.6 V 24.4 C 60,24.179086 60.179086,24 60.4,24 h 3.2 c 0.220914,0 0.4,0.179086 0.4,0.4 V 28 Z m -12,0 H 48.4 C 48.179086,28 48,27.820914 48,27.6 V 24.4 C 48,24.179086 48.179086,24 48.4,24 H 52 v 4 z m 4,-4 H 52 V 20.4 C 52,20.179086 52.179086,20 52.4,20 H 56 v 3.6 c 0,0.220914 -0.179086,0.4 -0.4,0.4 z m 4,-4 H 56 V 16.4 C 56,16.179086 56.179086,16 56.4,16 h 3.2 c 0.220914,0 0.4,0.179086 0.4,0.4 v 3.2 c 0,0.220914 -0.179086,0.4 -0.4,0.4 z"
           id="path518" />
      </g>
    </g>
  </g>
</svg>
