%TF.GenerationSoftware,KiCad,Pcbnew,(7.0.0)*%
%TF.CreationDate,2023-03-08T01:13:19+01:00*%
%TF.ProjectId,simple-io-shield,73696d70-6c65-42d6-996f-2d736869656c,rev0*%
%TF.SameCoordinates,Original*%
%TF.FileFunction,Soldermask,Top*%
%TF.FilePolarity,Negative*%
%FSLAX46Y46*%
G04 Gerber Fmt 4.6, Leading zero omitted, Abs format (unit mm)*
G04 Created by KiCad (PCBNEW (7.0.0)) date 2023-03-08 01:13:19*
%MOMM*%
%LPD*%
G01*
G04 APERTURE LIST*
G04 Aperture macros list*
%AMRoundRect*
0 Rectangle with rounded corners*
0 $1 Rounding radius*
0 $2 $3 $4 $5 $6 $7 $8 $9 X,Y pos of 4 corners*
0 Add a 4 corners polygon primitive as box body*
4,1,4,$2,$3,$4,$5,$6,$7,$8,$9,$2,$3,0*
0 Add four circle primitives for the rounded corners*
1,1,$1+$1,$2,$3*
1,1,$1+$1,$4,$5*
1,1,$1+$1,$6,$7*
1,1,$1+$1,$8,$9*
0 Add four rect primitives between the rounded corners*
20,1,$1+$1,$2,$3,$4,$5,0*
20,1,$1+$1,$4,$5,$6,$7,0*
20,1,$1+$1,$6,$7,$8,$9,0*
20,1,$1+$1,$8,$9,$2,$3,0*%
G04 Aperture macros list end*
%ADD10O,1.727200X1.727200*%
%ADD11R,1.727200X1.727200*%
%ADD12RoundRect,0.218750X0.256250X-0.218750X0.256250X0.218750X-0.256250X0.218750X-0.256250X-0.218750X0*%
%ADD13RoundRect,0.135000X-0.185000X0.135000X-0.185000X-0.135000X0.185000X-0.135000X0.185000X0.135000X0*%
%ADD14R,1.700000X1.700000*%
%ADD15O,1.700000X1.700000*%
%ADD16R,1.000000X0.750000*%
%ADD17R,2.000000X2.000000*%
%ADD18C,2.000000*%
%ADD19R,2.000000X3.200000*%
G04 APERTURE END LIST*
%TO.C,REF\u002A\u002A*%
G36*
X161462925Y-93045975D02*
G01*
X161462925Y-92545746D01*
X161968334Y-92545746D01*
X164564039Y-92545716D01*
X164687614Y-92542440D01*
X164809552Y-92533034D01*
X164929703Y-92517648D01*
X165047916Y-92496431D01*
X165164043Y-92469533D01*
X165277933Y-92437105D01*
X165389436Y-92399296D01*
X165498402Y-92356256D01*
X165604682Y-92308135D01*
X165708125Y-92255082D01*
X165808582Y-92197249D01*
X165905903Y-92134784D01*
X165999937Y-92067838D01*
X166090536Y-91996561D01*
X166177548Y-91921102D01*
X166260825Y-91841611D01*
X166340216Y-91758239D01*
X166415571Y-91671135D01*
X166486741Y-91580449D01*
X166553575Y-91486331D01*
X166615924Y-91388932D01*
X166673638Y-91288400D01*
X166726566Y-91184886D01*
X166774560Y-91078540D01*
X166817468Y-90969511D01*
X166855142Y-90857950D01*
X166887431Y-90744007D01*
X166914186Y-90627831D01*
X166935256Y-90509572D01*
X166950491Y-90389381D01*
X166959743Y-90267406D01*
X166962860Y-90143799D01*
X166962860Y-87551194D01*
X165143848Y-87551194D01*
X164920606Y-87551194D01*
X164920593Y-87551194D01*
X162645811Y-87551194D01*
X162643211Y-87553795D01*
X163657102Y-88567169D01*
X165952570Y-88567169D01*
X165952570Y-90145882D01*
X165950760Y-90217542D01*
X165945390Y-90288253D01*
X165936547Y-90357928D01*
X165924317Y-90426481D01*
X165908788Y-90493823D01*
X165890047Y-90559868D01*
X165868181Y-90624530D01*
X165843277Y-90687721D01*
X165815424Y-90749354D01*
X165784706Y-90809343D01*
X165751213Y-90867600D01*
X165715030Y-90924039D01*
X165676246Y-90978572D01*
X165634947Y-91031113D01*
X165591220Y-91081574D01*
X165545154Y-91129869D01*
X165496833Y-91175910D01*
X165446347Y-91219612D01*
X165393782Y-91260886D01*
X165339226Y-91299646D01*
X165282765Y-91335805D01*
X165224486Y-91369275D01*
X165164478Y-91399971D01*
X165102826Y-91427805D01*
X165039618Y-91452690D01*
X164974942Y-91474539D01*
X164908884Y-91493265D01*
X164841532Y-91508782D01*
X164772972Y-91521001D01*
X164703293Y-91529837D01*
X164632581Y-91535203D01*
X164560922Y-91537010D01*
X162980657Y-91537010D01*
X162980657Y-89989304D01*
X162983257Y-89986206D01*
X163762022Y-90757736D01*
X164466371Y-90052353D01*
X162981708Y-88566139D01*
X161968334Y-87551216D01*
X161968334Y-92545746D01*
X161462925Y-92545746D01*
X161462925Y-86994149D01*
X161962635Y-86994149D01*
X164920593Y-86994149D01*
X164920593Y-86927483D01*
X165143848Y-86927483D01*
X166957175Y-86668587D01*
X166957175Y-85951317D01*
X166358314Y-85847678D01*
X166151455Y-85813126D01*
X166006329Y-85790085D01*
X166137768Y-85770749D01*
X166265615Y-85750676D01*
X166389869Y-85729867D01*
X166510527Y-85708326D01*
X166627589Y-85686055D01*
X166741052Y-85663059D01*
X166850915Y-85639339D01*
X166957175Y-85614899D01*
X166957175Y-84893494D01*
X166957174Y-84893494D01*
X165143849Y-84635628D01*
X165143849Y-85197350D01*
X165301694Y-85224365D01*
X165460473Y-85249416D01*
X165620175Y-85272505D01*
X165780789Y-85293633D01*
X165942305Y-85312803D01*
X166104709Y-85330016D01*
X166267993Y-85345275D01*
X166432143Y-85358582D01*
X165742261Y-85422661D01*
X165510379Y-85445778D01*
X165333300Y-85463976D01*
X165211099Y-85477279D01*
X165143848Y-85485710D01*
X165143848Y-86086190D01*
X165331609Y-86116655D01*
X165510175Y-86144105D01*
X165679541Y-86168548D01*
X165839703Y-86189989D01*
X165990657Y-86208436D01*
X166132396Y-86223894D01*
X166264918Y-86236371D01*
X166388217Y-86245873D01*
X165776368Y-86304779D01*
X165143848Y-86365761D01*
X165143848Y-86927483D01*
X164920593Y-86927483D01*
X164920593Y-86228821D01*
X163873628Y-86228821D01*
X163873628Y-85801461D01*
X164920593Y-85801461D01*
X164920593Y-85039231D01*
X162758968Y-85039231D01*
X161962635Y-85039231D01*
X161962635Y-85801461D01*
X163042156Y-85801461D01*
X163042156Y-86228821D01*
X161962635Y-86228821D01*
X161962635Y-86994149D01*
X161462925Y-86994149D01*
X161462925Y-84791184D01*
X161962635Y-84791184D01*
X162758968Y-84791191D01*
X162758968Y-84367432D01*
X165143848Y-84367432D01*
X166957174Y-84367432D01*
X166957174Y-83339073D01*
X166594406Y-83339073D01*
X166594406Y-83789177D01*
X166195464Y-83789177D01*
X166195464Y-83339073D01*
X165850782Y-83339073D01*
X165850782Y-83789177D01*
X165506617Y-83789177D01*
X165506617Y-83339073D01*
X165143848Y-83339073D01*
X165143848Y-84367432D01*
X162758968Y-84367432D01*
X162758968Y-84174172D01*
X164920593Y-84174172D01*
X164920593Y-83411942D01*
X162758968Y-83411942D01*
X162758968Y-82994904D01*
X165143848Y-82994904D01*
X166957174Y-82994904D01*
X166957174Y-82416642D01*
X165143848Y-82416642D01*
X165143848Y-82994904D01*
X162758968Y-82994904D01*
X162758968Y-82914299D01*
X161962635Y-82106079D01*
X161962635Y-84791184D01*
X161462925Y-84791184D01*
X161462925Y-81817200D01*
X162014324Y-81817200D01*
X162776552Y-82579430D01*
X164920606Y-82579430D01*
X164920606Y-82105034D01*
X165143848Y-82105034D01*
X165506617Y-82105034D01*
X165506617Y-81647698D01*
X166694141Y-82152062D01*
X166957174Y-82152062D01*
X166957174Y-81026551D01*
X166594406Y-81026551D01*
X166594406Y-81519028D01*
X165506617Y-81026551D01*
X165143848Y-81026551D01*
X165143848Y-82105034D01*
X164920606Y-82105034D01*
X164920606Y-80939736D01*
X164197136Y-80939736D01*
X164197136Y-81817200D01*
X162014324Y-81817200D01*
X161462925Y-81817200D01*
X161462925Y-80440026D01*
X167463075Y-80440026D01*
X167463075Y-93045975D01*
X161968334Y-93045975D01*
X161462925Y-93045975D01*
G37*
%TD*%
D10*
%TO.C,XA1*%
X170179999Y-129539999D03*
D11*
X167639999Y-129539999D03*
X165099999Y-129539999D03*
D10*
X170179999Y-81279999D03*
X172719999Y-81279999D03*
X175259999Y-81279999D03*
X177799999Y-81279999D03*
X180339999Y-81279999D03*
X182879999Y-81279999D03*
X185419999Y-81279999D03*
X187959999Y-81279999D03*
X187959999Y-129539999D03*
X185419999Y-129539999D03*
X182879999Y-129539999D03*
X180339999Y-129539999D03*
X177799999Y-129539999D03*
X175259999Y-129539999D03*
X162559999Y-129539999D03*
%TD*%
D12*
%TO.C,D4*%
X177800000Y-89967000D03*
X177800000Y-88392000D03*
%TD*%
D13*
%TO.C,R5*%
X170180000Y-91719500D03*
X170180000Y-92739500D03*
%TD*%
D14*
%TO.C,J2*%
X165099999Y-124459999D03*
D15*
X165099999Y-121919999D03*
%TD*%
D13*
%TO.C,R2*%
X177800000Y-123950000D03*
X177800000Y-124970000D03*
%TD*%
D12*
%TO.C,D3*%
X180340000Y-89967000D03*
X180340000Y-88392000D03*
%TD*%
D13*
%TO.C,R3*%
X180340000Y-123950000D03*
X180340000Y-124970000D03*
%TD*%
D16*
%TO.C,SW1*%
X164639999Y-104042999D03*
X170639999Y-104042999D03*
X164639999Y-107792999D03*
X170639999Y-107792999D03*
%TD*%
D17*
%TO.C,SW3*%
X180419999Y-111759999D03*
D18*
X185420000Y-111760000D03*
X182920000Y-111760000D03*
D19*
X177319999Y-104259999D03*
X188519999Y-104259999D03*
D18*
X185420000Y-97260000D03*
X180420000Y-97260000D03*
%TD*%
D12*
%TO.C,D2*%
X182880000Y-89967000D03*
X182880000Y-88392000D03*
%TD*%
D13*
%TO.C,R4*%
X187960000Y-123950000D03*
X187960000Y-124970000D03*
%TD*%
D12*
%TO.C,D6*%
X172720000Y-89967000D03*
X172720000Y-88392000D03*
%TD*%
D13*
%TO.C,R8*%
X182880000Y-123951240D03*
X182880000Y-124971240D03*
%TD*%
%TO.C,R7*%
X185420000Y-123950000D03*
X185420000Y-124970000D03*
%TD*%
D12*
%TO.C,D5*%
X175260000Y-89967000D03*
X175260000Y-88392000D03*
%TD*%
D13*
%TO.C,R1*%
X175260000Y-123950000D03*
X175260000Y-124970000D03*
%TD*%
D12*
%TO.C,D7*%
X170180000Y-89967000D03*
X170180000Y-88392000D03*
%TD*%
D13*
%TO.C,R11*%
X180340000Y-91719500D03*
X180340000Y-92739500D03*
%TD*%
D16*
%TO.C,SW2*%
X164639999Y-96422999D03*
X170639999Y-96422999D03*
X164639999Y-100172999D03*
X170639999Y-100172999D03*
%TD*%
D13*
%TO.C,R9*%
X175260000Y-91719500D03*
X175260000Y-92739500D03*
%TD*%
%TO.C,R6*%
X172720000Y-91719500D03*
X172720000Y-92739500D03*
%TD*%
%TO.C,R12*%
X182880000Y-91719500D03*
X182880000Y-92739500D03*
%TD*%
%TO.C,R10*%
X177800000Y-91719500D03*
X177800000Y-92739500D03*
%TD*%
D16*
%TO.C,SW0*%
X164639999Y-111662999D03*
X170639999Y-111662999D03*
X164639999Y-115412999D03*
X170639999Y-115412999D03*
%TD*%
D14*
%TO.C,J1*%
X170179999Y-121919999D03*
D15*
X172719999Y-121919999D03*
%TD*%
M02*
