M48
; DRILL file {KiCad (7.0.0)} date 2023-03-17T06:32:27 CET
; FORMAT={-:-/ absolute / inch / decimal}
; #@! TF.CreationDate,2023-03-17T06:32:27+01:00
; #@! TF.GenerationSoftware,Kicad,Pcbnew,(7.0.0)
; #@! TF.FileFunction,Plated,1,2,PTH
FMAT,2
INCH
; #@! TA.AperFunction,Plated,PTH,ViaDrill
T1C0.0157
; #@! TA.AperFunction,Plated,PTH,ComponentDrill
T2C0.0394
; #@! TA.AperFunction,Plated,PTH,ComponentDrill
T3C0.0400
; #@! TA.AperFunction,Plated,PTH,ComponentDrill
T4C0.0591
%
G90
G05
T1
X6.6Y-3.72
X6.6Y-4.02
X6.6Y-4.32
X6.6Y-4.61
X6.8Y-3.701
X6.8Y-5.1
X6.9Y-3.701
X6.9Y-4.76
X6.9Y-4.82
X6.95Y-4.98
X7.0Y-3.701
X7.0Y-4.76
X7.0Y-4.82
X7.05Y-4.98
X7.1Y-3.701
X7.1Y-4.76
X7.1Y-4.82
X7.15Y-4.98
X7.2Y-3.701
X7.2Y-4.76
X7.2Y-4.82
X7.25Y-4.98
X7.3Y-4.76
X7.3Y-4.82
X7.35Y-4.98
X7.4Y-4.76
X7.4Y-4.82
X7.45Y-4.98
T2
X6.5Y-4.8
X6.5Y-4.9
X6.7Y-4.8
X6.8Y-4.8
X7.1031Y-3.8291
X7.1031Y-4.4
X7.2016Y-4.4
X7.3Y-3.8291
X7.3Y-4.4
T3
X6.4Y-5.1
X6.5Y-5.1
X6.6Y-5.1
X6.7Y-3.2
X6.7Y-5.1
X6.8Y-3.2
X6.9Y-3.2
X6.9Y-5.1
X7.0Y-3.2
X7.0Y-5.1
X7.1Y-3.2
X7.1Y-5.1
X7.2Y-3.2
X7.2Y-5.1
X7.3Y-3.2
X7.3Y-5.1
X7.4Y-3.2
X7.4Y-5.1
T4
G00X6.9811Y-4.1303
M15
G01X6.9811Y-4.0791
M16
G05
G00X7.422Y-4.1303
M15
G01X7.422Y-4.0791
M16
G05
T0
M30
