%TF.GenerationSoftware,KiCad,Pcbnew,(7.0.0)*%
%TF.CreationDate,2023-03-08T01:13:19+01:00*%
%TF.ProjectId,simple-io-shield,73696d70-6c65-42d6-996f-2d736869656c,rev0*%
%TF.SameCoordinates,Original*%
%TF.FileFunction,Copper,L1,Top*%
%TF.FilePolarity,Positive*%
%FSLAX46Y46*%
G04 Gerber Fmt 4.6, Leading zero omitted, Abs format (unit mm)*
G04 Created by KiCad (PCBNEW (7.0.0)) date 2023-03-08 01:13:19*
%MOMM*%
%LPD*%
G01*
G04 APERTURE LIST*
G04 Aperture macros list*
%AMRoundRect*
0 Rectangle with rounded corners*
0 $1 Rounding radius*
0 $2 $3 $4 $5 $6 $7 $8 $9 X,Y pos of 4 corners*
0 Add a 4 corners polygon primitive as box body*
4,1,4,$2,$3,$4,$5,$6,$7,$8,$9,$2,$3,0*
0 Add four circle primitives for the rounded corners*
1,1,$1+$1,$2,$3*
1,1,$1+$1,$4,$5*
1,1,$1+$1,$6,$7*
1,1,$1+$1,$8,$9*
0 Add four rect primitives between the rounded corners*
20,1,$1+$1,$2,$3,$4,$5,0*
20,1,$1+$1,$4,$5,$6,$7,0*
20,1,$1+$1,$6,$7,$8,$9,0*
20,1,$1+$1,$8,$9,$2,$3,0*%
G04 Aperture macros list end*
%TA.AperFunction,ComponentPad*%
%ADD10O,1.727200X1.727200*%
%TD*%
%TA.AperFunction,ComponentPad*%
%ADD11R,1.727200X1.727200*%
%TD*%
%TA.AperFunction,SMDPad,CuDef*%
%ADD12RoundRect,0.218750X0.256250X-0.218750X0.256250X0.218750X-0.256250X0.218750X-0.256250X-0.218750X0*%
%TD*%
%TA.AperFunction,SMDPad,CuDef*%
%ADD13RoundRect,0.135000X-0.185000X0.135000X-0.185000X-0.135000X0.185000X-0.135000X0.185000X0.135000X0*%
%TD*%
%TA.AperFunction,ComponentPad*%
%ADD14R,1.700000X1.700000*%
%TD*%
%TA.AperFunction,ComponentPad*%
%ADD15O,1.700000X1.700000*%
%TD*%
%TA.AperFunction,SMDPad,CuDef*%
%ADD16R,1.000000X0.750000*%
%TD*%
%TA.AperFunction,ComponentPad*%
%ADD17R,2.000000X2.000000*%
%TD*%
%TA.AperFunction,ComponentPad*%
%ADD18C,2.000000*%
%TD*%
%TA.AperFunction,ComponentPad*%
%ADD19R,2.000000X3.200000*%
%TD*%
%TA.AperFunction,ViaPad*%
%ADD20C,0.800000*%
%TD*%
%TA.AperFunction,Conductor*%
%ADD21C,0.250000*%
%TD*%
G04 APERTURE END LIST*
%TO.C,REF\u002A\u002A*%
G36*
X161462925Y-93045975D02*
G01*
X161462925Y-92545746D01*
X161968321Y-92545746D01*
X164564028Y-92545746D01*
X164687603Y-92542470D01*
X164809541Y-92533064D01*
X164929692Y-92517677D01*
X165047906Y-92496459D01*
X165164032Y-92469561D01*
X165277922Y-92437133D01*
X165389425Y-92399323D01*
X165498391Y-92356283D01*
X165604671Y-92308162D01*
X165708114Y-92255109D01*
X165808571Y-92197276D01*
X165905892Y-92134811D01*
X165999926Y-92067865D01*
X166090525Y-91996588D01*
X166177537Y-91921129D01*
X166260814Y-91841639D01*
X166340205Y-91758267D01*
X166415560Y-91671163D01*
X166486729Y-91580478D01*
X166553564Y-91486360D01*
X166615912Y-91388961D01*
X166673626Y-91288429D01*
X166726555Y-91184915D01*
X166774548Y-91078569D01*
X166817457Y-90969541D01*
X166855130Y-90857980D01*
X166887420Y-90744037D01*
X166914174Y-90627861D01*
X166935244Y-90509603D01*
X166950479Y-90389411D01*
X166959731Y-90267437D01*
X166962848Y-90143830D01*
X166962848Y-87551217D01*
X165952573Y-88567696D01*
X165952573Y-90145897D01*
X165950763Y-90217559D01*
X165945393Y-90288274D01*
X165936550Y-90357956D01*
X165924320Y-90426518D01*
X165908791Y-90493872D01*
X165890050Y-90559931D01*
X165868185Y-90624608D01*
X165843281Y-90687817D01*
X165815427Y-90749469D01*
X165784710Y-90809477D01*
X165751216Y-90867755D01*
X165715034Y-90924216D01*
X165676250Y-90978772D01*
X165634951Y-91031336D01*
X165591224Y-91081821D01*
X165545158Y-91130140D01*
X165496838Y-91176205D01*
X165446352Y-91219930D01*
X165393787Y-91261228D01*
X165339230Y-91300011D01*
X165282769Y-91336192D01*
X165224491Y-91369684D01*
X165164482Y-91400399D01*
X165102830Y-91428252D01*
X165039623Y-91453154D01*
X164974946Y-91475018D01*
X164920595Y-91490437D01*
X164908888Y-91493758D01*
X164841536Y-91509286D01*
X164772977Y-91521515D01*
X164703297Y-91530358D01*
X164632585Y-91535728D01*
X164560926Y-91537537D01*
X162980661Y-91537537D01*
X161968321Y-92545746D01*
X161462925Y-92545746D01*
X161462925Y-86994149D01*
X161963152Y-86994149D01*
X164920595Y-86994149D01*
X164920595Y-86228822D01*
X163873631Y-86228822D01*
X163873631Y-85801972D01*
X164920595Y-85801972D01*
X164920595Y-85039743D01*
X162758970Y-85039743D01*
X161963152Y-85039743D01*
X161963152Y-85801972D01*
X163042156Y-85801972D01*
X163042156Y-86228822D01*
X161963152Y-86228822D01*
X161963152Y-86994149D01*
X161462925Y-86994149D01*
X161462925Y-84791185D01*
X161963152Y-84791185D01*
X162758970Y-84791185D01*
X162758970Y-84174684D01*
X164920595Y-84174684D01*
X164920595Y-83412454D01*
X162758970Y-83412454D01*
X162758970Y-82914811D01*
X161963152Y-82106591D01*
X161963152Y-84791185D01*
X161462925Y-84791185D01*
X161462925Y-81817720D01*
X162014313Y-81817720D01*
X162776539Y-82579950D01*
X164920595Y-82579950D01*
X164920595Y-80939737D01*
X164197125Y-80939737D01*
X164197125Y-81817720D01*
X162014313Y-81817720D01*
X161462925Y-81817720D01*
X161462925Y-80440027D01*
X167463076Y-80440027D01*
X167463076Y-93045975D01*
X161968321Y-93045975D01*
X161462925Y-93045975D01*
G37*
%TD*%
D10*
%TO.P,XA1,VIN,VIN*%
%TO.N,unconnected-(XA1-PadVIN)*%
X170179999Y-129539999D03*
D11*
%TO.P,XA1,GND3,GND*%
%TO.N,GND*%
X167639999Y-129539999D03*
%TO.P,XA1,GND2,GND*%
X165099999Y-129539999D03*
D10*
%TO.P,XA1,D7,D7*%
%TO.N,7{slash}PD7*%
X170179999Y-81279999D03*
%TO.P,XA1,D6,D6*%
%TO.N,6{slash}PD6*%
X172719999Y-81279999D03*
%TO.P,XA1,D5,D5*%
%TO.N,5{slash}PD5*%
X175259999Y-81279999D03*
%TO.P,XA1,D4,D4*%
%TO.N,4{slash}PD4*%
X177799999Y-81279999D03*
%TO.P,XA1,D3,D3_INT1*%
%TO.N,3{slash}PD3*%
X180339999Y-81279999D03*
%TO.P,XA1,D2,D2_INT0*%
%TO.N,2{slash}PD2*%
X182879999Y-81279999D03*
%TO.P,XA1,D1,D1_TX0*%
%TO.N,unconnected-(XA1-D1_TX0-PadD1)*%
X185419999Y-81279999D03*
%TO.P,XA1,D0,D0_RX0*%
%TO.N,unconnected-(XA1-D0_RX0-PadD0)*%
X187959999Y-81279999D03*
%TO.P,XA1,A5,A5*%
%TO.N,A5{slash}PC5*%
X187959999Y-129539999D03*
%TO.P,XA1,A4,A4*%
%TO.N,A4{slash}PC4*%
X185419999Y-129539999D03*
%TO.P,XA1,A3,A3*%
%TO.N,A3{slash}PC3*%
X182879999Y-129539999D03*
%TO.P,XA1,A2,A2*%
%TO.N,A2{slash}PC2*%
X180339999Y-129539999D03*
%TO.P,XA1,A1,A1*%
%TO.N,A1{slash}PC1*%
X177799999Y-129539999D03*
%TO.P,XA1,A0,A0*%
%TO.N,A0{slash}PC0*%
X175259999Y-129539999D03*
%TO.P,XA1,5V1,5V*%
%TO.N,+5V*%
X162559999Y-129539999D03*
%TD*%
D12*
%TO.P,D4,1,K*%
%TO.N,Net-(D4-K)*%
X177800000Y-89967000D03*
%TO.P,D4,2,A*%
%TO.N,4{slash}PD4*%
X177800000Y-88392000D03*
%TD*%
D13*
%TO.P,R5,1*%
%TO.N,Net-(D7-K)*%
X170180000Y-91719500D03*
%TO.P,R5,2*%
%TO.N,GND*%
X170180000Y-92739500D03*
%TD*%
D14*
%TO.P,J2,1,Pin_1*%
%TO.N,GND*%
X165099999Y-124459999D03*
D15*
%TO.P,J2,2,Pin_2*%
%TO.N,A0{slash}PC0*%
X165099999Y-121919999D03*
%TD*%
D13*
%TO.P,R2,1*%
%TO.N,+5V*%
X177800000Y-123950000D03*
%TO.P,R2,2*%
%TO.N,A1{slash}PC1*%
X177800000Y-124970000D03*
%TD*%
D12*
%TO.P,D3,1,K*%
%TO.N,Net-(D3-K)*%
X180340000Y-89967000D03*
%TO.P,D3,2,A*%
%TO.N,3{slash}PD3*%
X180340000Y-88392000D03*
%TD*%
D13*
%TO.P,R3,1*%
%TO.N,+5V*%
X180340000Y-123950000D03*
%TO.P,R3,2*%
%TO.N,A2{slash}PC2*%
X180340000Y-124970000D03*
%TD*%
D16*
%TO.P,SW1,1,A*%
%TO.N,GND*%
X164639999Y-104042999D03*
X170639999Y-104042999D03*
%TO.P,SW1,2,B*%
%TO.N,A1{slash}PC1*%
X164639999Y-107792999D03*
X170639999Y-107792999D03*
%TD*%
D17*
%TO.P,SW3,A,A*%
%TO.N,A3{slash}PC3*%
X180419999Y-111759999D03*
D18*
%TO.P,SW3,B,B*%
%TO.N,A4{slash}PC4*%
X185420000Y-111760000D03*
%TO.P,SW3,C,C*%
%TO.N,GND*%
X182920000Y-111760000D03*
D19*
%TO.P,SW3,MP*%
%TO.N,N/C*%
X177319999Y-104259999D03*
X188519999Y-104259999D03*
D18*
%TO.P,SW3,S1,S1*%
%TO.N,GND*%
X185420000Y-97260000D03*
%TO.P,SW3,S2,S2*%
%TO.N,A5{slash}PC5*%
X180420000Y-97260000D03*
%TD*%
D12*
%TO.P,D2,1,K*%
%TO.N,Net-(D2-K)*%
X182880000Y-89967000D03*
%TO.P,D2,2,A*%
%TO.N,2{slash}PD2*%
X182880000Y-88392000D03*
%TD*%
D13*
%TO.P,R4,1*%
%TO.N,+5V*%
X187960000Y-123950000D03*
%TO.P,R4,2*%
%TO.N,A5{slash}PC5*%
X187960000Y-124970000D03*
%TD*%
D12*
%TO.P,D6,1,K*%
%TO.N,Net-(D6-K)*%
X172720000Y-89967000D03*
%TO.P,D6,2,A*%
%TO.N,6{slash}PD6*%
X172720000Y-88392000D03*
%TD*%
D13*
%TO.P,R8,1*%
%TO.N,+5V*%
X182880000Y-123951240D03*
%TO.P,R8,2*%
%TO.N,A3{slash}PC3*%
X182880000Y-124971240D03*
%TD*%
%TO.P,R7,1*%
%TO.N,+5V*%
X185420000Y-123950000D03*
%TO.P,R7,2*%
%TO.N,A4{slash}PC4*%
X185420000Y-124970000D03*
%TD*%
D12*
%TO.P,D5,1,K*%
%TO.N,Net-(D5-K)*%
X175260000Y-89967000D03*
%TO.P,D5,2,A*%
%TO.N,5{slash}PD5*%
X175260000Y-88392000D03*
%TD*%
D13*
%TO.P,R1,1*%
%TO.N,+5V*%
X175260000Y-123950000D03*
%TO.P,R1,2*%
%TO.N,Net-(J1-Pin_2)*%
X175260000Y-124970000D03*
%TD*%
D12*
%TO.P,D7,1,K*%
%TO.N,Net-(D7-K)*%
X170180000Y-89967000D03*
%TO.P,D7,2,A*%
%TO.N,7{slash}PD7*%
X170180000Y-88392000D03*
%TD*%
D13*
%TO.P,R11,1*%
%TO.N,Net-(D3-K)*%
X180340000Y-91719500D03*
%TO.P,R11,2*%
%TO.N,GND*%
X180340000Y-92739500D03*
%TD*%
D16*
%TO.P,SW2,1,A*%
%TO.N,GND*%
X164639999Y-96422999D03*
X170639999Y-96422999D03*
%TO.P,SW2,2,B*%
%TO.N,A2{slash}PC2*%
X164639999Y-100172999D03*
X170639999Y-100172999D03*
%TD*%
D13*
%TO.P,R9,1*%
%TO.N,Net-(D5-K)*%
X175260000Y-91719500D03*
%TO.P,R9,2*%
%TO.N,GND*%
X175260000Y-92739500D03*
%TD*%
%TO.P,R6,1*%
%TO.N,Net-(D6-K)*%
X172720000Y-91719500D03*
%TO.P,R6,2*%
%TO.N,GND*%
X172720000Y-92739500D03*
%TD*%
%TO.P,R12,1*%
%TO.N,Net-(D2-K)*%
X182880000Y-91719500D03*
%TO.P,R12,2*%
%TO.N,GND*%
X182880000Y-92739500D03*
%TD*%
%TO.P,R10,1*%
%TO.N,Net-(D4-K)*%
X177800000Y-91719500D03*
%TO.P,R10,2*%
%TO.N,GND*%
X177800000Y-92739500D03*
%TD*%
D16*
%TO.P,SW0,1,A*%
%TO.N,GND*%
X164639999Y-111662999D03*
X170639999Y-111662999D03*
%TO.P,SW0,2,B*%
%TO.N,A0{slash}PC0*%
X164639999Y-115412999D03*
X170639999Y-115412999D03*
%TD*%
D14*
%TO.P,J1,1,Pin_1*%
%TO.N,A0{slash}PC0*%
X170179999Y-121919999D03*
D15*
%TO.P,J1,2,Pin_2*%
%TO.N,Net-(J1-Pin_2)*%
X172719999Y-121919999D03*
%TD*%
D20*
%TO.N,GND*%
X187960000Y-120904000D03*
X180340000Y-120904000D03*
X180340000Y-94005500D03*
X186690000Y-126492000D03*
X176530000Y-126492000D03*
X167640000Y-117094000D03*
X172720000Y-129540000D03*
X167640000Y-109728000D03*
X172720000Y-94005500D03*
X177800000Y-94005500D03*
X189230000Y-126492000D03*
X167640000Y-102108000D03*
X175260000Y-94005500D03*
X182880000Y-120904000D03*
X179070000Y-126492000D03*
X177800000Y-120904000D03*
X184150000Y-126492000D03*
X181610000Y-126492000D03*
X175260000Y-120904000D03*
X185420000Y-120904000D03*
X167640000Y-94488000D03*
X182880000Y-94005500D03*
%TO.N,+5V*%
X177800000Y-122428000D03*
X187960000Y-122428000D03*
X182880000Y-122428000D03*
X185420000Y-122428000D03*
X175260000Y-122428000D03*
X180340000Y-122428000D03*
%TD*%
D21*
%TO.N,Net-(D7-K)*%
X170180000Y-91719500D02*
X170180000Y-89967000D01*
%TO.N,7{slash}PD7*%
X170180000Y-88392000D02*
X170180000Y-81280000D01*
%TO.N,Net-(D2-K)*%
X182880000Y-91719500D02*
X182880000Y-89967000D01*
%TO.N,2{slash}PD2*%
X182880000Y-88392000D02*
X182880000Y-81280000D01*
%TO.N,Net-(D3-K)*%
X180340000Y-91719500D02*
X180340000Y-89967000D01*
%TO.N,3{slash}PD3*%
X180340000Y-88392000D02*
X180340000Y-81280000D01*
%TO.N,Net-(D4-K)*%
X177800000Y-91719500D02*
X177800000Y-89967000D01*
%TO.N,4{slash}PD4*%
X177800000Y-88392000D02*
X177800000Y-81280000D01*
%TO.N,Net-(D5-K)*%
X175260000Y-91719500D02*
X175260000Y-89967000D01*
%TO.N,5{slash}PD5*%
X175260000Y-88392000D02*
X175260000Y-81280000D01*
%TO.N,Net-(D6-K)*%
X172720000Y-91719500D02*
X172720000Y-89967000D01*
%TO.N,6{slash}PD6*%
X172720000Y-88392000D02*
X172720000Y-81280000D01*
%TO.N,A0{slash}PC0*%
X170640000Y-121460000D02*
X170180000Y-121920000D01*
X170180000Y-121920000D02*
X165100000Y-121920000D01*
X170180000Y-124460000D02*
X175260000Y-129540000D01*
X164640000Y-115413000D02*
X170640000Y-115413000D01*
X170180000Y-121920000D02*
X170180000Y-124460000D01*
X170640000Y-115413000D02*
X170640000Y-121460000D01*
%TO.N,Net-(J1-Pin_2)*%
X175260000Y-124970000D02*
X172210000Y-121920000D01*
%TO.N,GND*%
X170180000Y-92739500D02*
X172720000Y-92739500D01*
X182920000Y-120864000D02*
X182920000Y-111760000D01*
X170640000Y-104043000D02*
X164640000Y-104043000D01*
X185420000Y-97260000D02*
X183134000Y-99546000D01*
X163515000Y-104566222D02*
X164038222Y-104043000D01*
X175260000Y-92739500D02*
X177800000Y-92739500D01*
X163322000Y-112231000D02*
X163322000Y-122682000D01*
X170640000Y-111663000D02*
X164640000Y-111663000D01*
X167991000Y-96423000D02*
X164640000Y-96423000D01*
X182880000Y-120904000D02*
X182920000Y-120864000D01*
X164038222Y-96423000D02*
X164640000Y-96423000D01*
X163322000Y-122682000D02*
X165100000Y-124460000D01*
X182920000Y-111760000D02*
X182920000Y-106934000D01*
X182920000Y-106934000D02*
X182920000Y-106323222D01*
X170640000Y-96423000D02*
X164640000Y-96423000D01*
X163515000Y-96946222D02*
X164038222Y-96423000D01*
X164640000Y-111663000D02*
X163890000Y-111663000D01*
X177800000Y-92739500D02*
X180340000Y-92739500D01*
X164640000Y-111663000D02*
X163515000Y-110538000D01*
X165100000Y-129540000D02*
X167640000Y-129540000D01*
X164640000Y-104043000D02*
X163515000Y-102918000D01*
X164038222Y-104043000D02*
X164640000Y-104043000D01*
X183134000Y-106720000D02*
X182920000Y-106934000D01*
X167640000Y-129540000D02*
X167640000Y-127000000D01*
X167640000Y-127000000D02*
X165100000Y-124460000D01*
X180340000Y-92739500D02*
X182880000Y-92739500D01*
X172720000Y-92739500D02*
X175260000Y-92739500D01*
X163515000Y-102918000D02*
X163515000Y-96946222D01*
X163890000Y-111663000D02*
X163322000Y-112231000D01*
X163515000Y-110538000D02*
X163515000Y-104566222D01*
X183134000Y-99546000D02*
X183134000Y-106720000D01*
%TO.N,+5V*%
X163748600Y-130728600D02*
X188452335Y-130728600D01*
X180340000Y-123950000D02*
X180340000Y-122428000D01*
X162560000Y-129540000D02*
X163748600Y-130728600D01*
X189992000Y-129188935D02*
X189992000Y-124968000D01*
X187960000Y-123950000D02*
X187960000Y-122428000D01*
X182880000Y-123951240D02*
X182880000Y-122428000D01*
X189992000Y-124968000D02*
X188974000Y-123950000D01*
X175260000Y-123950000D02*
X175260000Y-122428000D01*
X188974000Y-123950000D02*
X187960000Y-123950000D01*
X177800000Y-123950000D02*
X177800000Y-122428000D01*
X185420000Y-123950000D02*
X185420000Y-122428000D01*
X188452335Y-130728600D02*
X189992000Y-129188935D01*
%TO.N,A1{slash}PC1*%
X176784000Y-123954000D02*
X177800000Y-124970000D01*
X170640000Y-108156000D02*
X176784000Y-114300000D01*
X177800000Y-129540000D02*
X177800000Y-124970000D01*
X176784000Y-114300000D02*
X176784000Y-123954000D01*
X164640000Y-107793000D02*
X170640000Y-107793000D01*
%TO.N,A2{slash}PC2*%
X180340000Y-129540000D02*
X180340000Y-124970000D01*
X164640000Y-100173000D02*
X170640000Y-100173000D01*
X180340000Y-124970000D02*
X179324000Y-123954000D01*
X172418000Y-100173000D02*
X173990000Y-101745000D01*
X170640000Y-100173000D02*
X172418000Y-100173000D01*
X173990000Y-108966000D02*
X173990000Y-101745000D01*
X179324000Y-123954000D02*
X179324000Y-114300000D01*
X179324000Y-114300000D02*
X173990000Y-108966000D01*
%TO.N,A5{slash}PC5*%
X187960000Y-124970000D02*
X186944000Y-123954000D01*
X186944000Y-123954000D02*
X186944000Y-117348000D01*
X188214000Y-95250000D02*
X181356000Y-95250000D01*
X180340000Y-96266000D02*
X180420000Y-96346000D01*
X189992000Y-114300000D02*
X189992000Y-97028000D01*
X189992000Y-97028000D02*
X188214000Y-95250000D01*
X181356000Y-95250000D02*
X180340000Y-96266000D01*
X187960000Y-129540000D02*
X187960000Y-124970000D01*
X186944000Y-117348000D02*
X189992000Y-114300000D01*
X180420000Y-96346000D02*
X180420000Y-97260000D01*
%TO.N,A4{slash}PC4*%
X184404000Y-123954000D02*
X184404000Y-114300000D01*
X185420000Y-113284000D02*
X185420000Y-111760000D01*
X184404000Y-114300000D02*
X185420000Y-113284000D01*
X185420000Y-129540000D02*
X185420000Y-124970000D01*
X185420000Y-124970000D02*
X184404000Y-123954000D01*
%TO.N,A3{slash}PC3*%
X182880000Y-129540000D02*
X182880000Y-124971240D01*
X182880000Y-124971240D02*
X181864000Y-123955240D01*
X181864000Y-114300000D02*
X180420000Y-112856000D01*
X181864000Y-123955240D02*
X181864000Y-114300000D01*
X180420000Y-112856000D02*
X180420000Y-111760000D01*
%TD*%
%TA.AperFunction,Conductor*%
%TO.N,GND*%
G36*
X188814554Y-124334939D02*
G01*
X188854782Y-124361819D01*
X189580181Y-125087218D01*
X189607061Y-125127446D01*
X189616500Y-125174899D01*
X189616500Y-128982036D01*
X189607061Y-129029489D01*
X189580183Y-129069714D01*
X189471279Y-129178619D01*
X189265655Y-129384242D01*
X189210528Y-129416210D01*
X189146803Y-129416578D01*
X189091311Y-129385248D01*
X189058708Y-129330494D01*
X189003318Y-129135816D01*
X188936276Y-129001178D01*
X188913839Y-128956118D01*
X188913838Y-128956117D01*
X188911285Y-128950989D01*
X188903809Y-128941089D01*
X188790314Y-128790797D01*
X188790310Y-128790793D01*
X188786857Y-128786220D01*
X188782620Y-128782357D01*
X188782616Y-128782353D01*
X188638506Y-128650980D01*
X188638507Y-128650980D01*
X188634272Y-128647120D01*
X188629406Y-128644107D01*
X188629402Y-128644104D01*
X188463598Y-128541443D01*
X188463596Y-128541442D01*
X188458725Y-128538426D01*
X188414701Y-128521370D01*
X188373179Y-128494768D01*
X188345308Y-128454080D01*
X188335500Y-128405747D01*
X188335500Y-125510959D01*
X188349253Y-125454200D01*
X188374286Y-125425260D01*
X188372102Y-125423076D01*
X188385511Y-125409667D01*
X188463076Y-125332102D01*
X188519582Y-125216518D01*
X188530500Y-125141582D01*
X188530500Y-124798418D01*
X188519582Y-124723482D01*
X188463076Y-124607898D01*
X188402859Y-124547681D01*
X188370765Y-124492094D01*
X188370765Y-124427906D01*
X188402859Y-124372319D01*
X188413359Y-124361819D01*
X188453587Y-124334939D01*
X188501040Y-124325500D01*
X188767101Y-124325500D01*
X188814554Y-124334939D01*
G37*
%TD.AperFunction*%
%TA.AperFunction,Conductor*%
G36*
X188971883Y-78749939D02*
G01*
X189012111Y-78776819D01*
X190463181Y-80227888D01*
X190490061Y-80268116D01*
X190499500Y-80315569D01*
X190499500Y-91439899D01*
X190499458Y-91440000D01*
X190499574Y-91440279D01*
X190499617Y-91440383D01*
X190499715Y-91440423D01*
X190508299Y-91449007D01*
X190508300Y-91449008D01*
X193003181Y-93943888D01*
X193030061Y-93984116D01*
X193039500Y-94031569D01*
X193039500Y-128218431D01*
X193030061Y-128265884D01*
X193003181Y-128306112D01*
X190508060Y-130801229D01*
X190508055Y-130801235D01*
X190499715Y-130809576D01*
X190499617Y-130809617D01*
X190499576Y-130809715D01*
X190499576Y-130809716D01*
X190499458Y-130810000D01*
X190499500Y-130810101D01*
X190499500Y-130822051D01*
X190499500Y-131955500D01*
X190482887Y-132017500D01*
X190437500Y-132062887D01*
X190375500Y-132079500D01*
X159636500Y-132079500D01*
X159574500Y-132062887D01*
X159529113Y-132017500D01*
X159512500Y-131955500D01*
X159512500Y-129540000D01*
X161441127Y-129540000D01*
X161460178Y-129745592D01*
X161516682Y-129944184D01*
X161519234Y-129949310D01*
X161519236Y-129949314D01*
X161606160Y-130123881D01*
X161606162Y-130123885D01*
X161608715Y-130129011D01*
X161612164Y-130133578D01*
X161612167Y-130133583D01*
X161729685Y-130289202D01*
X161729689Y-130289207D01*
X161733143Y-130293780D01*
X161737379Y-130297641D01*
X161737383Y-130297646D01*
X161841443Y-130392509D01*
X161885728Y-130432880D01*
X162061275Y-130541574D01*
X162253806Y-130616161D01*
X162456763Y-130654100D01*
X162657508Y-130654100D01*
X162663237Y-130654100D01*
X162866194Y-130616161D01*
X162963066Y-130578631D01*
X163009768Y-130570273D01*
X163056192Y-130580066D01*
X163095540Y-130606577D01*
X163446450Y-130957487D01*
X163462574Y-130977341D01*
X163468516Y-130986436D01*
X163476618Y-130992742D01*
X163476621Y-130992745D01*
X163493494Y-131005877D01*
X163497408Y-131009334D01*
X163497542Y-131009177D01*
X163501448Y-131012485D01*
X163505082Y-131016119D01*
X163512559Y-131021457D01*
X163521989Y-131028190D01*
X163526100Y-131031255D01*
X163567411Y-131063409D01*
X163574931Y-131065990D01*
X163581401Y-131070610D01*
X163631540Y-131085537D01*
X163636422Y-131087101D01*
X163658666Y-131094737D01*
X163685940Y-131104100D01*
X163693893Y-131104100D01*
X163701511Y-131106368D01*
X163753791Y-131104206D01*
X163758915Y-131104100D01*
X188400530Y-131104100D01*
X188425979Y-131106740D01*
X188426544Y-131106858D01*
X188426545Y-131106858D01*
X188436603Y-131108967D01*
X188468011Y-131105051D01*
X188473222Y-131104728D01*
X188473206Y-131104524D01*
X188478321Y-131104100D01*
X188483449Y-131104100D01*
X188503971Y-131100674D01*
X188509001Y-131099942D01*
X188560961Y-131093466D01*
X188568105Y-131089973D01*
X188575945Y-131088665D01*
X188621982Y-131063750D01*
X188626499Y-131061425D01*
X188673546Y-131038426D01*
X188679169Y-131032802D01*
X188686161Y-131029019D01*
X188721652Y-130990463D01*
X188725129Y-130986841D01*
X190220889Y-129491081D01*
X190240747Y-129474956D01*
X190249836Y-129469019D01*
X190269279Y-129444037D01*
X190272742Y-129440144D01*
X190272571Y-129439999D01*
X190275883Y-129436088D01*
X190279519Y-129432453D01*
X190291614Y-129415511D01*
X190294621Y-129411477D01*
X190326809Y-129370124D01*
X190329390Y-129362603D01*
X190334010Y-129356134D01*
X190348955Y-129305930D01*
X190350479Y-129301173D01*
X190367500Y-129251595D01*
X190367500Y-129243641D01*
X190369768Y-129236023D01*
X190367606Y-129183742D01*
X190367500Y-129178619D01*
X190367500Y-125019803D01*
X190370139Y-124994357D01*
X190370141Y-124994343D01*
X190372367Y-124983731D01*
X190368451Y-124952324D01*
X190368128Y-124947113D01*
X190367924Y-124947130D01*
X190367500Y-124942015D01*
X190367500Y-124936886D01*
X190364069Y-124916329D01*
X190363342Y-124911340D01*
X190356865Y-124859374D01*
X190353373Y-124852232D01*
X190352065Y-124844390D01*
X190327156Y-124798363D01*
X190324814Y-124793811D01*
X190306339Y-124756020D01*
X190301826Y-124746788D01*
X190296201Y-124741163D01*
X190292419Y-124734174D01*
X190253905Y-124698719D01*
X190250231Y-124695193D01*
X189276150Y-123721112D01*
X189260022Y-123701251D01*
X189259706Y-123700768D01*
X189259703Y-123700765D01*
X189254084Y-123692164D01*
X189229109Y-123672725D01*
X189225190Y-123669264D01*
X189225058Y-123669421D01*
X189221143Y-123666105D01*
X189217518Y-123662480D01*
X189200591Y-123650395D01*
X189196481Y-123647330D01*
X189163297Y-123621502D01*
X189155189Y-123615191D01*
X189147668Y-123612609D01*
X189141199Y-123607990D01*
X189131353Y-123605058D01*
X189131350Y-123605057D01*
X189091043Y-123593056D01*
X189086167Y-123591494D01*
X189046381Y-123577836D01*
X189046374Y-123577834D01*
X189036660Y-123574500D01*
X189028706Y-123574500D01*
X189021088Y-123572232D01*
X189010823Y-123572656D01*
X189010820Y-123572656D01*
X188968807Y-123574394D01*
X188963684Y-123574500D01*
X188501040Y-123574500D01*
X188453587Y-123565061D01*
X188413359Y-123538181D01*
X188372102Y-123496924D01*
X188374286Y-123494739D01*
X188349253Y-123465800D01*
X188335500Y-123409041D01*
X188335500Y-123020204D01*
X188346424Y-122969313D01*
X188377273Y-122927388D01*
X188400721Y-122906615D01*
X188450483Y-122862530D01*
X188540220Y-122732523D01*
X188596237Y-122584818D01*
X188615278Y-122428000D01*
X188596237Y-122271182D01*
X188540220Y-122123477D01*
X188450483Y-121993470D01*
X188367552Y-121920000D01*
X188337856Y-121893692D01*
X188337854Y-121893690D01*
X188332240Y-121888717D01*
X188325595Y-121885229D01*
X188325593Y-121885228D01*
X188199006Y-121818789D01*
X188199002Y-121818787D01*
X188192365Y-121815304D01*
X188185087Y-121813510D01*
X188185084Y-121813509D01*
X188046267Y-121779294D01*
X188046260Y-121779293D01*
X188038985Y-121777500D01*
X187881015Y-121777500D01*
X187873740Y-121779292D01*
X187873732Y-121779294D01*
X187734915Y-121813509D01*
X187734909Y-121813510D01*
X187727635Y-121815304D01*
X187721000Y-121818786D01*
X187720993Y-121818789D01*
X187594406Y-121885228D01*
X187594400Y-121885231D01*
X187587760Y-121888717D01*
X187582145Y-121893690D01*
X187582144Y-121893692D01*
X187525727Y-121943673D01*
X187476075Y-121970502D01*
X187419676Y-121972547D01*
X187368212Y-121949385D01*
X187332343Y-121905813D01*
X187319500Y-121850857D01*
X187319500Y-117554899D01*
X187328939Y-117507446D01*
X187355819Y-117467218D01*
X188785727Y-116037310D01*
X190220893Y-114602143D01*
X190240748Y-114586020D01*
X190249836Y-114580084D01*
X190269271Y-114555111D01*
X190272744Y-114551208D01*
X190272573Y-114551063D01*
X190275885Y-114547152D01*
X190279520Y-114543518D01*
X190291608Y-114526585D01*
X190294647Y-114522508D01*
X190326809Y-114481189D01*
X190329390Y-114473668D01*
X190334010Y-114467199D01*
X190348955Y-114416995D01*
X190350479Y-114412238D01*
X190367500Y-114362660D01*
X190367500Y-114354706D01*
X190369768Y-114347088D01*
X190367606Y-114294807D01*
X190367500Y-114289684D01*
X190367500Y-97079804D01*
X190370139Y-97054358D01*
X190370141Y-97054344D01*
X190372367Y-97043732D01*
X190368451Y-97012323D01*
X190368128Y-97007113D01*
X190367924Y-97007130D01*
X190367500Y-97002018D01*
X190367500Y-96996886D01*
X190364074Y-96976362D01*
X190363341Y-96971326D01*
X190358137Y-96929572D01*
X190356866Y-96919374D01*
X190353373Y-96912229D01*
X190352065Y-96904390D01*
X190327158Y-96858366D01*
X190324837Y-96853859D01*
X190301826Y-96806789D01*
X190296202Y-96801165D01*
X190292419Y-96794174D01*
X190284858Y-96787214D01*
X190284857Y-96787212D01*
X190253917Y-96758730D01*
X190250219Y-96755182D01*
X188516150Y-95021112D01*
X188500022Y-95001251D01*
X188499706Y-95000768D01*
X188499703Y-95000765D01*
X188494084Y-94992164D01*
X188469109Y-94972725D01*
X188465190Y-94969264D01*
X188465058Y-94969421D01*
X188461143Y-94966105D01*
X188457518Y-94962480D01*
X188440591Y-94950395D01*
X188436481Y-94947330D01*
X188403297Y-94921502D01*
X188395189Y-94915191D01*
X188387668Y-94912609D01*
X188381199Y-94907990D01*
X188371353Y-94905058D01*
X188371350Y-94905057D01*
X188331043Y-94893056D01*
X188326167Y-94891494D01*
X188286381Y-94877836D01*
X188286374Y-94877834D01*
X188276660Y-94874500D01*
X188268706Y-94874500D01*
X188261088Y-94872232D01*
X188250823Y-94872656D01*
X188250820Y-94872656D01*
X188208807Y-94874394D01*
X188203684Y-94874500D01*
X181407805Y-94874500D01*
X181382356Y-94871860D01*
X181381790Y-94871741D01*
X181381783Y-94871740D01*
X181371732Y-94869633D01*
X181361541Y-94870903D01*
X181361537Y-94870903D01*
X181340324Y-94873548D01*
X181335109Y-94873871D01*
X181335126Y-94874076D01*
X181330007Y-94874500D01*
X181324886Y-94874500D01*
X181319838Y-94875342D01*
X181319828Y-94875343D01*
X181304394Y-94877918D01*
X181299334Y-94878655D01*
X181257571Y-94883861D01*
X181257560Y-94883864D01*
X181247374Y-94885134D01*
X181240229Y-94888626D01*
X181232390Y-94889935D01*
X181223361Y-94894820D01*
X181223358Y-94894822D01*
X181186369Y-94914838D01*
X181181821Y-94917179D01*
X181144017Y-94935662D01*
X181144015Y-94935663D01*
X181134789Y-94940174D01*
X181129165Y-94945797D01*
X181122174Y-94949581D01*
X181115221Y-94957132D01*
X181115219Y-94957135D01*
X181086718Y-94988094D01*
X181083172Y-94991789D01*
X180089087Y-95985873D01*
X180081550Y-95992812D01*
X180057340Y-96013317D01*
X180057335Y-96013322D01*
X180049500Y-96019959D01*
X180044241Y-96028784D01*
X180044238Y-96028788D01*
X180041773Y-96032925D01*
X180018393Y-96061445D01*
X179987659Y-96081828D01*
X179797273Y-96170607D01*
X179797264Y-96170611D01*
X179792362Y-96172898D01*
X179787929Y-96176001D01*
X179787922Y-96176006D01*
X179617558Y-96295296D01*
X179617553Y-96295299D01*
X179613123Y-96298402D01*
X179609299Y-96302225D01*
X179609293Y-96302231D01*
X179462231Y-96449293D01*
X179462225Y-96449299D01*
X179458402Y-96453123D01*
X179455299Y-96457553D01*
X179455296Y-96457558D01*
X179336006Y-96627922D01*
X179336001Y-96627929D01*
X179332898Y-96632362D01*
X179330610Y-96637268D01*
X179330608Y-96637272D01*
X179242712Y-96825763D01*
X179242707Y-96825774D01*
X179240425Y-96830670D01*
X179239025Y-96835892D01*
X179239024Y-96835897D01*
X179185194Y-97036790D01*
X179185191Y-97036802D01*
X179183793Y-97042023D01*
X179183321Y-97047412D01*
X179183320Y-97047421D01*
X179171412Y-97183537D01*
X179164723Y-97260000D01*
X179165195Y-97265395D01*
X179183320Y-97472578D01*
X179183321Y-97472585D01*
X179183793Y-97477977D01*
X179185192Y-97483199D01*
X179185194Y-97483209D01*
X179223213Y-97625095D01*
X179240425Y-97689330D01*
X179242709Y-97694229D01*
X179242712Y-97694236D01*
X179330611Y-97882736D01*
X179330614Y-97882742D01*
X179332898Y-97887639D01*
X179335997Y-97892066D01*
X179335999Y-97892068D01*
X179455296Y-98062442D01*
X179455299Y-98062446D01*
X179458402Y-98066877D01*
X179613123Y-98221598D01*
X179792361Y-98347102D01*
X179990670Y-98439575D01*
X180148522Y-98481871D01*
X180196790Y-98494805D01*
X180196791Y-98494805D01*
X180202023Y-98496207D01*
X180420000Y-98515277D01*
X180637977Y-98496207D01*
X180686341Y-98483248D01*
X184555749Y-98483248D01*
X184563855Y-98494439D01*
X184592717Y-98516903D01*
X184601279Y-98522496D01*
X184810885Y-98635929D01*
X184820239Y-98640032D01*
X185045656Y-98717417D01*
X185055568Y-98719928D01*
X185290643Y-98759155D01*
X185300839Y-98760000D01*
X185539161Y-98760000D01*
X185549356Y-98759155D01*
X185784431Y-98719928D01*
X185794343Y-98717417D01*
X186019760Y-98640032D01*
X186029114Y-98635929D01*
X186238723Y-98522495D01*
X186247281Y-98516903D01*
X186276146Y-98494437D01*
X186284250Y-98483250D01*
X186277589Y-98471142D01*
X185431542Y-97625095D01*
X185419999Y-97618431D01*
X185408457Y-97625095D01*
X184562408Y-98471143D01*
X184555749Y-98483248D01*
X180686341Y-98483248D01*
X180849330Y-98439575D01*
X181047639Y-98347102D01*
X181226877Y-98221598D01*
X181381598Y-98066877D01*
X181507102Y-97887639D01*
X181599575Y-97689330D01*
X181656207Y-97477977D01*
X181674829Y-97265117D01*
X183915283Y-97265117D01*
X183934962Y-97502618D01*
X183936646Y-97512712D01*
X183995153Y-97743747D01*
X183998472Y-97753414D01*
X184094208Y-97971673D01*
X184099070Y-97980656D01*
X184188999Y-98118304D01*
X184196963Y-98126024D01*
X184206345Y-98120100D01*
X185054904Y-97271542D01*
X185061568Y-97260000D01*
X185778431Y-97260000D01*
X185785095Y-97271542D01*
X186633653Y-98120100D01*
X186643034Y-98126024D01*
X186651002Y-98118299D01*
X186740924Y-97980664D01*
X186745792Y-97971669D01*
X186841527Y-97753414D01*
X186844846Y-97743747D01*
X186903353Y-97512712D01*
X186905037Y-97502618D01*
X186924717Y-97265117D01*
X186924717Y-97254883D01*
X186905037Y-97017381D01*
X186903353Y-97007287D01*
X186844846Y-96776252D01*
X186841527Y-96766585D01*
X186745792Y-96548330D01*
X186740924Y-96539335D01*
X186651002Y-96401699D01*
X186643034Y-96393974D01*
X186633653Y-96399898D01*
X185785095Y-97248457D01*
X185778431Y-97260000D01*
X185061568Y-97260000D01*
X185054904Y-97248457D01*
X184206345Y-96399898D01*
X184196964Y-96393974D01*
X184188997Y-96401699D01*
X184099072Y-96539338D01*
X184094207Y-96548328D01*
X183998472Y-96766585D01*
X183995153Y-96776252D01*
X183936646Y-97007287D01*
X183934962Y-97017381D01*
X183915283Y-97254883D01*
X183915283Y-97265117D01*
X181674829Y-97265117D01*
X181675277Y-97260000D01*
X181656207Y-97042023D01*
X181646899Y-97007287D01*
X181639265Y-96978796D01*
X181599575Y-96830670D01*
X181590005Y-96810148D01*
X181574199Y-96776252D01*
X181507102Y-96632362D01*
X181381598Y-96453123D01*
X181226877Y-96298402D01*
X181222446Y-96295299D01*
X181222442Y-96295296D01*
X181119578Y-96223270D01*
X181083315Y-96183695D01*
X181067174Y-96132502D01*
X181074180Y-96079284D01*
X181103016Y-96034019D01*
X181475221Y-95661816D01*
X181515447Y-95634939D01*
X181562900Y-95625500D01*
X184818389Y-95625500D01*
X184884485Y-95644584D01*
X184930236Y-95695963D01*
X184941559Y-95763820D01*
X184914970Y-95827270D01*
X184858651Y-95866781D01*
X184820243Y-95879966D01*
X184810885Y-95884070D01*
X184601276Y-95997504D01*
X184592717Y-96003096D01*
X184563854Y-96025560D01*
X184555748Y-96036749D01*
X184562408Y-96048855D01*
X185408457Y-96894904D01*
X185419999Y-96901568D01*
X185431542Y-96894904D01*
X186277590Y-96048855D01*
X186284250Y-96036749D01*
X186276143Y-96025559D01*
X186247286Y-96003099D01*
X186238719Y-95997503D01*
X186029114Y-95884070D01*
X186019756Y-95879966D01*
X185981349Y-95866781D01*
X185925030Y-95827270D01*
X185898441Y-95763820D01*
X185909764Y-95695963D01*
X185955515Y-95644584D01*
X186021611Y-95625500D01*
X188007101Y-95625500D01*
X188054554Y-95634939D01*
X188094782Y-95661819D01*
X189580181Y-97147218D01*
X189607061Y-97187446D01*
X189616500Y-97234899D01*
X189616500Y-102285500D01*
X189599887Y-102347500D01*
X189554500Y-102392887D01*
X189492500Y-102409500D01*
X187495326Y-102409500D01*
X187489351Y-102410688D01*
X187489346Y-102410689D01*
X187434240Y-102421650D01*
X187434235Y-102421651D01*
X187422260Y-102424034D01*
X187412105Y-102430819D01*
X187412103Y-102430820D01*
X187349551Y-102472615D01*
X187349548Y-102472617D01*
X187339399Y-102479399D01*
X187332617Y-102489548D01*
X187332615Y-102489551D01*
X187290820Y-102552103D01*
X187290819Y-102552105D01*
X187284034Y-102562260D01*
X187281651Y-102574235D01*
X187281650Y-102574240D01*
X187270689Y-102629346D01*
X187270688Y-102629351D01*
X187269500Y-102635326D01*
X187269500Y-105884674D01*
X187270688Y-105890649D01*
X187270689Y-105890653D01*
X187281650Y-105945759D01*
X187281651Y-105945762D01*
X187284034Y-105957740D01*
X187339399Y-106040601D01*
X187422260Y-106095966D01*
X187495326Y-106110500D01*
X187501421Y-106110500D01*
X189492500Y-106110500D01*
X189554500Y-106127113D01*
X189599887Y-106172500D01*
X189616500Y-106234500D01*
X189616500Y-114093101D01*
X189607061Y-114140554D01*
X189580181Y-114180782D01*
X186715107Y-117045853D01*
X186695258Y-117061973D01*
X186686164Y-117067916D01*
X186679858Y-117076017D01*
X186679852Y-117076023D01*
X186666720Y-117092895D01*
X186663273Y-117096822D01*
X186663418Y-117096945D01*
X186660105Y-117100855D01*
X186656480Y-117104482D01*
X186653505Y-117108648D01*
X186653498Y-117108657D01*
X186644401Y-117121399D01*
X186641342Y-117125501D01*
X186615500Y-117158703D01*
X186615496Y-117158710D01*
X186609191Y-117166811D01*
X186606609Y-117174331D01*
X186601990Y-117180801D01*
X186599060Y-117190641D01*
X186599058Y-117190646D01*
X186587056Y-117230957D01*
X186585495Y-117235829D01*
X186571836Y-117275619D01*
X186571835Y-117275624D01*
X186568500Y-117285340D01*
X186568500Y-117293294D01*
X186566232Y-117300912D01*
X186566656Y-117311175D01*
X186566656Y-117311179D01*
X186568394Y-117353193D01*
X186568500Y-117358316D01*
X186568500Y-123902195D01*
X186565860Y-123927644D01*
X186565741Y-123928209D01*
X186565740Y-123928216D01*
X186563633Y-123938268D01*
X186564903Y-123948458D01*
X186564903Y-123948462D01*
X186567548Y-123969676D01*
X186567871Y-123974891D01*
X186568077Y-123974874D01*
X186568500Y-123979981D01*
X186568500Y-123985114D01*
X186569344Y-123990172D01*
X186569345Y-123990184D01*
X186571918Y-124005603D01*
X186572657Y-124010670D01*
X186579134Y-124062626D01*
X186582626Y-124069770D01*
X186583935Y-124077610D01*
X186608845Y-124123641D01*
X186611171Y-124128161D01*
X186629660Y-124165979D01*
X186629661Y-124165981D01*
X186634174Y-124175211D01*
X186639797Y-124180834D01*
X186643581Y-124187826D01*
X186651138Y-124194782D01*
X186651139Y-124194784D01*
X186682081Y-124223268D01*
X186685779Y-124226816D01*
X187353181Y-124894219D01*
X187380061Y-124934447D01*
X187389500Y-124981899D01*
X187389500Y-125141582D01*
X187400418Y-125216518D01*
X187456924Y-125332102D01*
X187464190Y-125339368D01*
X187547898Y-125423076D01*
X187545713Y-125425260D01*
X187570747Y-125454200D01*
X187584500Y-125510959D01*
X187584500Y-128405747D01*
X187574692Y-128454080D01*
X187546821Y-128494768D01*
X187505298Y-128521370D01*
X187461275Y-128538426D01*
X187456408Y-128541439D01*
X187456401Y-128541443D01*
X187290597Y-128644104D01*
X187290587Y-128644110D01*
X187285728Y-128647120D01*
X187281497Y-128650976D01*
X187281493Y-128650980D01*
X187137383Y-128782353D01*
X187137373Y-128782363D01*
X187133143Y-128786220D01*
X187129694Y-128790786D01*
X187129685Y-128790797D01*
X187012167Y-128946416D01*
X187012160Y-128946426D01*
X187008715Y-128950989D01*
X187006165Y-128956109D01*
X187006160Y-128956118D01*
X186919236Y-129130685D01*
X186919232Y-129130693D01*
X186916682Y-129135816D01*
X186915113Y-129141328D01*
X186915113Y-129141330D01*
X186887831Y-129237219D01*
X186860178Y-129334408D01*
X186859649Y-129340113D01*
X186859649Y-129340115D01*
X186850380Y-129440144D01*
X186841127Y-129540000D01*
X186860178Y-129745592D01*
X186916682Y-129944184D01*
X186919234Y-129949310D01*
X186919236Y-129949314D01*
X187006160Y-130123881D01*
X187006162Y-130123885D01*
X187008715Y-130129011D01*
X187012166Y-130133581D01*
X187012168Y-130133584D01*
X187027867Y-130154372D01*
X187052385Y-130217658D01*
X187039915Y-130284371D01*
X186994192Y-130334527D01*
X186928914Y-130353100D01*
X186451086Y-130353100D01*
X186385808Y-130334527D01*
X186340085Y-130284371D01*
X186327615Y-130217658D01*
X186352133Y-130154372D01*
X186371285Y-130129011D01*
X186463318Y-129944184D01*
X186519822Y-129745592D01*
X186538873Y-129540000D01*
X186519822Y-129334408D01*
X186463318Y-129135816D01*
X186396276Y-129001178D01*
X186373839Y-128956118D01*
X186373838Y-128956117D01*
X186371285Y-128950989D01*
X186363809Y-128941089D01*
X186250314Y-128790797D01*
X186250310Y-128790793D01*
X186246857Y-128786220D01*
X186242620Y-128782357D01*
X186242616Y-128782353D01*
X186098506Y-128650980D01*
X186098507Y-128650980D01*
X186094272Y-128647120D01*
X186089406Y-128644107D01*
X186089402Y-128644104D01*
X185923598Y-128541443D01*
X185923596Y-128541442D01*
X185918725Y-128538426D01*
X185874701Y-128521370D01*
X185833179Y-128494768D01*
X185805308Y-128454080D01*
X185795500Y-128405747D01*
X185795500Y-125510959D01*
X185809253Y-125454200D01*
X185834286Y-125425260D01*
X185832102Y-125423076D01*
X185845511Y-125409667D01*
X185923076Y-125332102D01*
X185979582Y-125216518D01*
X185990500Y-125141582D01*
X185990500Y-124798418D01*
X185979582Y-124723482D01*
X185923076Y-124607898D01*
X185862859Y-124547681D01*
X185830765Y-124492094D01*
X185830765Y-124427906D01*
X185862859Y-124372319D01*
X185873359Y-124361819D01*
X185923076Y-124312102D01*
X185979582Y-124196518D01*
X185990500Y-124121582D01*
X185990500Y-123778418D01*
X185979582Y-123703482D01*
X185923076Y-123587898D01*
X185832102Y-123496924D01*
X185834286Y-123494739D01*
X185809253Y-123465800D01*
X185795500Y-123409041D01*
X185795500Y-123020204D01*
X185806424Y-122969313D01*
X185837273Y-122927388D01*
X185860721Y-122906615D01*
X185910483Y-122862530D01*
X186000220Y-122732523D01*
X186056237Y-122584818D01*
X186075278Y-122428000D01*
X186056237Y-122271182D01*
X186000220Y-122123477D01*
X185910483Y-121993470D01*
X185827552Y-121920000D01*
X185797856Y-121893692D01*
X185797854Y-121893690D01*
X185792240Y-121888717D01*
X185785595Y-121885229D01*
X185785593Y-121885228D01*
X185659006Y-121818789D01*
X185659002Y-121818787D01*
X185652365Y-121815304D01*
X185645087Y-121813510D01*
X185645084Y-121813509D01*
X185506267Y-121779294D01*
X185506260Y-121779293D01*
X185498985Y-121777500D01*
X185341015Y-121777500D01*
X185333740Y-121779292D01*
X185333732Y-121779294D01*
X185194915Y-121813509D01*
X185194909Y-121813510D01*
X185187635Y-121815304D01*
X185181000Y-121818786D01*
X185180993Y-121818789D01*
X185054406Y-121885228D01*
X185054400Y-121885231D01*
X185047760Y-121888717D01*
X185042145Y-121893690D01*
X185042144Y-121893692D01*
X184985727Y-121943673D01*
X184936075Y-121970502D01*
X184879676Y-121972547D01*
X184828212Y-121949385D01*
X184792343Y-121905813D01*
X184779500Y-121850857D01*
X184779500Y-114506899D01*
X184788939Y-114459446D01*
X184815819Y-114419218D01*
X185228092Y-114006945D01*
X185648893Y-113586143D01*
X185668748Y-113570020D01*
X185677836Y-113564084D01*
X185697271Y-113539111D01*
X185700744Y-113535208D01*
X185700573Y-113535063D01*
X185703885Y-113531152D01*
X185707520Y-113527518D01*
X185719608Y-113510585D01*
X185722647Y-113506508D01*
X185754809Y-113465189D01*
X185757390Y-113457668D01*
X185762010Y-113451199D01*
X185776955Y-113400995D01*
X185778479Y-113396238D01*
X185795500Y-113346660D01*
X185795500Y-113338706D01*
X185797768Y-113331088D01*
X185795606Y-113278807D01*
X185795500Y-113273684D01*
X185795500Y-113043673D01*
X185814919Y-112977048D01*
X185867095Y-112931291D01*
X186003046Y-112867896D01*
X186047639Y-112847102D01*
X186226877Y-112721598D01*
X186381598Y-112566877D01*
X186507102Y-112387639D01*
X186599575Y-112189330D01*
X186656207Y-111977977D01*
X186675277Y-111760000D01*
X186656207Y-111542023D01*
X186599575Y-111330670D01*
X186507102Y-111132362D01*
X186381598Y-110953123D01*
X186226877Y-110798402D01*
X186222446Y-110795299D01*
X186222442Y-110795296D01*
X186052068Y-110675999D01*
X186052066Y-110675997D01*
X186047639Y-110672898D01*
X186042742Y-110670614D01*
X186042736Y-110670611D01*
X185854236Y-110582712D01*
X185854229Y-110582709D01*
X185849330Y-110580425D01*
X185844103Y-110579024D01*
X185844102Y-110579024D01*
X185643209Y-110525194D01*
X185643199Y-110525192D01*
X185637977Y-110523793D01*
X185632585Y-110523321D01*
X185632578Y-110523320D01*
X185425395Y-110505195D01*
X185420000Y-110504723D01*
X185414605Y-110505195D01*
X185207421Y-110523320D01*
X185207412Y-110523321D01*
X185202023Y-110523793D01*
X185196802Y-110525191D01*
X185196790Y-110525194D01*
X184995897Y-110579024D01*
X184995892Y-110579025D01*
X184990670Y-110580425D01*
X184985774Y-110582707D01*
X184985763Y-110582712D01*
X184797272Y-110670608D01*
X184797268Y-110670610D01*
X184792362Y-110672898D01*
X184787929Y-110676001D01*
X184787922Y-110676006D01*
X184617558Y-110795296D01*
X184617553Y-110795299D01*
X184613123Y-110798402D01*
X184609299Y-110802225D01*
X184609293Y-110802231D01*
X184462231Y-110949293D01*
X184462225Y-110949299D01*
X184458402Y-110953123D01*
X184455296Y-110957557D01*
X184455294Y-110957561D01*
X184421890Y-111005266D01*
X184376686Y-111044588D01*
X184318322Y-111058126D01*
X184260423Y-111042719D01*
X184216507Y-111001963D01*
X184151000Y-110901698D01*
X184143034Y-110893974D01*
X184133653Y-110899898D01*
X183285095Y-111748457D01*
X183278431Y-111760000D01*
X183285095Y-111771542D01*
X184133653Y-112620100D01*
X184143034Y-112626024D01*
X184151002Y-112618299D01*
X184216508Y-112518036D01*
X184260424Y-112477281D01*
X184318323Y-112461874D01*
X184376687Y-112475412D01*
X184421891Y-112514734D01*
X184455296Y-112562442D01*
X184455299Y-112562446D01*
X184458402Y-112566877D01*
X184613123Y-112721598D01*
X184617555Y-112724701D01*
X184617557Y-112724703D01*
X184751159Y-112818252D01*
X184792361Y-112847102D01*
X184797261Y-112849387D01*
X184797263Y-112849388D01*
X184972905Y-112931291D01*
X185025081Y-112977048D01*
X185044500Y-113043673D01*
X185044500Y-113077101D01*
X185035061Y-113124554D01*
X185008181Y-113164782D01*
X184175107Y-113997853D01*
X184155258Y-114013973D01*
X184146164Y-114019916D01*
X184139858Y-114028017D01*
X184139852Y-114028023D01*
X184126720Y-114044895D01*
X184123273Y-114048822D01*
X184123418Y-114048945D01*
X184120105Y-114052855D01*
X184116480Y-114056482D01*
X184113505Y-114060648D01*
X184113498Y-114060657D01*
X184104401Y-114073399D01*
X184101342Y-114077501D01*
X184075500Y-114110703D01*
X184075496Y-114110710D01*
X184069191Y-114118811D01*
X184066609Y-114126331D01*
X184061990Y-114132801D01*
X184059060Y-114142641D01*
X184059058Y-114142646D01*
X184047056Y-114182957D01*
X184045495Y-114187829D01*
X184031836Y-114227619D01*
X184031835Y-114227624D01*
X184028500Y-114237340D01*
X184028500Y-114245294D01*
X184026232Y-114252912D01*
X184026656Y-114263175D01*
X184026656Y-114263179D01*
X184028394Y-114305193D01*
X184028500Y-114310316D01*
X184028500Y-123902195D01*
X184025860Y-123927644D01*
X184025741Y-123928209D01*
X184025740Y-123928216D01*
X184023633Y-123938268D01*
X184024903Y-123948458D01*
X184024903Y-123948462D01*
X184027548Y-123969676D01*
X184027871Y-123974891D01*
X184028077Y-123974874D01*
X184028500Y-123979981D01*
X184028500Y-123985114D01*
X184029344Y-123990172D01*
X184029345Y-123990184D01*
X184031918Y-124005603D01*
X184032657Y-124010670D01*
X184039134Y-124062626D01*
X184042626Y-124069770D01*
X184043935Y-124077610D01*
X184068845Y-124123641D01*
X184071171Y-124128161D01*
X184089660Y-124165979D01*
X184089661Y-124165981D01*
X184094174Y-124175211D01*
X184099797Y-124180834D01*
X184103581Y-124187826D01*
X184111138Y-124194782D01*
X184111139Y-124194784D01*
X184142081Y-124223268D01*
X184145779Y-124226816D01*
X184813181Y-124894219D01*
X184840061Y-124934447D01*
X184849500Y-124981899D01*
X184849500Y-125141582D01*
X184860418Y-125216518D01*
X184916924Y-125332102D01*
X184924190Y-125339368D01*
X185007898Y-125423076D01*
X185005713Y-125425260D01*
X185030747Y-125454200D01*
X185044500Y-125510959D01*
X185044500Y-128405747D01*
X185034692Y-128454080D01*
X185006821Y-128494768D01*
X184965298Y-128521370D01*
X184921275Y-128538426D01*
X184916408Y-128541439D01*
X184916401Y-128541443D01*
X184750597Y-128644104D01*
X184750587Y-128644110D01*
X184745728Y-128647120D01*
X184741497Y-128650976D01*
X184741493Y-128650980D01*
X184597383Y-128782353D01*
X184597373Y-128782363D01*
X184593143Y-128786220D01*
X184589694Y-128790786D01*
X184589685Y-128790797D01*
X184472167Y-128946416D01*
X184472160Y-128946426D01*
X184468715Y-128950989D01*
X184466165Y-128956109D01*
X184466160Y-128956118D01*
X184379236Y-129130685D01*
X184379232Y-129130693D01*
X184376682Y-129135816D01*
X184375113Y-129141328D01*
X184375113Y-129141330D01*
X184347831Y-129237219D01*
X184320178Y-129334408D01*
X184319649Y-129340113D01*
X184319649Y-129340115D01*
X184310380Y-129440144D01*
X184301127Y-129540000D01*
X184320178Y-129745592D01*
X184376682Y-129944184D01*
X184379234Y-129949310D01*
X184379236Y-129949314D01*
X184466160Y-130123881D01*
X184466162Y-130123885D01*
X184468715Y-130129011D01*
X184472166Y-130133581D01*
X184472168Y-130133584D01*
X184487867Y-130154372D01*
X184512385Y-130217658D01*
X184499915Y-130284371D01*
X184454192Y-130334527D01*
X184388914Y-130353100D01*
X183911086Y-130353100D01*
X183845808Y-130334527D01*
X183800085Y-130284371D01*
X183787615Y-130217658D01*
X183812133Y-130154372D01*
X183831285Y-130129011D01*
X183923318Y-129944184D01*
X183979822Y-129745592D01*
X183998873Y-129540000D01*
X183979822Y-129334408D01*
X183923318Y-129135816D01*
X183856276Y-129001178D01*
X183833839Y-128956118D01*
X183833838Y-128956117D01*
X183831285Y-128950989D01*
X183823809Y-128941089D01*
X183710314Y-128790797D01*
X183710310Y-128790793D01*
X183706857Y-128786220D01*
X183702620Y-128782357D01*
X183702616Y-128782353D01*
X183558506Y-128650980D01*
X183558507Y-128650980D01*
X183554272Y-128647120D01*
X183549406Y-128644107D01*
X183549402Y-128644104D01*
X183383598Y-128541443D01*
X183383596Y-128541442D01*
X183378725Y-128538426D01*
X183334701Y-128521370D01*
X183293179Y-128494768D01*
X183265308Y-128454080D01*
X183255500Y-128405747D01*
X183255500Y-125512199D01*
X183269253Y-125455440D01*
X183294286Y-125426500D01*
X183292102Y-125424316D01*
X183306751Y-125409667D01*
X183383076Y-125333342D01*
X183439582Y-125217758D01*
X183450500Y-125142822D01*
X183450500Y-124799658D01*
X183439582Y-124724722D01*
X183383076Y-124609138D01*
X183322859Y-124548921D01*
X183290765Y-124493334D01*
X183290765Y-124429146D01*
X183322859Y-124373559D01*
X183334599Y-124361819D01*
X183383076Y-124313342D01*
X183439582Y-124197758D01*
X183450500Y-124122822D01*
X183450500Y-123779658D01*
X183439582Y-123704722D01*
X183383076Y-123589138D01*
X183292102Y-123498164D01*
X183294286Y-123495979D01*
X183269253Y-123467040D01*
X183255500Y-123410281D01*
X183255500Y-123020204D01*
X183266424Y-122969313D01*
X183297273Y-122927388D01*
X183320721Y-122906615D01*
X183370483Y-122862530D01*
X183460220Y-122732523D01*
X183516237Y-122584818D01*
X183535278Y-122428000D01*
X183516237Y-122271182D01*
X183460220Y-122123477D01*
X183370483Y-121993470D01*
X183287552Y-121920000D01*
X183257856Y-121893692D01*
X183257854Y-121893690D01*
X183252240Y-121888717D01*
X183245595Y-121885229D01*
X183245593Y-121885228D01*
X183119006Y-121818789D01*
X183119002Y-121818787D01*
X183112365Y-121815304D01*
X183105087Y-121813510D01*
X183105084Y-121813509D01*
X182966267Y-121779294D01*
X182966260Y-121779293D01*
X182958985Y-121777500D01*
X182801015Y-121777500D01*
X182793740Y-121779292D01*
X182793732Y-121779294D01*
X182654915Y-121813509D01*
X182654909Y-121813510D01*
X182647635Y-121815304D01*
X182641000Y-121818786D01*
X182640993Y-121818789D01*
X182514406Y-121885228D01*
X182514400Y-121885231D01*
X182507760Y-121888717D01*
X182502145Y-121893690D01*
X182502144Y-121893692D01*
X182445727Y-121943673D01*
X182396075Y-121970502D01*
X182339676Y-121972547D01*
X182288212Y-121949385D01*
X182252343Y-121905813D01*
X182239500Y-121850857D01*
X182239500Y-114351803D01*
X182242139Y-114326357D01*
X182242141Y-114326343D01*
X182244367Y-114315731D01*
X182240451Y-114284324D01*
X182240128Y-114279113D01*
X182239924Y-114279130D01*
X182239500Y-114274015D01*
X182239500Y-114268886D01*
X182236069Y-114248329D01*
X182235342Y-114243340D01*
X182228865Y-114191374D01*
X182225373Y-114184232D01*
X182224065Y-114176390D01*
X182199156Y-114130363D01*
X182196814Y-114125811D01*
X182178339Y-114088020D01*
X182178338Y-114088018D01*
X182173826Y-114078788D01*
X182168201Y-114073163D01*
X182164419Y-114066174D01*
X182125905Y-114030719D01*
X182122231Y-114027193D01*
X181317219Y-113222181D01*
X181286969Y-113172818D01*
X181282427Y-113115102D01*
X181304582Y-113061615D01*
X181348605Y-113024015D01*
X181404900Y-113010500D01*
X181438579Y-113010500D01*
X181444674Y-113010500D01*
X181517740Y-112995966D01*
X181536774Y-112983248D01*
X182055749Y-112983248D01*
X182063855Y-112994439D01*
X182092717Y-113016903D01*
X182101279Y-113022496D01*
X182310885Y-113135929D01*
X182320239Y-113140032D01*
X182545656Y-113217417D01*
X182555568Y-113219928D01*
X182790643Y-113259155D01*
X182800839Y-113260000D01*
X183039161Y-113260000D01*
X183049356Y-113259155D01*
X183284431Y-113219928D01*
X183294343Y-113217417D01*
X183519760Y-113140032D01*
X183529114Y-113135929D01*
X183738723Y-113022495D01*
X183747281Y-113016903D01*
X183776146Y-112994437D01*
X183784250Y-112983250D01*
X183777589Y-112971142D01*
X182931542Y-112125095D01*
X182920000Y-112118431D01*
X182908457Y-112125095D01*
X182062408Y-112971143D01*
X182055749Y-112983248D01*
X181536774Y-112983248D01*
X181600601Y-112940601D01*
X181655966Y-112857740D01*
X181670500Y-112784674D01*
X181670500Y-112707308D01*
X181679939Y-112659855D01*
X181706819Y-112619627D01*
X182554904Y-111771542D01*
X182561568Y-111760000D01*
X182554904Y-111748457D01*
X181706819Y-110900372D01*
X181679939Y-110860144D01*
X181670500Y-110812691D01*
X181670500Y-110741421D01*
X181670500Y-110735326D01*
X181655966Y-110662260D01*
X181600601Y-110579399D01*
X181536770Y-110536749D01*
X182055748Y-110536749D01*
X182062408Y-110548855D01*
X182908457Y-111394904D01*
X182920000Y-111401568D01*
X182931542Y-111394904D01*
X183777590Y-110548855D01*
X183784250Y-110536749D01*
X183776143Y-110525559D01*
X183747286Y-110503099D01*
X183738719Y-110497503D01*
X183529114Y-110384070D01*
X183519760Y-110379967D01*
X183294343Y-110302582D01*
X183284431Y-110300071D01*
X183049356Y-110260844D01*
X183039161Y-110260000D01*
X182800839Y-110260000D01*
X182790643Y-110260844D01*
X182555568Y-110300071D01*
X182545656Y-110302582D01*
X182320239Y-110379967D01*
X182310885Y-110384070D01*
X182101276Y-110497504D01*
X182092717Y-110503096D01*
X182063854Y-110525560D01*
X182055748Y-110536749D01*
X181536770Y-110536749D01*
X181517740Y-110524034D01*
X181505762Y-110521651D01*
X181505759Y-110521650D01*
X181450653Y-110510689D01*
X181450649Y-110510688D01*
X181444674Y-110509500D01*
X179395326Y-110509500D01*
X179389351Y-110510688D01*
X179389346Y-110510689D01*
X179334240Y-110521650D01*
X179334235Y-110521651D01*
X179322260Y-110524034D01*
X179312105Y-110530819D01*
X179312103Y-110530820D01*
X179249551Y-110572615D01*
X179249548Y-110572617D01*
X179239399Y-110579399D01*
X179232617Y-110589548D01*
X179232615Y-110589551D01*
X179190820Y-110652103D01*
X179190819Y-110652105D01*
X179184034Y-110662260D01*
X179181651Y-110674235D01*
X179181650Y-110674240D01*
X179170689Y-110729346D01*
X179170688Y-110729351D01*
X179169500Y-110735326D01*
X179169500Y-112784674D01*
X179170688Y-112790649D01*
X179170689Y-112790653D01*
X179181650Y-112845759D01*
X179181651Y-112845762D01*
X179184034Y-112857740D01*
X179239399Y-112940601D01*
X179322260Y-112995966D01*
X179395326Y-113010500D01*
X180000793Y-113010500D01*
X180057545Y-113024249D01*
X180101711Y-113062448D01*
X180105661Y-113067981D01*
X180110174Y-113077211D01*
X180115797Y-113082834D01*
X180119581Y-113089826D01*
X180127138Y-113096782D01*
X180127139Y-113096784D01*
X180158082Y-113125269D01*
X180161780Y-113128817D01*
X181452181Y-114419218D01*
X181479061Y-114459446D01*
X181488500Y-114506899D01*
X181488500Y-123903435D01*
X181485860Y-123928884D01*
X181485741Y-123929449D01*
X181485740Y-123929456D01*
X181483633Y-123939508D01*
X181484903Y-123949698D01*
X181484903Y-123949702D01*
X181487548Y-123970916D01*
X181487871Y-123976131D01*
X181488077Y-123976114D01*
X181488500Y-123981221D01*
X181488500Y-123986354D01*
X181489344Y-123991412D01*
X181489345Y-123991424D01*
X181491918Y-124006843D01*
X181492657Y-124011910D01*
X181499134Y-124063866D01*
X181502626Y-124071010D01*
X181503935Y-124078850D01*
X181528845Y-124124881D01*
X181531171Y-124129401D01*
X181549660Y-124167219D01*
X181549661Y-124167221D01*
X181554174Y-124176451D01*
X181559797Y-124182074D01*
X181563581Y-124189066D01*
X181571138Y-124196022D01*
X181571139Y-124196024D01*
X181602081Y-124224508D01*
X181605779Y-124228056D01*
X182273181Y-124895459D01*
X182300061Y-124935687D01*
X182309500Y-124983140D01*
X182309500Y-125142822D01*
X182310145Y-125147252D01*
X182310146Y-125147259D01*
X182319029Y-125208226D01*
X182320418Y-125217758D01*
X182376924Y-125333342D01*
X182384190Y-125340607D01*
X182384190Y-125340608D01*
X182467898Y-125424316D01*
X182465713Y-125426500D01*
X182490747Y-125455440D01*
X182504500Y-125512199D01*
X182504500Y-128405747D01*
X182494692Y-128454080D01*
X182466821Y-128494768D01*
X182425298Y-128521370D01*
X182381275Y-128538426D01*
X182376408Y-128541439D01*
X182376401Y-128541443D01*
X182210597Y-128644104D01*
X182210587Y-128644110D01*
X182205728Y-128647120D01*
X182201497Y-128650976D01*
X182201493Y-128650980D01*
X182057383Y-128782353D01*
X182057373Y-128782363D01*
X182053143Y-128786220D01*
X182049694Y-128790786D01*
X182049685Y-128790797D01*
X181932167Y-128946416D01*
X181932160Y-128946426D01*
X181928715Y-128950989D01*
X181926165Y-128956109D01*
X181926160Y-128956118D01*
X181839236Y-129130685D01*
X181839232Y-129130693D01*
X181836682Y-129135816D01*
X181835113Y-129141328D01*
X181835113Y-129141330D01*
X181807831Y-129237219D01*
X181780178Y-129334408D01*
X181779649Y-129340113D01*
X181779649Y-129340115D01*
X181770380Y-129440144D01*
X181761127Y-129540000D01*
X181780178Y-129745592D01*
X181836682Y-129944184D01*
X181839234Y-129949310D01*
X181839236Y-129949314D01*
X181926160Y-130123881D01*
X181926162Y-130123885D01*
X181928715Y-130129011D01*
X181932166Y-130133581D01*
X181932168Y-130133584D01*
X181947867Y-130154372D01*
X181972385Y-130217658D01*
X181959915Y-130284371D01*
X181914192Y-130334527D01*
X181848914Y-130353100D01*
X181371086Y-130353100D01*
X181305808Y-130334527D01*
X181260085Y-130284371D01*
X181247615Y-130217658D01*
X181272133Y-130154372D01*
X181291285Y-130129011D01*
X181383318Y-129944184D01*
X181439822Y-129745592D01*
X181458873Y-129540000D01*
X181439822Y-129334408D01*
X181383318Y-129135816D01*
X181316276Y-129001178D01*
X181293839Y-128956118D01*
X181293838Y-128956117D01*
X181291285Y-128950989D01*
X181283809Y-128941089D01*
X181170314Y-128790797D01*
X181170310Y-128790793D01*
X181166857Y-128786220D01*
X181162620Y-128782357D01*
X181162616Y-128782353D01*
X181018506Y-128650980D01*
X181018507Y-128650980D01*
X181014272Y-128647120D01*
X181009406Y-128644107D01*
X181009402Y-128644104D01*
X180843598Y-128541443D01*
X180843596Y-128541442D01*
X180838725Y-128538426D01*
X180794701Y-128521370D01*
X180753179Y-128494768D01*
X180725308Y-128454080D01*
X180715500Y-128405747D01*
X180715500Y-125510959D01*
X180729253Y-125454200D01*
X180754286Y-125425260D01*
X180752102Y-125423076D01*
X180765511Y-125409667D01*
X180843076Y-125332102D01*
X180899582Y-125216518D01*
X180910500Y-125141582D01*
X180910500Y-124798418D01*
X180899582Y-124723482D01*
X180843076Y-124607898D01*
X180782859Y-124547681D01*
X180750765Y-124492094D01*
X180750765Y-124427906D01*
X180782859Y-124372319D01*
X180793359Y-124361819D01*
X180843076Y-124312102D01*
X180899582Y-124196518D01*
X180910500Y-124121582D01*
X180910500Y-123778418D01*
X180899582Y-123703482D01*
X180843076Y-123587898D01*
X180752102Y-123496924D01*
X180754286Y-123494739D01*
X180729253Y-123465800D01*
X180715500Y-123409041D01*
X180715500Y-123020204D01*
X180726424Y-122969313D01*
X180757273Y-122927388D01*
X180780721Y-122906615D01*
X180830483Y-122862530D01*
X180920220Y-122732523D01*
X180976237Y-122584818D01*
X180995278Y-122428000D01*
X180976237Y-122271182D01*
X180920220Y-122123477D01*
X180830483Y-121993470D01*
X180747552Y-121920000D01*
X180717856Y-121893692D01*
X180717854Y-121893690D01*
X180712240Y-121888717D01*
X180705595Y-121885229D01*
X180705593Y-121885228D01*
X180579006Y-121818789D01*
X180579002Y-121818787D01*
X180572365Y-121815304D01*
X180565087Y-121813510D01*
X180565084Y-121813509D01*
X180426267Y-121779294D01*
X180426260Y-121779293D01*
X180418985Y-121777500D01*
X180261015Y-121777500D01*
X180253740Y-121779292D01*
X180253732Y-121779294D01*
X180114915Y-121813509D01*
X180114909Y-121813510D01*
X180107635Y-121815304D01*
X180101000Y-121818786D01*
X180100993Y-121818789D01*
X179974406Y-121885228D01*
X179974400Y-121885231D01*
X179967760Y-121888717D01*
X179962145Y-121893690D01*
X179962144Y-121893692D01*
X179905727Y-121943673D01*
X179856075Y-121970502D01*
X179799676Y-121972547D01*
X179748212Y-121949385D01*
X179712343Y-121905813D01*
X179699500Y-121850857D01*
X179699500Y-114351805D01*
X179702140Y-114326356D01*
X179702258Y-114325790D01*
X179702258Y-114325789D01*
X179704367Y-114315732D01*
X179700451Y-114284323D01*
X179700128Y-114279113D01*
X179699924Y-114279130D01*
X179699500Y-114274018D01*
X179699500Y-114268886D01*
X179696074Y-114248362D01*
X179695341Y-114243326D01*
X179695273Y-114242784D01*
X179688866Y-114191374D01*
X179685373Y-114184229D01*
X179684065Y-114176390D01*
X179659158Y-114130366D01*
X179656837Y-114125859D01*
X179633826Y-114078789D01*
X179628202Y-114073165D01*
X179624419Y-114066174D01*
X179585892Y-114030707D01*
X179582218Y-114027181D01*
X174401819Y-108846781D01*
X174374939Y-108806553D01*
X174365500Y-108759100D01*
X174365500Y-105884674D01*
X176069500Y-105884674D01*
X176070688Y-105890649D01*
X176070689Y-105890653D01*
X176081650Y-105945759D01*
X176081651Y-105945762D01*
X176084034Y-105957740D01*
X176139399Y-106040601D01*
X176222260Y-106095966D01*
X176295326Y-106110500D01*
X178338579Y-106110500D01*
X178344674Y-106110500D01*
X178417740Y-106095966D01*
X178500601Y-106040601D01*
X178555966Y-105957740D01*
X178570500Y-105884674D01*
X178570500Y-102635326D01*
X178555966Y-102562260D01*
X178500601Y-102479399D01*
X178417740Y-102424034D01*
X178405762Y-102421651D01*
X178405759Y-102421650D01*
X178350653Y-102410689D01*
X178350649Y-102410688D01*
X178344674Y-102409500D01*
X176295326Y-102409500D01*
X176289351Y-102410688D01*
X176289346Y-102410689D01*
X176234240Y-102421650D01*
X176234235Y-102421651D01*
X176222260Y-102424034D01*
X176212105Y-102430819D01*
X176212103Y-102430820D01*
X176149551Y-102472615D01*
X176149548Y-102472617D01*
X176139399Y-102479399D01*
X176132617Y-102489548D01*
X176132615Y-102489551D01*
X176090820Y-102552103D01*
X176090819Y-102552105D01*
X176084034Y-102562260D01*
X176081651Y-102574235D01*
X176081650Y-102574240D01*
X176070689Y-102629346D01*
X176070688Y-102629351D01*
X176069500Y-102635326D01*
X176069500Y-105884674D01*
X174365500Y-105884674D01*
X174365500Y-101796804D01*
X174368139Y-101771358D01*
X174368141Y-101771344D01*
X174370367Y-101760732D01*
X174366451Y-101729323D01*
X174366128Y-101724113D01*
X174365924Y-101724130D01*
X174365500Y-101719018D01*
X174365500Y-101713886D01*
X174362074Y-101693362D01*
X174361341Y-101688326D01*
X174356137Y-101646572D01*
X174354866Y-101636374D01*
X174351373Y-101629229D01*
X174350065Y-101621390D01*
X174325158Y-101575366D01*
X174322837Y-101570859D01*
X174299826Y-101523789D01*
X174294202Y-101518165D01*
X174290419Y-101511174D01*
X174282858Y-101504214D01*
X174282857Y-101504212D01*
X174251917Y-101475730D01*
X174248219Y-101472182D01*
X172720150Y-99944112D01*
X172704022Y-99924251D01*
X172703706Y-99923768D01*
X172703703Y-99923765D01*
X172698084Y-99915164D01*
X172673109Y-99895725D01*
X172669190Y-99892264D01*
X172669058Y-99892421D01*
X172665143Y-99889105D01*
X172661518Y-99885480D01*
X172644591Y-99873395D01*
X172640481Y-99870330D01*
X172607297Y-99844502D01*
X172599189Y-99838191D01*
X172591668Y-99835609D01*
X172585199Y-99830990D01*
X172575353Y-99828058D01*
X172575350Y-99828057D01*
X172535043Y-99816056D01*
X172530167Y-99814494D01*
X172490381Y-99800836D01*
X172490374Y-99800834D01*
X172480660Y-99797500D01*
X172472706Y-99797500D01*
X172465088Y-99795232D01*
X172454823Y-99795656D01*
X172454820Y-99795656D01*
X172412807Y-99797394D01*
X172407684Y-99797500D01*
X171733887Y-99797500D01*
X171677592Y-99783985D01*
X171633569Y-99746385D01*
X171611414Y-99692898D01*
X171615956Y-99635182D01*
X171633204Y-99607035D01*
X171635625Y-99598000D01*
X171640000Y-99598000D01*
X171640000Y-96998000D01*
X171635625Y-96998000D01*
X171630479Y-96978796D01*
X171629578Y-96918181D01*
X171634427Y-96897662D01*
X171639646Y-96849114D01*
X171640000Y-96842518D01*
X171640000Y-96689326D01*
X171636549Y-96676450D01*
X171623674Y-96673000D01*
X169656326Y-96673000D01*
X169643450Y-96676450D01*
X169640000Y-96689326D01*
X169640000Y-96842518D01*
X169640354Y-96849127D01*
X169641603Y-96860743D01*
X169629851Y-96928180D01*
X169584108Y-96979105D01*
X169518314Y-96998000D01*
X168640000Y-96998000D01*
X168640000Y-99598000D01*
X168644374Y-99598000D01*
X168646795Y-99607035D01*
X168664044Y-99635182D01*
X168668586Y-99692898D01*
X168646431Y-99746385D01*
X168602408Y-99783985D01*
X168546113Y-99797500D01*
X166733887Y-99797500D01*
X166677592Y-99783985D01*
X166633569Y-99746385D01*
X166611414Y-99692898D01*
X166615956Y-99635182D01*
X166633204Y-99607035D01*
X166635625Y-99598000D01*
X166640000Y-99598000D01*
X166640000Y-96998000D01*
X165761686Y-96998000D01*
X165695892Y-96979105D01*
X165650149Y-96928180D01*
X165638397Y-96860743D01*
X165639645Y-96849127D01*
X165640000Y-96842518D01*
X165640000Y-96689326D01*
X165636549Y-96676450D01*
X165623674Y-96673000D01*
X163656326Y-96673000D01*
X163643450Y-96676450D01*
X163640000Y-96689326D01*
X163640000Y-96842518D01*
X163640353Y-96849114D01*
X163645572Y-96897664D01*
X163650422Y-96918185D01*
X163649520Y-96978793D01*
X163644374Y-96998000D01*
X163640000Y-96998000D01*
X163640000Y-99598000D01*
X163773280Y-99598000D01*
X163826297Y-99609905D01*
X163869133Y-99643335D01*
X163893564Y-99691870D01*
X163894898Y-99746190D01*
X163890688Y-99767351D01*
X163890687Y-99767356D01*
X163889500Y-99773326D01*
X163889500Y-100572674D01*
X163890688Y-100578649D01*
X163890689Y-100578653D01*
X163901650Y-100633759D01*
X163901651Y-100633762D01*
X163904034Y-100645740D01*
X163959399Y-100728601D01*
X164042260Y-100783966D01*
X164115326Y-100798500D01*
X165158579Y-100798500D01*
X165164674Y-100798500D01*
X165237740Y-100783966D01*
X165320601Y-100728601D01*
X165375966Y-100645740D01*
X165378349Y-100633758D01*
X165381957Y-100625049D01*
X165408837Y-100584820D01*
X165449066Y-100557939D01*
X165496519Y-100548500D01*
X169783481Y-100548500D01*
X169830934Y-100557939D01*
X169871163Y-100584820D01*
X169898043Y-100625049D01*
X169901650Y-100633759D01*
X169904034Y-100645740D01*
X169959399Y-100728601D01*
X170042260Y-100783966D01*
X170115326Y-100798500D01*
X171158579Y-100798500D01*
X171164674Y-100798500D01*
X171237740Y-100783966D01*
X171320601Y-100728601D01*
X171375966Y-100645740D01*
X171378349Y-100633758D01*
X171381957Y-100625049D01*
X171408837Y-100584820D01*
X171449066Y-100557939D01*
X171496519Y-100548500D01*
X172211101Y-100548500D01*
X172258554Y-100557939D01*
X172298782Y-100584819D01*
X173578181Y-101864218D01*
X173605061Y-101904446D01*
X173614500Y-101951899D01*
X173614500Y-108914195D01*
X173611860Y-108939644D01*
X173611741Y-108940209D01*
X173611740Y-108940216D01*
X173609633Y-108950268D01*
X173610903Y-108960458D01*
X173610903Y-108960462D01*
X173613548Y-108981676D01*
X173613871Y-108986891D01*
X173614077Y-108986874D01*
X173614500Y-108991981D01*
X173614500Y-108997114D01*
X173615344Y-109002172D01*
X173615345Y-109002184D01*
X173617918Y-109017603D01*
X173618657Y-109022670D01*
X173625134Y-109074626D01*
X173628626Y-109081770D01*
X173629935Y-109089610D01*
X173654845Y-109135641D01*
X173657171Y-109140161D01*
X173675660Y-109177979D01*
X173675661Y-109177981D01*
X173680174Y-109187211D01*
X173685797Y-109192834D01*
X173689581Y-109199826D01*
X173697138Y-109206782D01*
X173697139Y-109206784D01*
X173728082Y-109235269D01*
X173731780Y-109238817D01*
X178912181Y-114419218D01*
X178939061Y-114459446D01*
X178948500Y-114506899D01*
X178948500Y-123902195D01*
X178945860Y-123927644D01*
X178945741Y-123928209D01*
X178945740Y-123928216D01*
X178943633Y-123938268D01*
X178944903Y-123948458D01*
X178944903Y-123948462D01*
X178947548Y-123969676D01*
X178947871Y-123974891D01*
X178948077Y-123974874D01*
X178948500Y-123979981D01*
X178948500Y-123985114D01*
X178949344Y-123990172D01*
X178949345Y-123990184D01*
X178951918Y-124005603D01*
X178952657Y-124010670D01*
X178959134Y-124062626D01*
X178962626Y-124069770D01*
X178963935Y-124077610D01*
X178988845Y-124123641D01*
X178991171Y-124128161D01*
X179009660Y-124165979D01*
X179009661Y-124165981D01*
X179014174Y-124175211D01*
X179019797Y-124180834D01*
X179023581Y-124187826D01*
X179031138Y-124194782D01*
X179031139Y-124194784D01*
X179062081Y-124223268D01*
X179065779Y-124226816D01*
X179733181Y-124894219D01*
X179760061Y-124934447D01*
X179769500Y-124981899D01*
X179769500Y-125141582D01*
X179780418Y-125216518D01*
X179836924Y-125332102D01*
X179844190Y-125339368D01*
X179927898Y-125423076D01*
X179925713Y-125425260D01*
X179950747Y-125454200D01*
X179964500Y-125510959D01*
X179964500Y-128405747D01*
X179954692Y-128454080D01*
X179926821Y-128494768D01*
X179885298Y-128521370D01*
X179841275Y-128538426D01*
X179836408Y-128541439D01*
X179836401Y-128541443D01*
X179670597Y-128644104D01*
X179670587Y-128644110D01*
X179665728Y-128647120D01*
X179661497Y-128650976D01*
X179661493Y-128650980D01*
X179517383Y-128782353D01*
X179517373Y-128782363D01*
X179513143Y-128786220D01*
X179509694Y-128790786D01*
X179509685Y-128790797D01*
X179392167Y-128946416D01*
X179392160Y-128946426D01*
X179388715Y-128950989D01*
X179386165Y-128956109D01*
X179386160Y-128956118D01*
X179299236Y-129130685D01*
X179299232Y-129130693D01*
X179296682Y-129135816D01*
X179295113Y-129141328D01*
X179295113Y-129141330D01*
X179267831Y-129237219D01*
X179240178Y-129334408D01*
X179239649Y-129340113D01*
X179239649Y-129340115D01*
X179230380Y-129440144D01*
X179221127Y-129540000D01*
X179240178Y-129745592D01*
X179296682Y-129944184D01*
X179299234Y-129949310D01*
X179299236Y-129949314D01*
X179386160Y-130123881D01*
X179386162Y-130123885D01*
X179388715Y-130129011D01*
X179392166Y-130133581D01*
X179392168Y-130133584D01*
X179407867Y-130154372D01*
X179432385Y-130217658D01*
X179419915Y-130284371D01*
X179374192Y-130334527D01*
X179308914Y-130353100D01*
X178831086Y-130353100D01*
X178765808Y-130334527D01*
X178720085Y-130284371D01*
X178707615Y-130217658D01*
X178732133Y-130154372D01*
X178751285Y-130129011D01*
X178843318Y-129944184D01*
X178899822Y-129745592D01*
X178918873Y-129540000D01*
X178899822Y-129334408D01*
X178843318Y-129135816D01*
X178776276Y-129001178D01*
X178753839Y-128956118D01*
X178753838Y-128956117D01*
X178751285Y-128950989D01*
X178743809Y-128941089D01*
X178630314Y-128790797D01*
X178630310Y-128790793D01*
X178626857Y-128786220D01*
X178622620Y-128782357D01*
X178622616Y-128782353D01*
X178478506Y-128650980D01*
X178478507Y-128650980D01*
X178474272Y-128647120D01*
X178469406Y-128644107D01*
X178469402Y-128644104D01*
X178303598Y-128541443D01*
X178303596Y-128541442D01*
X178298725Y-128538426D01*
X178254701Y-128521370D01*
X178213179Y-128494768D01*
X178185308Y-128454080D01*
X178175500Y-128405747D01*
X178175500Y-125510959D01*
X178189253Y-125454200D01*
X178214286Y-125425260D01*
X178212102Y-125423076D01*
X178225511Y-125409667D01*
X178303076Y-125332102D01*
X178359582Y-125216518D01*
X178370500Y-125141582D01*
X178370500Y-124798418D01*
X178359582Y-124723482D01*
X178303076Y-124607898D01*
X178242859Y-124547681D01*
X178210765Y-124492094D01*
X178210765Y-124427906D01*
X178242859Y-124372319D01*
X178253359Y-124361819D01*
X178303076Y-124312102D01*
X178359582Y-124196518D01*
X178370500Y-124121582D01*
X178370500Y-123778418D01*
X178359582Y-123703482D01*
X178303076Y-123587898D01*
X178212102Y-123496924D01*
X178214286Y-123494739D01*
X178189253Y-123465800D01*
X178175500Y-123409041D01*
X178175500Y-123020204D01*
X178186424Y-122969313D01*
X178217273Y-122927388D01*
X178240721Y-122906615D01*
X178290483Y-122862530D01*
X178380220Y-122732523D01*
X178436237Y-122584818D01*
X178455278Y-122428000D01*
X178436237Y-122271182D01*
X178380220Y-122123477D01*
X178290483Y-121993470D01*
X178207552Y-121920000D01*
X178177856Y-121893692D01*
X178177854Y-121893690D01*
X178172240Y-121888717D01*
X178165595Y-121885229D01*
X178165593Y-121885228D01*
X178039006Y-121818789D01*
X178039002Y-121818787D01*
X178032365Y-121815304D01*
X178025087Y-121813510D01*
X178025084Y-121813509D01*
X177886267Y-121779294D01*
X177886260Y-121779293D01*
X177878985Y-121777500D01*
X177721015Y-121777500D01*
X177713740Y-121779292D01*
X177713732Y-121779294D01*
X177574915Y-121813509D01*
X177574909Y-121813510D01*
X177567635Y-121815304D01*
X177561000Y-121818786D01*
X177560993Y-121818789D01*
X177434406Y-121885228D01*
X177434400Y-121885231D01*
X177427760Y-121888717D01*
X177422145Y-121893690D01*
X177422144Y-121893692D01*
X177365727Y-121943673D01*
X177316075Y-121970502D01*
X177259676Y-121972547D01*
X177208212Y-121949385D01*
X177172343Y-121905813D01*
X177159500Y-121850857D01*
X177159500Y-114351805D01*
X177162140Y-114326356D01*
X177162258Y-114325790D01*
X177162258Y-114325789D01*
X177164367Y-114315732D01*
X177160451Y-114284323D01*
X177160128Y-114279113D01*
X177159924Y-114279130D01*
X177159500Y-114274018D01*
X177159500Y-114268886D01*
X177156074Y-114248362D01*
X177155341Y-114243326D01*
X177155273Y-114242784D01*
X177148866Y-114191374D01*
X177145373Y-114184229D01*
X177144065Y-114176390D01*
X177119158Y-114130366D01*
X177116837Y-114125859D01*
X177093826Y-114078789D01*
X177088202Y-114073165D01*
X177084419Y-114066174D01*
X177045892Y-114030707D01*
X177042218Y-114027181D01*
X171404849Y-108389811D01*
X171377968Y-108349582D01*
X171368530Y-108302128D01*
X171375684Y-108266160D01*
X171375966Y-108265740D01*
X171390500Y-108192674D01*
X171390500Y-107393326D01*
X171385102Y-107366189D01*
X171386436Y-107311870D01*
X171410867Y-107263335D01*
X171453703Y-107229905D01*
X171506720Y-107218000D01*
X171623674Y-107218000D01*
X171640000Y-107218000D01*
X171640000Y-104618000D01*
X171635625Y-104618000D01*
X171630479Y-104598796D01*
X171629578Y-104538181D01*
X171634427Y-104517662D01*
X171639646Y-104469114D01*
X171640000Y-104462518D01*
X171640000Y-104309326D01*
X171636549Y-104296450D01*
X171623674Y-104293000D01*
X169656326Y-104293000D01*
X169643450Y-104296450D01*
X169640000Y-104309326D01*
X169640000Y-104462518D01*
X169640354Y-104469127D01*
X169641603Y-104480743D01*
X169629851Y-104548180D01*
X169584108Y-104599105D01*
X169518314Y-104618000D01*
X168640000Y-104618000D01*
X168640000Y-107218000D01*
X168644374Y-107218000D01*
X168646795Y-107227035D01*
X168664044Y-107255182D01*
X168668586Y-107312898D01*
X168646431Y-107366385D01*
X168602408Y-107403985D01*
X168546113Y-107417500D01*
X166733887Y-107417500D01*
X166677592Y-107403985D01*
X166633569Y-107366385D01*
X166611414Y-107312898D01*
X166615956Y-107255182D01*
X166633204Y-107227035D01*
X166635625Y-107218000D01*
X166640000Y-107218000D01*
X166640000Y-104618000D01*
X165761686Y-104618000D01*
X165695892Y-104599105D01*
X165650149Y-104548180D01*
X165638397Y-104480743D01*
X165639645Y-104469127D01*
X165640000Y-104462518D01*
X165640000Y-104309326D01*
X165636549Y-104296450D01*
X165623674Y-104293000D01*
X163656326Y-104293000D01*
X163643450Y-104296450D01*
X163640000Y-104309326D01*
X163640000Y-104462518D01*
X163640353Y-104469114D01*
X163645572Y-104517664D01*
X163650422Y-104538185D01*
X163649520Y-104598793D01*
X163644374Y-104618000D01*
X163640000Y-104618000D01*
X163640000Y-107218000D01*
X163773280Y-107218000D01*
X163826297Y-107229905D01*
X163869133Y-107263335D01*
X163893564Y-107311870D01*
X163894898Y-107366190D01*
X163890688Y-107387351D01*
X163890687Y-107387356D01*
X163889500Y-107393326D01*
X163889500Y-108192674D01*
X163890688Y-108198649D01*
X163890689Y-108198653D01*
X163901650Y-108253759D01*
X163901651Y-108253762D01*
X163904034Y-108265740D01*
X163959399Y-108348601D01*
X164042260Y-108403966D01*
X164115326Y-108418500D01*
X165158579Y-108418500D01*
X165164674Y-108418500D01*
X165237740Y-108403966D01*
X165320601Y-108348601D01*
X165375966Y-108265740D01*
X165378349Y-108253758D01*
X165381957Y-108245049D01*
X165408837Y-108204820D01*
X165449066Y-108177939D01*
X165496519Y-108168500D01*
X169783481Y-108168500D01*
X169830934Y-108177939D01*
X169871163Y-108204820D01*
X169898043Y-108245049D01*
X169901650Y-108253759D01*
X169904034Y-108265740D01*
X169959399Y-108348601D01*
X170042260Y-108403966D01*
X170115326Y-108418500D01*
X170320101Y-108418500D01*
X170367554Y-108427939D01*
X170407782Y-108454819D01*
X176372181Y-114419218D01*
X176399061Y-114459446D01*
X176408500Y-114506899D01*
X176408500Y-123902195D01*
X176405860Y-123927644D01*
X176405741Y-123928209D01*
X176405740Y-123928216D01*
X176403633Y-123938268D01*
X176404903Y-123948458D01*
X176404903Y-123948462D01*
X176407548Y-123969676D01*
X176407871Y-123974891D01*
X176408077Y-123974874D01*
X176408500Y-123979981D01*
X176408500Y-123985114D01*
X176409344Y-123990172D01*
X176409345Y-123990184D01*
X176411918Y-124005603D01*
X176412657Y-124010670D01*
X176419134Y-124062626D01*
X176422626Y-124069770D01*
X176423935Y-124077610D01*
X176448845Y-124123641D01*
X176451171Y-124128161D01*
X176469660Y-124165979D01*
X176469661Y-124165981D01*
X176474174Y-124175211D01*
X176479797Y-124180834D01*
X176483581Y-124187826D01*
X176491138Y-124194782D01*
X176491139Y-124194784D01*
X176522081Y-124223268D01*
X176525779Y-124226816D01*
X177193181Y-124894219D01*
X177220061Y-124934447D01*
X177229500Y-124981899D01*
X177229500Y-125141582D01*
X177240418Y-125216518D01*
X177296924Y-125332102D01*
X177304190Y-125339368D01*
X177387898Y-125423076D01*
X177385713Y-125425260D01*
X177410747Y-125454200D01*
X177424500Y-125510959D01*
X177424500Y-128405747D01*
X177414692Y-128454080D01*
X177386821Y-128494768D01*
X177345298Y-128521370D01*
X177301275Y-128538426D01*
X177296408Y-128541439D01*
X177296401Y-128541443D01*
X177130597Y-128644104D01*
X177130587Y-128644110D01*
X177125728Y-128647120D01*
X177121497Y-128650976D01*
X177121493Y-128650980D01*
X176977383Y-128782353D01*
X176977373Y-128782363D01*
X176973143Y-128786220D01*
X176969694Y-128790786D01*
X176969685Y-128790797D01*
X176852167Y-128946416D01*
X176852160Y-128946426D01*
X176848715Y-128950989D01*
X176846165Y-128956109D01*
X176846160Y-128956118D01*
X176759236Y-129130685D01*
X176759232Y-129130693D01*
X176756682Y-129135816D01*
X176755113Y-129141328D01*
X176755113Y-129141330D01*
X176727831Y-129237219D01*
X176700178Y-129334408D01*
X176699649Y-129340113D01*
X176699649Y-129340115D01*
X176690380Y-129440144D01*
X176681127Y-129540000D01*
X176700178Y-129745592D01*
X176756682Y-129944184D01*
X176759234Y-129949310D01*
X176759236Y-129949314D01*
X176846160Y-130123881D01*
X176846162Y-130123885D01*
X176848715Y-130129011D01*
X176852166Y-130133581D01*
X176852168Y-130133584D01*
X176867867Y-130154372D01*
X176892385Y-130217658D01*
X176879915Y-130284371D01*
X176834192Y-130334527D01*
X176768914Y-130353100D01*
X176291086Y-130353100D01*
X176225808Y-130334527D01*
X176180085Y-130284371D01*
X176167615Y-130217658D01*
X176192133Y-130154372D01*
X176211285Y-130129011D01*
X176303318Y-129944184D01*
X176359822Y-129745592D01*
X176378873Y-129540000D01*
X176359822Y-129334408D01*
X176303318Y-129135816D01*
X176236276Y-129001178D01*
X176213839Y-128956118D01*
X176213838Y-128956117D01*
X176211285Y-128950989D01*
X176203809Y-128941089D01*
X176090314Y-128790797D01*
X176090310Y-128790793D01*
X176086857Y-128786220D01*
X176082620Y-128782357D01*
X176082616Y-128782353D01*
X175938506Y-128650980D01*
X175938507Y-128650980D01*
X175934272Y-128647120D01*
X175929406Y-128644107D01*
X175929402Y-128644104D01*
X175763596Y-128541442D01*
X175758725Y-128538426D01*
X175753387Y-128536358D01*
X175753383Y-128536356D01*
X175571540Y-128465910D01*
X175571539Y-128465909D01*
X175566194Y-128463839D01*
X175513988Y-128454080D01*
X175368866Y-128426952D01*
X175368863Y-128426951D01*
X175363237Y-128425900D01*
X175156763Y-128425900D01*
X175151137Y-128426951D01*
X175151133Y-128426952D01*
X174959443Y-128462785D01*
X174959440Y-128462785D01*
X174953806Y-128463839D01*
X174948467Y-128465907D01*
X174948454Y-128465911D01*
X174856932Y-128501367D01*
X174810229Y-128509725D01*
X174763805Y-128499932D01*
X174724458Y-128473421D01*
X170591819Y-124340781D01*
X170564939Y-124300553D01*
X170555500Y-124253100D01*
X170555500Y-123144500D01*
X170572113Y-123082500D01*
X170617500Y-123037113D01*
X170679500Y-123020500D01*
X171048579Y-123020500D01*
X171054674Y-123020500D01*
X171127740Y-123005966D01*
X171210601Y-122950601D01*
X171265966Y-122867740D01*
X171280500Y-122794674D01*
X171280500Y-121920000D01*
X171614785Y-121920000D01*
X171615314Y-121925709D01*
X171622164Y-121999640D01*
X171633603Y-122123083D01*
X171635171Y-122128594D01*
X171635173Y-122128604D01*
X171687847Y-122313731D01*
X171687849Y-122313737D01*
X171689418Y-122319250D01*
X171780327Y-122501821D01*
X171783779Y-122506392D01*
X171899778Y-122660001D01*
X171899783Y-122660006D01*
X171903236Y-122664579D01*
X171907472Y-122668440D01*
X171907476Y-122668445D01*
X171977767Y-122732523D01*
X172053959Y-122801981D01*
X172227363Y-122909348D01*
X172417544Y-122983024D01*
X172618024Y-123020500D01*
X172728101Y-123020500D01*
X172775554Y-123029939D01*
X172815782Y-123056819D01*
X174653181Y-124894218D01*
X174680061Y-124934446D01*
X174689500Y-124981899D01*
X174689500Y-125141582D01*
X174700418Y-125216518D01*
X174756924Y-125332102D01*
X174847898Y-125423076D01*
X174963482Y-125479582D01*
X175038418Y-125490500D01*
X175477100Y-125490500D01*
X175481582Y-125490500D01*
X175556518Y-125479582D01*
X175672102Y-125423076D01*
X175763076Y-125332102D01*
X175819582Y-125216518D01*
X175830500Y-125141582D01*
X175830500Y-124798418D01*
X175819582Y-124723482D01*
X175763076Y-124607898D01*
X175702859Y-124547681D01*
X175670765Y-124492094D01*
X175670765Y-124427906D01*
X175702859Y-124372319D01*
X175713359Y-124361819D01*
X175763076Y-124312102D01*
X175819582Y-124196518D01*
X175830500Y-124121582D01*
X175830500Y-123778418D01*
X175819582Y-123703482D01*
X175763076Y-123587898D01*
X175672102Y-123496924D01*
X175674286Y-123494739D01*
X175649253Y-123465800D01*
X175635500Y-123409041D01*
X175635500Y-123020204D01*
X175646424Y-122969313D01*
X175677273Y-122927388D01*
X175700721Y-122906615D01*
X175750483Y-122862530D01*
X175840220Y-122732523D01*
X175896237Y-122584818D01*
X175915278Y-122428000D01*
X175896237Y-122271182D01*
X175840220Y-122123477D01*
X175750483Y-121993470D01*
X175667552Y-121920000D01*
X175637856Y-121893692D01*
X175637854Y-121893690D01*
X175632240Y-121888717D01*
X175625595Y-121885229D01*
X175625593Y-121885228D01*
X175499006Y-121818789D01*
X175499002Y-121818787D01*
X175492365Y-121815304D01*
X175485087Y-121813510D01*
X175485084Y-121813509D01*
X175346267Y-121779294D01*
X175346260Y-121779293D01*
X175338985Y-121777500D01*
X175181015Y-121777500D01*
X175173740Y-121779292D01*
X175173732Y-121779294D01*
X175034915Y-121813509D01*
X175034909Y-121813510D01*
X175027635Y-121815304D01*
X175021000Y-121818786D01*
X175020993Y-121818789D01*
X174894406Y-121885228D01*
X174894400Y-121885231D01*
X174887760Y-121888717D01*
X174882148Y-121893687D01*
X174882143Y-121893692D01*
X174775127Y-121988499D01*
X174775122Y-121988503D01*
X174769517Y-121993470D01*
X174765262Y-121999634D01*
X174765257Y-121999640D01*
X174684043Y-122117300D01*
X174684040Y-122117303D01*
X174679780Y-122123477D01*
X174677120Y-122130488D01*
X174677118Y-122130494D01*
X174626423Y-122264167D01*
X174623763Y-122271182D01*
X174622859Y-122278622D01*
X174622858Y-122278629D01*
X174613282Y-122357500D01*
X174604722Y-122428000D01*
X174605626Y-122435445D01*
X174622858Y-122577370D01*
X174622859Y-122577375D01*
X174623763Y-122584818D01*
X174626422Y-122591831D01*
X174626423Y-122591832D01*
X174675003Y-122719929D01*
X174679780Y-122732523D01*
X174684043Y-122738699D01*
X174726806Y-122800653D01*
X174769517Y-122862530D01*
X174775126Y-122867499D01*
X174775127Y-122867500D01*
X174842727Y-122927388D01*
X174873576Y-122969313D01*
X174884500Y-123020204D01*
X174884500Y-123409041D01*
X174870747Y-123465800D01*
X174845713Y-123494739D01*
X174847898Y-123496924D01*
X174764190Y-123580631D01*
X174764187Y-123580634D01*
X174756924Y-123587898D01*
X174752412Y-123597126D01*
X174752410Y-123597130D01*
X174718938Y-123665599D01*
X174681662Y-123710545D01*
X174627948Y-123733447D01*
X174569708Y-123729226D01*
X174519857Y-123698819D01*
X173591057Y-122770019D01*
X173560573Y-122719929D01*
X173556513Y-122661433D01*
X173579784Y-122607611D01*
X173591700Y-122591832D01*
X173659673Y-122501821D01*
X173750582Y-122319250D01*
X173806397Y-122123083D01*
X173825215Y-121920000D01*
X173806397Y-121716917D01*
X173750582Y-121520750D01*
X173659673Y-121338179D01*
X173611176Y-121273959D01*
X173540221Y-121179998D01*
X173540217Y-121179994D01*
X173536764Y-121175421D01*
X173532527Y-121171558D01*
X173532523Y-121171554D01*
X173390275Y-121041879D01*
X173390276Y-121041879D01*
X173386041Y-121038019D01*
X173381171Y-121035004D01*
X173381169Y-121035002D01*
X173217511Y-120933670D01*
X173217512Y-120933670D01*
X173212637Y-120930652D01*
X173132356Y-120899551D01*
X173027803Y-120859047D01*
X173027798Y-120859045D01*
X173022456Y-120856976D01*
X172936029Y-120840820D01*
X172827605Y-120820552D01*
X172827602Y-120820551D01*
X172821976Y-120819500D01*
X172618024Y-120819500D01*
X172612398Y-120820551D01*
X172612394Y-120820552D01*
X172423181Y-120855922D01*
X172423178Y-120855922D01*
X172417544Y-120856976D01*
X172412203Y-120859044D01*
X172412196Y-120859047D01*
X172232705Y-120928582D01*
X172232700Y-120928584D01*
X172227363Y-120930652D01*
X172222491Y-120933668D01*
X172222488Y-120933670D01*
X172058830Y-121035002D01*
X172058822Y-121035007D01*
X172053959Y-121038019D01*
X172049728Y-121041875D01*
X172049724Y-121041879D01*
X171907476Y-121171554D01*
X171907466Y-121171564D01*
X171903236Y-121175421D01*
X171899787Y-121179987D01*
X171899778Y-121179998D01*
X171783779Y-121333607D01*
X171783776Y-121333611D01*
X171780327Y-121338179D01*
X171777774Y-121343304D01*
X171777772Y-121343309D01*
X171708464Y-121482500D01*
X171689418Y-121520750D01*
X171687850Y-121526258D01*
X171687847Y-121526268D01*
X171635173Y-121711395D01*
X171635170Y-121711406D01*
X171633603Y-121716917D01*
X171633073Y-121722627D01*
X171633073Y-121722632D01*
X171624486Y-121815304D01*
X171614785Y-121920000D01*
X171280500Y-121920000D01*
X171280500Y-121045326D01*
X171265966Y-120972260D01*
X171210601Y-120889399D01*
X171127740Y-120834034D01*
X171115760Y-120831651D01*
X171115758Y-120831650D01*
X171115308Y-120831561D01*
X171112814Y-120830430D01*
X171104480Y-120826979D01*
X171104593Y-120826706D01*
X171064013Y-120808319D01*
X171028288Y-120764787D01*
X171015500Y-120709944D01*
X171015500Y-116162500D01*
X171032113Y-116100500D01*
X171077500Y-116055113D01*
X171139500Y-116038500D01*
X171158579Y-116038500D01*
X171164674Y-116038500D01*
X171237740Y-116023966D01*
X171320601Y-115968601D01*
X171375966Y-115885740D01*
X171390500Y-115812674D01*
X171390500Y-115013326D01*
X171385102Y-114986189D01*
X171386436Y-114931870D01*
X171410867Y-114883335D01*
X171453703Y-114849905D01*
X171506720Y-114838000D01*
X171623674Y-114838000D01*
X171640000Y-114838000D01*
X171640000Y-112238000D01*
X171635625Y-112238000D01*
X171630479Y-112218796D01*
X171629578Y-112158181D01*
X171634427Y-112137662D01*
X171639646Y-112089114D01*
X171640000Y-112082518D01*
X171640000Y-111929326D01*
X171636549Y-111916450D01*
X171623674Y-111913000D01*
X169656326Y-111913000D01*
X169643450Y-111916450D01*
X169640000Y-111929326D01*
X169640000Y-112082518D01*
X169640354Y-112089127D01*
X169641603Y-112100743D01*
X169629851Y-112168180D01*
X169584108Y-112219105D01*
X169518314Y-112238000D01*
X168640000Y-112238000D01*
X168640000Y-114838000D01*
X168644374Y-114838000D01*
X168646795Y-114847035D01*
X168664044Y-114875182D01*
X168668586Y-114932898D01*
X168646431Y-114986385D01*
X168602408Y-115023985D01*
X168546113Y-115037500D01*
X166733887Y-115037500D01*
X166677592Y-115023985D01*
X166633569Y-114986385D01*
X166611414Y-114932898D01*
X166615956Y-114875182D01*
X166633204Y-114847035D01*
X166635625Y-114838000D01*
X166640000Y-114838000D01*
X166640000Y-112238000D01*
X165761686Y-112238000D01*
X165695892Y-112219105D01*
X165650149Y-112168180D01*
X165638397Y-112100743D01*
X165639645Y-112089127D01*
X165640000Y-112082518D01*
X165640000Y-111929326D01*
X165636549Y-111916450D01*
X165623674Y-111913000D01*
X163656326Y-111913000D01*
X163643450Y-111916450D01*
X163640000Y-111929326D01*
X163640000Y-112082518D01*
X163640353Y-112089114D01*
X163645572Y-112137664D01*
X163650422Y-112158185D01*
X163649520Y-112218793D01*
X163644374Y-112238000D01*
X163640000Y-112238000D01*
X163640000Y-114838000D01*
X163773280Y-114838000D01*
X163826297Y-114849905D01*
X163869133Y-114883335D01*
X163893564Y-114931870D01*
X163894898Y-114986190D01*
X163890688Y-115007351D01*
X163890687Y-115007356D01*
X163889500Y-115013326D01*
X163889500Y-115812674D01*
X163890688Y-115818649D01*
X163890689Y-115818653D01*
X163901650Y-115873759D01*
X163901651Y-115873762D01*
X163904034Y-115885740D01*
X163959399Y-115968601D01*
X164042260Y-116023966D01*
X164115326Y-116038500D01*
X165158579Y-116038500D01*
X165164674Y-116038500D01*
X165237740Y-116023966D01*
X165320601Y-115968601D01*
X165375966Y-115885740D01*
X165378349Y-115873758D01*
X165381957Y-115865049D01*
X165408837Y-115824820D01*
X165449066Y-115797939D01*
X165496519Y-115788500D01*
X169783481Y-115788500D01*
X169830934Y-115797939D01*
X169871163Y-115824820D01*
X169898043Y-115865049D01*
X169901650Y-115873759D01*
X169904034Y-115885740D01*
X169959399Y-115968601D01*
X170042260Y-116023966D01*
X170115326Y-116038500D01*
X170140500Y-116038500D01*
X170202500Y-116055113D01*
X170247887Y-116100500D01*
X170264500Y-116162500D01*
X170264500Y-120695500D01*
X170247887Y-120757500D01*
X170202500Y-120802887D01*
X170140500Y-120819500D01*
X169305326Y-120819500D01*
X169299351Y-120820688D01*
X169299346Y-120820689D01*
X169244240Y-120831650D01*
X169244235Y-120831651D01*
X169232260Y-120834034D01*
X169222105Y-120840819D01*
X169222103Y-120840820D01*
X169159551Y-120882615D01*
X169159548Y-120882617D01*
X169149399Y-120889399D01*
X169142617Y-120899548D01*
X169142615Y-120899551D01*
X169100820Y-120962103D01*
X169100819Y-120962105D01*
X169094034Y-120972260D01*
X169091651Y-120984235D01*
X169091650Y-120984240D01*
X169080689Y-121039346D01*
X169080688Y-121039351D01*
X169079500Y-121045326D01*
X169079500Y-121051421D01*
X169079500Y-121420500D01*
X169062887Y-121482500D01*
X169017500Y-121527887D01*
X168955500Y-121544500D01*
X166219185Y-121544500D01*
X166153907Y-121525927D01*
X166108185Y-121475771D01*
X166039673Y-121338179D01*
X165991176Y-121273959D01*
X165920221Y-121179998D01*
X165920217Y-121179994D01*
X165916764Y-121175421D01*
X165912527Y-121171558D01*
X165912523Y-121171554D01*
X165770275Y-121041879D01*
X165770276Y-121041879D01*
X165766041Y-121038019D01*
X165761171Y-121035004D01*
X165761169Y-121035002D01*
X165597511Y-120933670D01*
X165597512Y-120933670D01*
X165592637Y-120930652D01*
X165512356Y-120899551D01*
X165407803Y-120859047D01*
X165407798Y-120859045D01*
X165402456Y-120856976D01*
X165316029Y-120840820D01*
X165207605Y-120820552D01*
X165207602Y-120820551D01*
X165201976Y-120819500D01*
X164998024Y-120819500D01*
X164992398Y-120820551D01*
X164992394Y-120820552D01*
X164803181Y-120855922D01*
X164803178Y-120855922D01*
X164797544Y-120856976D01*
X164792203Y-120859044D01*
X164792196Y-120859047D01*
X164612705Y-120928582D01*
X164612700Y-120928584D01*
X164607363Y-120930652D01*
X164602491Y-120933668D01*
X164602488Y-120933670D01*
X164438830Y-121035002D01*
X164438822Y-121035007D01*
X164433959Y-121038019D01*
X164429728Y-121041875D01*
X164429724Y-121041879D01*
X164287476Y-121171554D01*
X164287466Y-121171564D01*
X164283236Y-121175421D01*
X164279787Y-121179987D01*
X164279778Y-121179998D01*
X164163779Y-121333607D01*
X164163776Y-121333611D01*
X164160327Y-121338179D01*
X164157774Y-121343304D01*
X164157772Y-121343309D01*
X164088464Y-121482500D01*
X164069418Y-121520750D01*
X164067850Y-121526258D01*
X164067847Y-121526268D01*
X164015173Y-121711395D01*
X164015170Y-121711406D01*
X164013603Y-121716917D01*
X164013073Y-121722627D01*
X164013073Y-121722632D01*
X164004486Y-121815304D01*
X163994785Y-121920000D01*
X163995314Y-121925709D01*
X164002164Y-121999640D01*
X164013603Y-122123083D01*
X164015171Y-122128594D01*
X164015173Y-122128604D01*
X164067847Y-122313731D01*
X164067849Y-122313737D01*
X164069418Y-122319250D01*
X164160327Y-122501821D01*
X164163779Y-122506392D01*
X164279778Y-122660001D01*
X164279783Y-122660006D01*
X164283236Y-122664579D01*
X164287472Y-122668440D01*
X164287476Y-122668445D01*
X164357767Y-122732523D01*
X164433959Y-122801981D01*
X164438829Y-122804996D01*
X164438830Y-122804997D01*
X164560890Y-122880573D01*
X164604495Y-122926664D01*
X164619592Y-122988291D01*
X164602228Y-123049318D01*
X164556950Y-123093767D01*
X164495613Y-123110000D01*
X164205482Y-123110000D01*
X164198885Y-123110353D01*
X164150332Y-123115573D01*
X164135358Y-123119111D01*
X164016222Y-123163547D01*
X164000810Y-123171962D01*
X163899907Y-123247498D01*
X163887498Y-123259907D01*
X163811962Y-123360810D01*
X163803547Y-123376222D01*
X163759111Y-123495358D01*
X163755573Y-123510332D01*
X163750353Y-123558885D01*
X163750000Y-123565482D01*
X163750000Y-124193674D01*
X163753450Y-124206549D01*
X163766326Y-124210000D01*
X166433674Y-124210000D01*
X166446549Y-124206549D01*
X166450000Y-124193674D01*
X166450000Y-123565482D01*
X166449646Y-123558885D01*
X166444426Y-123510332D01*
X166440888Y-123495358D01*
X166396452Y-123376222D01*
X166388037Y-123360810D01*
X166312501Y-123259907D01*
X166300092Y-123247498D01*
X166199189Y-123171962D01*
X166183777Y-123163547D01*
X166064641Y-123119111D01*
X166049667Y-123115573D01*
X166001114Y-123110353D01*
X165994518Y-123110000D01*
X165704387Y-123110000D01*
X165643050Y-123093767D01*
X165597772Y-123049318D01*
X165580408Y-122988291D01*
X165595505Y-122926664D01*
X165639110Y-122880573D01*
X165766041Y-122801981D01*
X165916764Y-122664579D01*
X166039673Y-122501821D01*
X166108185Y-122364228D01*
X166153907Y-122314073D01*
X166219185Y-122295500D01*
X168955500Y-122295500D01*
X169017500Y-122312113D01*
X169062887Y-122357500D01*
X169079500Y-122419500D01*
X169079500Y-122794674D01*
X169080688Y-122800649D01*
X169080689Y-122800653D01*
X169091650Y-122855759D01*
X169091651Y-122855762D01*
X169094034Y-122867740D01*
X169149399Y-122950601D01*
X169232260Y-123005966D01*
X169305326Y-123020500D01*
X169680500Y-123020500D01*
X169742500Y-123037113D01*
X169787887Y-123082500D01*
X169804500Y-123144500D01*
X169804500Y-124408195D01*
X169801860Y-124433644D01*
X169801741Y-124434209D01*
X169801740Y-124434216D01*
X169799633Y-124444268D01*
X169800903Y-124454458D01*
X169800903Y-124454462D01*
X169803548Y-124475676D01*
X169803871Y-124480891D01*
X169804077Y-124480874D01*
X169804500Y-124485981D01*
X169804500Y-124491114D01*
X169805344Y-124496172D01*
X169805345Y-124496184D01*
X169807918Y-124511603D01*
X169808657Y-124516670D01*
X169812523Y-124547681D01*
X169815134Y-124568626D01*
X169818626Y-124575770D01*
X169819935Y-124583610D01*
X169844845Y-124629641D01*
X169847171Y-124634161D01*
X169865660Y-124671979D01*
X169865661Y-124671981D01*
X169870174Y-124681211D01*
X169875797Y-124686834D01*
X169879581Y-124693826D01*
X169887138Y-124700782D01*
X169887139Y-124700784D01*
X169918082Y-124729269D01*
X169921780Y-124732817D01*
X174190141Y-129001178D01*
X174216651Y-129040523D01*
X174226445Y-129086943D01*
X174218273Y-129132620D01*
X174216682Y-129135816D01*
X174215114Y-129141324D01*
X174215113Y-129141329D01*
X174186003Y-129243641D01*
X174160178Y-129334408D01*
X174159649Y-129340113D01*
X174159649Y-129340115D01*
X174150380Y-129440144D01*
X174141127Y-129540000D01*
X174160178Y-129745592D01*
X174216682Y-129944184D01*
X174219234Y-129949310D01*
X174219236Y-129949314D01*
X174306160Y-130123881D01*
X174306162Y-130123885D01*
X174308715Y-130129011D01*
X174312166Y-130133581D01*
X174312168Y-130133584D01*
X174327867Y-130154372D01*
X174352385Y-130217658D01*
X174339915Y-130284371D01*
X174294192Y-130334527D01*
X174228914Y-130353100D01*
X171211086Y-130353100D01*
X171145808Y-130334527D01*
X171100085Y-130284371D01*
X171087615Y-130217658D01*
X171112133Y-130154372D01*
X171131285Y-130129011D01*
X171223318Y-129944184D01*
X171279822Y-129745592D01*
X171298873Y-129540000D01*
X171279822Y-129334408D01*
X171223318Y-129135816D01*
X171156276Y-129001178D01*
X171133839Y-128956118D01*
X171133838Y-128956117D01*
X171131285Y-128950989D01*
X171123809Y-128941089D01*
X171010314Y-128790797D01*
X171010310Y-128790793D01*
X171006857Y-128786220D01*
X171002620Y-128782357D01*
X171002616Y-128782353D01*
X170858506Y-128650980D01*
X170858507Y-128650980D01*
X170854272Y-128647120D01*
X170849406Y-128644107D01*
X170849402Y-128644104D01*
X170683596Y-128541442D01*
X170678725Y-128538426D01*
X170673387Y-128536358D01*
X170673383Y-128536356D01*
X170491540Y-128465910D01*
X170491539Y-128465909D01*
X170486194Y-128463839D01*
X170433988Y-128454080D01*
X170288866Y-128426952D01*
X170288863Y-128426951D01*
X170283237Y-128425900D01*
X170076763Y-128425900D01*
X170071137Y-128426951D01*
X170071133Y-128426952D01*
X169879443Y-128462785D01*
X169879440Y-128462785D01*
X169873806Y-128463839D01*
X169868463Y-128465908D01*
X169868459Y-128465910D01*
X169686616Y-128536356D01*
X169686608Y-128536359D01*
X169681275Y-128538426D01*
X169676408Y-128541439D01*
X169676403Y-128541442D01*
X169510597Y-128644104D01*
X169510587Y-128644110D01*
X169505728Y-128647120D01*
X169501497Y-128650976D01*
X169501493Y-128650980D01*
X169357383Y-128782353D01*
X169357373Y-128782363D01*
X169353143Y-128786220D01*
X169349694Y-128790786D01*
X169349685Y-128790797D01*
X169228715Y-128950989D01*
X169227610Y-128950154D01*
X169186934Y-128988635D01*
X169125307Y-129003731D01*
X169064281Y-128986367D01*
X169019833Y-128941089D01*
X169003600Y-128879752D01*
X169003600Y-128631882D01*
X169003246Y-128625285D01*
X168998026Y-128576732D01*
X168994488Y-128561758D01*
X168950052Y-128442622D01*
X168941637Y-128427210D01*
X168866101Y-128326307D01*
X168853692Y-128313898D01*
X168752789Y-128238362D01*
X168737377Y-128229947D01*
X168618241Y-128185511D01*
X168603267Y-128181973D01*
X168554714Y-128176753D01*
X168548118Y-128176400D01*
X167906326Y-128176400D01*
X167893450Y-128179850D01*
X167890000Y-128192726D01*
X167890000Y-129666000D01*
X167873387Y-129728000D01*
X167828000Y-129773387D01*
X167766000Y-129790000D01*
X164974000Y-129790000D01*
X164912000Y-129773387D01*
X164866613Y-129728000D01*
X164850000Y-129666000D01*
X164850000Y-129273674D01*
X165350000Y-129273674D01*
X165353450Y-129286549D01*
X165366326Y-129290000D01*
X167373674Y-129290000D01*
X167386549Y-129286549D01*
X167390000Y-129273674D01*
X167390000Y-128192726D01*
X167386549Y-128179850D01*
X167373674Y-128176400D01*
X166731882Y-128176400D01*
X166725285Y-128176753D01*
X166676732Y-128181973D01*
X166661758Y-128185511D01*
X166542622Y-128229947D01*
X166527210Y-128238362D01*
X166444311Y-128300421D01*
X166396358Y-128322320D01*
X166343642Y-128322320D01*
X166295689Y-128300421D01*
X166212789Y-128238362D01*
X166197377Y-128229947D01*
X166078241Y-128185511D01*
X166063267Y-128181973D01*
X166014714Y-128176753D01*
X166008118Y-128176400D01*
X165366326Y-128176400D01*
X165353450Y-128179850D01*
X165350000Y-128192726D01*
X165350000Y-129273674D01*
X164850000Y-129273674D01*
X164850000Y-128192726D01*
X164846549Y-128179850D01*
X164833674Y-128176400D01*
X164191882Y-128176400D01*
X164185285Y-128176753D01*
X164136732Y-128181973D01*
X164121758Y-128185511D01*
X164002622Y-128229947D01*
X163987210Y-128238362D01*
X163886307Y-128313898D01*
X163873898Y-128326307D01*
X163798362Y-128427210D01*
X163789947Y-128442622D01*
X163745511Y-128561758D01*
X163741973Y-128576732D01*
X163736753Y-128625285D01*
X163736400Y-128631882D01*
X163736400Y-128879752D01*
X163720167Y-128941089D01*
X163675719Y-128986367D01*
X163614693Y-129003731D01*
X163553066Y-128988635D01*
X163512389Y-128950154D01*
X163511285Y-128950989D01*
X163390314Y-128790797D01*
X163390310Y-128790793D01*
X163386857Y-128786220D01*
X163382620Y-128782357D01*
X163382616Y-128782353D01*
X163238506Y-128650980D01*
X163238507Y-128650980D01*
X163234272Y-128647120D01*
X163229406Y-128644107D01*
X163229402Y-128644104D01*
X163063596Y-128541442D01*
X163058725Y-128538426D01*
X163053387Y-128536358D01*
X163053383Y-128536356D01*
X162871540Y-128465910D01*
X162871539Y-128465909D01*
X162866194Y-128463839D01*
X162813988Y-128454080D01*
X162668866Y-128426952D01*
X162668863Y-128426951D01*
X162663237Y-128425900D01*
X162456763Y-128425900D01*
X162451137Y-128426951D01*
X162451133Y-128426952D01*
X162259443Y-128462785D01*
X162259440Y-128462785D01*
X162253806Y-128463839D01*
X162248463Y-128465908D01*
X162248459Y-128465910D01*
X162066616Y-128536356D01*
X162066608Y-128536359D01*
X162061275Y-128538426D01*
X162056408Y-128541439D01*
X162056403Y-128541442D01*
X161890597Y-128644104D01*
X161890587Y-128644110D01*
X161885728Y-128647120D01*
X161881497Y-128650976D01*
X161881493Y-128650980D01*
X161737383Y-128782353D01*
X161737373Y-128782363D01*
X161733143Y-128786220D01*
X161729694Y-128790786D01*
X161729685Y-128790797D01*
X161612167Y-128946416D01*
X161612160Y-128946426D01*
X161608715Y-128950989D01*
X161606165Y-128956109D01*
X161606160Y-128956118D01*
X161519236Y-129130685D01*
X161519232Y-129130693D01*
X161516682Y-129135816D01*
X161515113Y-129141328D01*
X161515113Y-129141330D01*
X161487831Y-129237219D01*
X161460178Y-129334408D01*
X161459649Y-129340113D01*
X161459649Y-129340115D01*
X161450380Y-129440144D01*
X161441127Y-129540000D01*
X159512500Y-129540000D01*
X159512500Y-125354518D01*
X163750000Y-125354518D01*
X163750353Y-125361114D01*
X163755573Y-125409667D01*
X163759111Y-125424641D01*
X163803547Y-125543777D01*
X163811962Y-125559189D01*
X163887498Y-125660092D01*
X163899907Y-125672501D01*
X164000810Y-125748037D01*
X164016222Y-125756452D01*
X164135358Y-125800888D01*
X164150332Y-125804426D01*
X164198885Y-125809646D01*
X164205482Y-125810000D01*
X164833674Y-125810000D01*
X164846549Y-125806549D01*
X164850000Y-125793674D01*
X165350000Y-125793674D01*
X165353450Y-125806549D01*
X165366326Y-125810000D01*
X165994518Y-125810000D01*
X166001114Y-125809646D01*
X166049667Y-125804426D01*
X166064641Y-125800888D01*
X166183777Y-125756452D01*
X166199189Y-125748037D01*
X166300092Y-125672501D01*
X166312501Y-125660092D01*
X166388037Y-125559189D01*
X166396452Y-125543777D01*
X166440888Y-125424641D01*
X166444426Y-125409667D01*
X166449646Y-125361114D01*
X166450000Y-125354518D01*
X166450000Y-124726326D01*
X166446549Y-124713450D01*
X166433674Y-124710000D01*
X165366326Y-124710000D01*
X165353450Y-124713450D01*
X165350000Y-124726326D01*
X165350000Y-125793674D01*
X164850000Y-125793674D01*
X164850000Y-124726326D01*
X164846549Y-124713450D01*
X164833674Y-124710000D01*
X163766326Y-124710000D01*
X163753450Y-124713450D01*
X163750000Y-124726326D01*
X163750000Y-125354518D01*
X159512500Y-125354518D01*
X159512500Y-111396674D01*
X163640000Y-111396674D01*
X163643450Y-111409549D01*
X163656326Y-111413000D01*
X164373674Y-111413000D01*
X164386549Y-111409549D01*
X164390000Y-111396674D01*
X164890000Y-111396674D01*
X164893450Y-111409549D01*
X164906326Y-111413000D01*
X165623674Y-111413000D01*
X165636549Y-111409549D01*
X165640000Y-111396674D01*
X169640000Y-111396674D01*
X169643450Y-111409549D01*
X169656326Y-111413000D01*
X170373674Y-111413000D01*
X170386549Y-111409549D01*
X170390000Y-111396674D01*
X170890000Y-111396674D01*
X170893450Y-111409549D01*
X170906326Y-111413000D01*
X171623674Y-111413000D01*
X171636549Y-111409549D01*
X171640000Y-111396674D01*
X171640000Y-111243482D01*
X171639646Y-111236885D01*
X171634426Y-111188332D01*
X171630888Y-111173358D01*
X171586452Y-111054222D01*
X171578037Y-111038810D01*
X171502501Y-110937907D01*
X171490092Y-110925498D01*
X171389189Y-110849962D01*
X171373777Y-110841547D01*
X171254641Y-110797111D01*
X171239667Y-110793573D01*
X171191114Y-110788353D01*
X171184518Y-110788000D01*
X170906326Y-110788000D01*
X170893450Y-110791450D01*
X170890000Y-110804326D01*
X170890000Y-111396674D01*
X170390000Y-111396674D01*
X170390000Y-110804326D01*
X170386549Y-110791450D01*
X170373674Y-110788000D01*
X170095482Y-110788000D01*
X170088885Y-110788353D01*
X170040332Y-110793573D01*
X170025358Y-110797111D01*
X169906222Y-110841547D01*
X169890810Y-110849962D01*
X169789907Y-110925498D01*
X169777498Y-110937907D01*
X169701962Y-111038810D01*
X169693547Y-111054222D01*
X169649111Y-111173358D01*
X169645573Y-111188332D01*
X169640353Y-111236885D01*
X169640000Y-111243482D01*
X169640000Y-111396674D01*
X165640000Y-111396674D01*
X165640000Y-111243482D01*
X165639646Y-111236885D01*
X165634426Y-111188332D01*
X165630888Y-111173358D01*
X165586452Y-111054222D01*
X165578037Y-111038810D01*
X165502501Y-110937907D01*
X165490092Y-110925498D01*
X165389189Y-110849962D01*
X165373777Y-110841547D01*
X165254641Y-110797111D01*
X165239667Y-110793573D01*
X165191114Y-110788353D01*
X165184518Y-110788000D01*
X164906326Y-110788000D01*
X164893450Y-110791450D01*
X164890000Y-110804326D01*
X164890000Y-111396674D01*
X164390000Y-111396674D01*
X164390000Y-110804326D01*
X164386549Y-110791450D01*
X164373674Y-110788000D01*
X164095482Y-110788000D01*
X164088885Y-110788353D01*
X164040332Y-110793573D01*
X164025358Y-110797111D01*
X163906222Y-110841547D01*
X163890810Y-110849962D01*
X163789907Y-110925498D01*
X163777498Y-110937907D01*
X163701962Y-111038810D01*
X163693547Y-111054222D01*
X163649111Y-111173358D01*
X163645573Y-111188332D01*
X163640353Y-111236885D01*
X163640000Y-111243482D01*
X163640000Y-111396674D01*
X159512500Y-111396674D01*
X159512500Y-103776674D01*
X163640000Y-103776674D01*
X163643450Y-103789549D01*
X163656326Y-103793000D01*
X164373674Y-103793000D01*
X164386549Y-103789549D01*
X164390000Y-103776674D01*
X164890000Y-103776674D01*
X164893450Y-103789549D01*
X164906326Y-103793000D01*
X165623674Y-103793000D01*
X165636549Y-103789549D01*
X165640000Y-103776674D01*
X169640000Y-103776674D01*
X169643450Y-103789549D01*
X169656326Y-103793000D01*
X170373674Y-103793000D01*
X170386549Y-103789549D01*
X170390000Y-103776674D01*
X170890000Y-103776674D01*
X170893450Y-103789549D01*
X170906326Y-103793000D01*
X171623674Y-103793000D01*
X171636549Y-103789549D01*
X171640000Y-103776674D01*
X171640000Y-103623482D01*
X171639646Y-103616885D01*
X171634426Y-103568332D01*
X171630888Y-103553358D01*
X171586452Y-103434222D01*
X171578037Y-103418810D01*
X171502501Y-103317907D01*
X171490092Y-103305498D01*
X171389189Y-103229962D01*
X171373777Y-103221547D01*
X171254641Y-103177111D01*
X171239667Y-103173573D01*
X171191114Y-103168353D01*
X171184518Y-103168000D01*
X170906326Y-103168000D01*
X170893450Y-103171450D01*
X170890000Y-103184326D01*
X170890000Y-103776674D01*
X170390000Y-103776674D01*
X170390000Y-103184326D01*
X170386549Y-103171450D01*
X170373674Y-103168000D01*
X170095482Y-103168000D01*
X170088885Y-103168353D01*
X170040332Y-103173573D01*
X170025358Y-103177111D01*
X169906222Y-103221547D01*
X169890810Y-103229962D01*
X169789907Y-103305498D01*
X169777498Y-103317907D01*
X169701962Y-103418810D01*
X169693547Y-103434222D01*
X169649111Y-103553358D01*
X169645573Y-103568332D01*
X169640353Y-103616885D01*
X169640000Y-103623482D01*
X169640000Y-103776674D01*
X165640000Y-103776674D01*
X165640000Y-103623482D01*
X165639646Y-103616885D01*
X165634426Y-103568332D01*
X165630888Y-103553358D01*
X165586452Y-103434222D01*
X165578037Y-103418810D01*
X165502501Y-103317907D01*
X165490092Y-103305498D01*
X165389189Y-103229962D01*
X165373777Y-103221547D01*
X165254641Y-103177111D01*
X165239667Y-103173573D01*
X165191114Y-103168353D01*
X165184518Y-103168000D01*
X164906326Y-103168000D01*
X164893450Y-103171450D01*
X164890000Y-103184326D01*
X164890000Y-103776674D01*
X164390000Y-103776674D01*
X164390000Y-103184326D01*
X164386549Y-103171450D01*
X164373674Y-103168000D01*
X164095482Y-103168000D01*
X164088885Y-103168353D01*
X164040332Y-103173573D01*
X164025358Y-103177111D01*
X163906222Y-103221547D01*
X163890810Y-103229962D01*
X163789907Y-103305498D01*
X163777498Y-103317907D01*
X163701962Y-103418810D01*
X163693547Y-103434222D01*
X163649111Y-103553358D01*
X163645573Y-103568332D01*
X163640353Y-103616885D01*
X163640000Y-103623482D01*
X163640000Y-103776674D01*
X159512500Y-103776674D01*
X159512500Y-96156674D01*
X163640000Y-96156674D01*
X163643450Y-96169549D01*
X163656326Y-96173000D01*
X164373674Y-96173000D01*
X164386549Y-96169549D01*
X164390000Y-96156674D01*
X164890000Y-96156674D01*
X164893450Y-96169549D01*
X164906326Y-96173000D01*
X165623674Y-96173000D01*
X165636549Y-96169549D01*
X165640000Y-96156674D01*
X169640000Y-96156674D01*
X169643450Y-96169549D01*
X169656326Y-96173000D01*
X170373674Y-96173000D01*
X170386549Y-96169549D01*
X170390000Y-96156674D01*
X170890000Y-96156674D01*
X170893450Y-96169549D01*
X170906326Y-96173000D01*
X171623674Y-96173000D01*
X171636549Y-96169549D01*
X171640000Y-96156674D01*
X171640000Y-96003482D01*
X171639646Y-95996885D01*
X171634426Y-95948332D01*
X171630888Y-95933358D01*
X171586452Y-95814222D01*
X171578037Y-95798810D01*
X171502501Y-95697907D01*
X171490092Y-95685498D01*
X171389189Y-95609962D01*
X171373777Y-95601547D01*
X171254641Y-95557111D01*
X171239667Y-95553573D01*
X171191114Y-95548353D01*
X171184518Y-95548000D01*
X170906326Y-95548000D01*
X170893450Y-95551450D01*
X170890000Y-95564326D01*
X170890000Y-96156674D01*
X170390000Y-96156674D01*
X170390000Y-95564326D01*
X170386549Y-95551450D01*
X170373674Y-95548000D01*
X170095482Y-95548000D01*
X170088885Y-95548353D01*
X170040332Y-95553573D01*
X170025358Y-95557111D01*
X169906222Y-95601547D01*
X169890810Y-95609962D01*
X169789907Y-95685498D01*
X169777498Y-95697907D01*
X169701962Y-95798810D01*
X169693547Y-95814222D01*
X169649111Y-95933358D01*
X169645573Y-95948332D01*
X169640353Y-95996885D01*
X169640000Y-96003482D01*
X169640000Y-96156674D01*
X165640000Y-96156674D01*
X165640000Y-96003482D01*
X165639646Y-95996885D01*
X165634426Y-95948332D01*
X165630888Y-95933358D01*
X165586452Y-95814222D01*
X165578037Y-95798810D01*
X165502501Y-95697907D01*
X165490092Y-95685498D01*
X165389189Y-95609962D01*
X165373777Y-95601547D01*
X165254641Y-95557111D01*
X165239667Y-95553573D01*
X165191114Y-95548353D01*
X165184518Y-95548000D01*
X164906326Y-95548000D01*
X164893450Y-95551450D01*
X164890000Y-95564326D01*
X164890000Y-96156674D01*
X164390000Y-96156674D01*
X164390000Y-95564326D01*
X164386549Y-95551450D01*
X164373674Y-95548000D01*
X164095482Y-95548000D01*
X164088885Y-95548353D01*
X164040332Y-95553573D01*
X164025358Y-95557111D01*
X163906222Y-95601547D01*
X163890810Y-95609962D01*
X163789907Y-95685498D01*
X163777498Y-95697907D01*
X163701962Y-95798810D01*
X163693547Y-95814222D01*
X163649111Y-95933358D01*
X163645573Y-95948332D01*
X163640353Y-95996885D01*
X163640000Y-96003482D01*
X163640000Y-96156674D01*
X159512500Y-96156674D01*
X159512500Y-93045975D01*
X161207517Y-93045975D01*
X161209900Y-93057955D01*
X161212425Y-93070649D01*
X161224575Y-93131734D01*
X161224576Y-93131737D01*
X161226959Y-93143715D01*
X161282324Y-93226576D01*
X161365185Y-93281941D01*
X161462925Y-93301383D01*
X161474905Y-93299000D01*
X161475619Y-93298858D01*
X161499810Y-93296475D01*
X161931436Y-93296475D01*
X161955627Y-93298858D01*
X161968321Y-93301383D01*
X161980301Y-93299000D01*
X161981015Y-93298858D01*
X162005206Y-93296475D01*
X167426191Y-93296475D01*
X167450382Y-93298858D01*
X167463076Y-93301383D01*
X167560816Y-93281941D01*
X167643677Y-93226576D01*
X167699042Y-93143715D01*
X167713576Y-93070649D01*
X167718484Y-93045975D01*
X167715959Y-93033281D01*
X167713576Y-93009090D01*
X167713576Y-92992090D01*
X169370605Y-92992090D01*
X169371180Y-93003356D01*
X169405417Y-93121200D01*
X169411565Y-93135407D01*
X169485291Y-93260071D01*
X169494782Y-93272307D01*
X169597192Y-93374717D01*
X169609428Y-93384208D01*
X169734092Y-93457934D01*
X169748299Y-93464082D01*
X169888787Y-93504898D01*
X169901191Y-93507164D01*
X169912901Y-93508085D01*
X169926293Y-93505421D01*
X169930000Y-93492279D01*
X170430000Y-93492279D01*
X170433706Y-93505421D01*
X170447098Y-93508085D01*
X170458808Y-93507164D01*
X170471212Y-93504898D01*
X170611700Y-93464082D01*
X170625907Y-93457934D01*
X170750571Y-93384208D01*
X170762807Y-93374717D01*
X170865217Y-93272307D01*
X170874708Y-93260071D01*
X170948434Y-93135407D01*
X170954582Y-93121200D01*
X170988819Y-93003356D01*
X170989394Y-92992090D01*
X171910605Y-92992090D01*
X171911180Y-93003356D01*
X171945417Y-93121200D01*
X171951565Y-93135407D01*
X172025291Y-93260071D01*
X172034782Y-93272307D01*
X172137192Y-93374717D01*
X172149428Y-93384208D01*
X172274092Y-93457934D01*
X172288299Y-93464082D01*
X172428787Y-93504898D01*
X172441191Y-93507164D01*
X172452901Y-93508085D01*
X172466293Y-93505421D01*
X172470000Y-93492279D01*
X172970000Y-93492279D01*
X172973706Y-93505421D01*
X172987098Y-93508085D01*
X172998808Y-93507164D01*
X173011212Y-93504898D01*
X173151700Y-93464082D01*
X173165907Y-93457934D01*
X173290571Y-93384208D01*
X173302807Y-93374717D01*
X173405217Y-93272307D01*
X173414708Y-93260071D01*
X173488434Y-93135407D01*
X173494582Y-93121200D01*
X173528819Y-93003356D01*
X173529394Y-92992090D01*
X174450605Y-92992090D01*
X174451180Y-93003356D01*
X174485417Y-93121200D01*
X174491565Y-93135407D01*
X174565291Y-93260071D01*
X174574782Y-93272307D01*
X174677192Y-93374717D01*
X174689428Y-93384208D01*
X174814092Y-93457934D01*
X174828299Y-93464082D01*
X174968787Y-93504898D01*
X174981191Y-93507164D01*
X174992901Y-93508085D01*
X175006293Y-93505421D01*
X175010000Y-93492279D01*
X175510000Y-93492279D01*
X175513706Y-93505421D01*
X175527098Y-93508085D01*
X175538808Y-93507164D01*
X175551212Y-93504898D01*
X175691700Y-93464082D01*
X175705907Y-93457934D01*
X175830571Y-93384208D01*
X175842807Y-93374717D01*
X175945217Y-93272307D01*
X175954708Y-93260071D01*
X176028434Y-93135407D01*
X176034582Y-93121200D01*
X176068819Y-93003356D01*
X176069394Y-92992090D01*
X176990605Y-92992090D01*
X176991180Y-93003356D01*
X177025417Y-93121200D01*
X177031565Y-93135407D01*
X177105291Y-93260071D01*
X177114782Y-93272307D01*
X177217192Y-93374717D01*
X177229428Y-93384208D01*
X177354092Y-93457934D01*
X177368299Y-93464082D01*
X177508787Y-93504898D01*
X177521191Y-93507164D01*
X177532901Y-93508085D01*
X177546293Y-93505421D01*
X177550000Y-93492279D01*
X178050000Y-93492279D01*
X178053706Y-93505421D01*
X178067098Y-93508085D01*
X178078808Y-93507164D01*
X178091212Y-93504898D01*
X178231700Y-93464082D01*
X178245907Y-93457934D01*
X178370571Y-93384208D01*
X178382807Y-93374717D01*
X178485217Y-93272307D01*
X178494708Y-93260071D01*
X178568434Y-93135407D01*
X178574582Y-93121200D01*
X178608819Y-93003356D01*
X178609394Y-92992090D01*
X179530605Y-92992090D01*
X179531180Y-93003356D01*
X179565417Y-93121200D01*
X179571565Y-93135407D01*
X179645291Y-93260071D01*
X179654782Y-93272307D01*
X179757192Y-93374717D01*
X179769428Y-93384208D01*
X179894092Y-93457934D01*
X179908299Y-93464082D01*
X180048787Y-93504898D01*
X180061191Y-93507164D01*
X180072901Y-93508085D01*
X180086293Y-93505421D01*
X180090000Y-93492279D01*
X180590000Y-93492279D01*
X180593706Y-93505421D01*
X180607098Y-93508085D01*
X180618808Y-93507164D01*
X180631212Y-93504898D01*
X180771700Y-93464082D01*
X180785907Y-93457934D01*
X180910571Y-93384208D01*
X180922807Y-93374717D01*
X181025217Y-93272307D01*
X181034708Y-93260071D01*
X181108434Y-93135407D01*
X181114582Y-93121200D01*
X181148819Y-93003356D01*
X181149394Y-92992090D01*
X182070605Y-92992090D01*
X182071180Y-93003356D01*
X182105417Y-93121200D01*
X182111565Y-93135407D01*
X182185291Y-93260071D01*
X182194782Y-93272307D01*
X182297192Y-93374717D01*
X182309428Y-93384208D01*
X182434092Y-93457934D01*
X182448299Y-93464082D01*
X182588787Y-93504898D01*
X182601191Y-93507164D01*
X182612901Y-93508085D01*
X182626293Y-93505421D01*
X182630000Y-93492279D01*
X183130000Y-93492279D01*
X183133706Y-93505421D01*
X183147098Y-93508085D01*
X183158808Y-93507164D01*
X183171212Y-93504898D01*
X183311700Y-93464082D01*
X183325907Y-93457934D01*
X183450571Y-93384208D01*
X183462807Y-93374717D01*
X183565217Y-93272307D01*
X183574708Y-93260071D01*
X183648434Y-93135407D01*
X183654582Y-93121200D01*
X183688819Y-93003356D01*
X183689394Y-92992090D01*
X183678415Y-92989500D01*
X183146326Y-92989500D01*
X183133450Y-92992950D01*
X183130000Y-93005826D01*
X183130000Y-93492279D01*
X182630000Y-93492279D01*
X182630000Y-93005826D01*
X182626549Y-92992950D01*
X182613674Y-92989500D01*
X182081585Y-92989500D01*
X182070605Y-92992090D01*
X181149394Y-92992090D01*
X181138415Y-92989500D01*
X180606326Y-92989500D01*
X180593450Y-92992950D01*
X180590000Y-93005826D01*
X180590000Y-93492279D01*
X180090000Y-93492279D01*
X180090000Y-93005826D01*
X180086549Y-92992950D01*
X180073674Y-92989500D01*
X179541585Y-92989500D01*
X179530605Y-92992090D01*
X178609394Y-92992090D01*
X178598415Y-92989500D01*
X178066326Y-92989500D01*
X178053450Y-92992950D01*
X178050000Y-93005826D01*
X178050000Y-93492279D01*
X177550000Y-93492279D01*
X177550000Y-93005826D01*
X177546549Y-92992950D01*
X177533674Y-92989500D01*
X177001585Y-92989500D01*
X176990605Y-92992090D01*
X176069394Y-92992090D01*
X176058415Y-92989500D01*
X175526326Y-92989500D01*
X175513450Y-92992950D01*
X175510000Y-93005826D01*
X175510000Y-93492279D01*
X175010000Y-93492279D01*
X175010000Y-93005826D01*
X175006549Y-92992950D01*
X174993674Y-92989500D01*
X174461585Y-92989500D01*
X174450605Y-92992090D01*
X173529394Y-92992090D01*
X173518415Y-92989500D01*
X172986326Y-92989500D01*
X172973450Y-92992950D01*
X172970000Y-93005826D01*
X172970000Y-93492279D01*
X172470000Y-93492279D01*
X172470000Y-93005826D01*
X172466549Y-92992950D01*
X172453674Y-92989500D01*
X171921585Y-92989500D01*
X171910605Y-92992090D01*
X170989394Y-92992090D01*
X170978415Y-92989500D01*
X170446326Y-92989500D01*
X170433450Y-92992950D01*
X170430000Y-93005826D01*
X170430000Y-93492279D01*
X169930000Y-93492279D01*
X169930000Y-93005826D01*
X169926549Y-92992950D01*
X169913674Y-92989500D01*
X169381585Y-92989500D01*
X169370605Y-92992090D01*
X167713576Y-92992090D01*
X167713576Y-81280000D01*
X169061127Y-81280000D01*
X169080178Y-81485592D01*
X169136682Y-81684184D01*
X169139234Y-81689310D01*
X169139236Y-81689314D01*
X169226160Y-81863881D01*
X169226162Y-81863885D01*
X169228715Y-81869011D01*
X169232164Y-81873578D01*
X169232167Y-81873583D01*
X169349685Y-82029202D01*
X169349689Y-82029207D01*
X169353143Y-82033780D01*
X169357379Y-82037641D01*
X169357383Y-82037646D01*
X169405747Y-82081735D01*
X169505728Y-82172880D01*
X169681275Y-82281574D01*
X169725298Y-82298629D01*
X169766821Y-82325232D01*
X169794692Y-82365920D01*
X169804500Y-82414253D01*
X169804500Y-87630806D01*
X169794488Y-87679619D01*
X169766070Y-87720549D01*
X169723833Y-87746988D01*
X169704862Y-87754063D01*
X169704857Y-87754065D01*
X169696550Y-87757164D01*
X169689450Y-87762478D01*
X169689446Y-87762481D01*
X169595627Y-87832713D01*
X169595623Y-87832716D01*
X169588528Y-87838028D01*
X169583216Y-87845123D01*
X169583213Y-87845127D01*
X169512981Y-87938946D01*
X169512978Y-87938950D01*
X169507664Y-87946050D01*
X169504565Y-87954357D01*
X169504563Y-87954362D01*
X169463218Y-88065212D01*
X169463216Y-88065219D01*
X169460509Y-88072478D01*
X169454500Y-88128370D01*
X169454500Y-88655630D01*
X169454852Y-88658910D01*
X169454853Y-88658916D01*
X169459680Y-88703813D01*
X169460509Y-88711522D01*
X169463216Y-88718781D01*
X169463218Y-88718787D01*
X169464472Y-88722148D01*
X169507664Y-88837950D01*
X169588528Y-88945972D01*
X169696550Y-89026836D01*
X169794363Y-89063318D01*
X169843573Y-89096967D01*
X169871393Y-89149693D01*
X169871393Y-89209307D01*
X169843573Y-89262033D01*
X169794363Y-89295681D01*
X169769995Y-89304770D01*
X169704860Y-89329064D01*
X169704856Y-89329065D01*
X169696550Y-89332164D01*
X169689450Y-89337478D01*
X169689446Y-89337481D01*
X169595627Y-89407713D01*
X169595623Y-89407716D01*
X169588528Y-89413028D01*
X169583216Y-89420123D01*
X169583213Y-89420127D01*
X169512981Y-89513946D01*
X169512978Y-89513950D01*
X169507664Y-89521050D01*
X169504565Y-89529357D01*
X169504563Y-89529362D01*
X169463218Y-89640212D01*
X169463216Y-89640219D01*
X169460509Y-89647478D01*
X169454500Y-89703370D01*
X169454500Y-90230630D01*
X169454852Y-90233910D01*
X169454853Y-90233916D01*
X169456762Y-90251668D01*
X169460509Y-90286522D01*
X169463216Y-90293781D01*
X169463218Y-90293787D01*
X169504563Y-90404637D01*
X169507664Y-90412950D01*
X169512980Y-90420051D01*
X169512981Y-90420053D01*
X169557678Y-90479761D01*
X169588528Y-90520972D01*
X169696550Y-90601836D01*
X169711369Y-90607363D01*
X169723833Y-90612012D01*
X169766070Y-90638451D01*
X169794488Y-90679381D01*
X169804500Y-90728194D01*
X169804500Y-91178541D01*
X169790747Y-91235300D01*
X169765713Y-91264239D01*
X169767898Y-91266424D01*
X169684190Y-91350131D01*
X169684187Y-91350134D01*
X169676924Y-91357398D01*
X169672412Y-91366626D01*
X169672410Y-91366630D01*
X169624648Y-91464328D01*
X169624646Y-91464331D01*
X169620418Y-91472982D01*
X169619029Y-91482510D01*
X169619029Y-91482513D01*
X169610146Y-91543480D01*
X169610145Y-91543488D01*
X169609500Y-91547918D01*
X169609500Y-91891082D01*
X169620418Y-91966018D01*
X169624648Y-91974671D01*
X169626692Y-91981285D01*
X169628580Y-92047711D01*
X169595901Y-92105574D01*
X169494779Y-92206696D01*
X169485291Y-92218928D01*
X169411565Y-92343592D01*
X169405417Y-92357799D01*
X169371180Y-92475643D01*
X169370605Y-92486909D01*
X169381585Y-92489500D01*
X170978415Y-92489500D01*
X170989394Y-92486909D01*
X170988819Y-92475643D01*
X170954582Y-92357799D01*
X170948434Y-92343592D01*
X170874708Y-92218928D01*
X170865217Y-92206692D01*
X170764100Y-92105575D01*
X170731420Y-92047713D01*
X170733308Y-91981287D01*
X170735352Y-91974669D01*
X170739582Y-91966018D01*
X170750500Y-91891082D01*
X170750500Y-91547918D01*
X170739582Y-91472982D01*
X170683076Y-91357398D01*
X170592102Y-91266424D01*
X170594286Y-91264239D01*
X170569253Y-91235300D01*
X170555500Y-91178541D01*
X170555500Y-90728194D01*
X170565512Y-90679381D01*
X170593930Y-90638451D01*
X170636167Y-90612012D01*
X170640006Y-90610580D01*
X170663450Y-90601836D01*
X170771472Y-90520972D01*
X170852336Y-90412950D01*
X170899491Y-90286522D01*
X170905500Y-90230630D01*
X170905500Y-89703370D01*
X170899491Y-89647478D01*
X170852336Y-89521050D01*
X170771472Y-89413028D01*
X170663450Y-89332164D01*
X170655139Y-89329064D01*
X170655137Y-89329063D01*
X170594615Y-89306490D01*
X170565636Y-89295681D01*
X170516426Y-89262033D01*
X170488606Y-89209307D01*
X170488606Y-89149693D01*
X170516426Y-89096967D01*
X170565636Y-89063318D01*
X170663450Y-89026836D01*
X170771472Y-88945972D01*
X170852336Y-88837950D01*
X170899491Y-88711522D01*
X170905500Y-88655630D01*
X170905500Y-88128370D01*
X170899491Y-88072478D01*
X170852336Y-87946050D01*
X170771472Y-87838028D01*
X170663450Y-87757164D01*
X170655139Y-87754064D01*
X170655137Y-87754063D01*
X170636167Y-87746988D01*
X170593930Y-87720549D01*
X170565512Y-87679619D01*
X170555500Y-87630806D01*
X170555500Y-82414253D01*
X170565308Y-82365920D01*
X170593179Y-82325232D01*
X170634701Y-82298629D01*
X170678725Y-82281574D01*
X170854272Y-82172880D01*
X171006857Y-82033780D01*
X171131285Y-81869011D01*
X171223318Y-81684184D01*
X171279822Y-81485592D01*
X171298873Y-81280000D01*
X171601127Y-81280000D01*
X171620178Y-81485592D01*
X171676682Y-81684184D01*
X171679234Y-81689310D01*
X171679236Y-81689314D01*
X171766160Y-81863881D01*
X171766162Y-81863885D01*
X171768715Y-81869011D01*
X171772164Y-81873578D01*
X171772167Y-81873583D01*
X171889685Y-82029202D01*
X171889689Y-82029207D01*
X171893143Y-82033780D01*
X171897379Y-82037641D01*
X171897383Y-82037646D01*
X171945747Y-82081735D01*
X172045728Y-82172880D01*
X172221275Y-82281574D01*
X172265298Y-82298629D01*
X172306821Y-82325232D01*
X172334692Y-82365920D01*
X172344500Y-82414253D01*
X172344500Y-87630806D01*
X172334488Y-87679619D01*
X172306070Y-87720549D01*
X172263833Y-87746988D01*
X172244862Y-87754063D01*
X172244857Y-87754065D01*
X172236550Y-87757164D01*
X172229450Y-87762478D01*
X172229446Y-87762481D01*
X172135627Y-87832713D01*
X172135623Y-87832716D01*
X172128528Y-87838028D01*
X172123216Y-87845123D01*
X172123213Y-87845127D01*
X172052981Y-87938946D01*
X172052978Y-87938950D01*
X172047664Y-87946050D01*
X172044565Y-87954357D01*
X172044563Y-87954362D01*
X172003218Y-88065212D01*
X172003216Y-88065219D01*
X172000509Y-88072478D01*
X171994500Y-88128370D01*
X171994500Y-88655630D01*
X171994852Y-88658910D01*
X171994853Y-88658916D01*
X171999680Y-88703813D01*
X172000509Y-88711522D01*
X172003216Y-88718781D01*
X172003218Y-88718787D01*
X172004472Y-88722148D01*
X172047664Y-88837950D01*
X172128528Y-88945972D01*
X172236550Y-89026836D01*
X172334363Y-89063318D01*
X172383573Y-89096967D01*
X172411393Y-89149693D01*
X172411393Y-89209307D01*
X172383573Y-89262033D01*
X172334363Y-89295681D01*
X172309995Y-89304770D01*
X172244860Y-89329064D01*
X172244856Y-89329065D01*
X172236550Y-89332164D01*
X172229450Y-89337478D01*
X172229446Y-89337481D01*
X172135627Y-89407713D01*
X172135623Y-89407716D01*
X172128528Y-89413028D01*
X172123216Y-89420123D01*
X172123213Y-89420127D01*
X172052981Y-89513946D01*
X172052978Y-89513950D01*
X172047664Y-89521050D01*
X172044565Y-89529357D01*
X172044563Y-89529362D01*
X172003218Y-89640212D01*
X172003216Y-89640219D01*
X172000509Y-89647478D01*
X171994500Y-89703370D01*
X171994500Y-90230630D01*
X171994852Y-90233910D01*
X171994853Y-90233916D01*
X171996762Y-90251668D01*
X172000509Y-90286522D01*
X172003216Y-90293781D01*
X172003218Y-90293787D01*
X172044563Y-90404637D01*
X172047664Y-90412950D01*
X172052980Y-90420051D01*
X172052981Y-90420053D01*
X172097678Y-90479761D01*
X172128528Y-90520972D01*
X172236550Y-90601836D01*
X172251369Y-90607363D01*
X172263833Y-90612012D01*
X172306070Y-90638451D01*
X172334488Y-90679381D01*
X172344500Y-90728194D01*
X172344500Y-91178541D01*
X172330747Y-91235300D01*
X172305713Y-91264239D01*
X172307898Y-91266424D01*
X172224190Y-91350131D01*
X172224187Y-91350134D01*
X172216924Y-91357398D01*
X172212412Y-91366626D01*
X172212410Y-91366630D01*
X172164648Y-91464328D01*
X172164646Y-91464331D01*
X172160418Y-91472982D01*
X172159029Y-91482510D01*
X172159029Y-91482513D01*
X172150146Y-91543480D01*
X172150145Y-91543488D01*
X172149500Y-91547918D01*
X172149500Y-91891082D01*
X172160418Y-91966018D01*
X172164648Y-91974671D01*
X172166692Y-91981285D01*
X172168580Y-92047711D01*
X172135901Y-92105574D01*
X172034779Y-92206696D01*
X172025291Y-92218928D01*
X171951565Y-92343592D01*
X171945417Y-92357799D01*
X171911180Y-92475643D01*
X171910605Y-92486909D01*
X171921585Y-92489500D01*
X173518415Y-92489500D01*
X173529394Y-92486909D01*
X173528819Y-92475643D01*
X173494582Y-92357799D01*
X173488434Y-92343592D01*
X173414708Y-92218928D01*
X173405217Y-92206692D01*
X173304100Y-92105575D01*
X173271420Y-92047713D01*
X173273308Y-91981287D01*
X173275352Y-91974669D01*
X173279582Y-91966018D01*
X173290500Y-91891082D01*
X173290500Y-91547918D01*
X173279582Y-91472982D01*
X173223076Y-91357398D01*
X173132102Y-91266424D01*
X173134286Y-91264239D01*
X173109253Y-91235300D01*
X173095500Y-91178541D01*
X173095500Y-90728194D01*
X173105512Y-90679381D01*
X173133930Y-90638451D01*
X173176167Y-90612012D01*
X173180006Y-90610580D01*
X173203450Y-90601836D01*
X173311472Y-90520972D01*
X173392336Y-90412950D01*
X173439491Y-90286522D01*
X173445500Y-90230630D01*
X173445500Y-89703370D01*
X173439491Y-89647478D01*
X173392336Y-89521050D01*
X173311472Y-89413028D01*
X173203450Y-89332164D01*
X173195139Y-89329064D01*
X173195137Y-89329063D01*
X173134615Y-89306490D01*
X173105636Y-89295681D01*
X173056426Y-89262033D01*
X173028606Y-89209307D01*
X173028606Y-89149693D01*
X173056426Y-89096967D01*
X173105636Y-89063318D01*
X173203450Y-89026836D01*
X173311472Y-88945972D01*
X173392336Y-88837950D01*
X173439491Y-88711522D01*
X173445500Y-88655630D01*
X173445500Y-88128370D01*
X173439491Y-88072478D01*
X173392336Y-87946050D01*
X173311472Y-87838028D01*
X173203450Y-87757164D01*
X173195139Y-87754064D01*
X173195137Y-87754063D01*
X173176167Y-87746988D01*
X173133930Y-87720549D01*
X173105512Y-87679619D01*
X173095500Y-87630806D01*
X173095500Y-82414253D01*
X173105308Y-82365920D01*
X173133179Y-82325232D01*
X173174701Y-82298629D01*
X173218725Y-82281574D01*
X173394272Y-82172880D01*
X173546857Y-82033780D01*
X173671285Y-81869011D01*
X173763318Y-81684184D01*
X173819822Y-81485592D01*
X173838873Y-81280000D01*
X174141127Y-81280000D01*
X174160178Y-81485592D01*
X174216682Y-81684184D01*
X174219234Y-81689310D01*
X174219236Y-81689314D01*
X174306160Y-81863881D01*
X174306162Y-81863885D01*
X174308715Y-81869011D01*
X174312164Y-81873578D01*
X174312167Y-81873583D01*
X174429685Y-82029202D01*
X174429689Y-82029207D01*
X174433143Y-82033780D01*
X174437379Y-82037641D01*
X174437383Y-82037646D01*
X174485747Y-82081735D01*
X174585728Y-82172880D01*
X174761275Y-82281574D01*
X174805298Y-82298629D01*
X174846821Y-82325232D01*
X174874692Y-82365920D01*
X174884500Y-82414253D01*
X174884500Y-87630806D01*
X174874488Y-87679619D01*
X174846070Y-87720549D01*
X174803833Y-87746988D01*
X174784862Y-87754063D01*
X174784857Y-87754065D01*
X174776550Y-87757164D01*
X174769450Y-87762478D01*
X174769446Y-87762481D01*
X174675627Y-87832713D01*
X174675623Y-87832716D01*
X174668528Y-87838028D01*
X174663216Y-87845123D01*
X174663213Y-87845127D01*
X174592981Y-87938946D01*
X174592978Y-87938950D01*
X174587664Y-87946050D01*
X174584565Y-87954357D01*
X174584563Y-87954362D01*
X174543218Y-88065212D01*
X174543216Y-88065219D01*
X174540509Y-88072478D01*
X174534500Y-88128370D01*
X174534500Y-88655630D01*
X174534852Y-88658910D01*
X174534853Y-88658916D01*
X174539680Y-88703813D01*
X174540509Y-88711522D01*
X174543216Y-88718781D01*
X174543218Y-88718787D01*
X174544472Y-88722148D01*
X174587664Y-88837950D01*
X174668528Y-88945972D01*
X174776550Y-89026836D01*
X174874363Y-89063318D01*
X174923573Y-89096967D01*
X174951393Y-89149693D01*
X174951393Y-89209307D01*
X174923573Y-89262033D01*
X174874363Y-89295681D01*
X174849995Y-89304770D01*
X174784860Y-89329064D01*
X174784856Y-89329065D01*
X174776550Y-89332164D01*
X174769450Y-89337478D01*
X174769446Y-89337481D01*
X174675627Y-89407713D01*
X174675623Y-89407716D01*
X174668528Y-89413028D01*
X174663216Y-89420123D01*
X174663213Y-89420127D01*
X174592981Y-89513946D01*
X174592978Y-89513950D01*
X174587664Y-89521050D01*
X174584565Y-89529357D01*
X174584563Y-89529362D01*
X174543218Y-89640212D01*
X174543216Y-89640219D01*
X174540509Y-89647478D01*
X174534500Y-89703370D01*
X174534500Y-90230630D01*
X174534852Y-90233910D01*
X174534853Y-90233916D01*
X174536762Y-90251668D01*
X174540509Y-90286522D01*
X174543216Y-90293781D01*
X174543218Y-90293787D01*
X174584563Y-90404637D01*
X174587664Y-90412950D01*
X174592980Y-90420051D01*
X174592981Y-90420053D01*
X174637678Y-90479761D01*
X174668528Y-90520972D01*
X174776550Y-90601836D01*
X174791369Y-90607363D01*
X174803833Y-90612012D01*
X174846070Y-90638451D01*
X174874488Y-90679381D01*
X174884500Y-90728194D01*
X174884500Y-91178541D01*
X174870747Y-91235300D01*
X174845713Y-91264239D01*
X174847898Y-91266424D01*
X174764190Y-91350131D01*
X174764187Y-91350134D01*
X174756924Y-91357398D01*
X174752412Y-91366626D01*
X174752410Y-91366630D01*
X174704648Y-91464328D01*
X174704646Y-91464331D01*
X174700418Y-91472982D01*
X174699029Y-91482510D01*
X174699029Y-91482513D01*
X174690146Y-91543480D01*
X174690145Y-91543488D01*
X174689500Y-91547918D01*
X174689500Y-91891082D01*
X174700418Y-91966018D01*
X174704648Y-91974671D01*
X174706692Y-91981285D01*
X174708580Y-92047711D01*
X174675901Y-92105574D01*
X174574779Y-92206696D01*
X174565291Y-92218928D01*
X174491565Y-92343592D01*
X174485417Y-92357799D01*
X174451180Y-92475643D01*
X174450605Y-92486909D01*
X174461585Y-92489500D01*
X176058415Y-92489500D01*
X176069394Y-92486909D01*
X176068819Y-92475643D01*
X176034582Y-92357799D01*
X176028434Y-92343592D01*
X175954708Y-92218928D01*
X175945217Y-92206692D01*
X175844100Y-92105575D01*
X175811420Y-92047713D01*
X175813308Y-91981287D01*
X175815352Y-91974669D01*
X175819582Y-91966018D01*
X175830500Y-91891082D01*
X175830500Y-91547918D01*
X175819582Y-91472982D01*
X175763076Y-91357398D01*
X175672102Y-91266424D01*
X175674286Y-91264239D01*
X175649253Y-91235300D01*
X175635500Y-91178541D01*
X175635500Y-90728194D01*
X175645512Y-90679381D01*
X175673930Y-90638451D01*
X175716167Y-90612012D01*
X175720006Y-90610580D01*
X175743450Y-90601836D01*
X175851472Y-90520972D01*
X175932336Y-90412950D01*
X175979491Y-90286522D01*
X175985500Y-90230630D01*
X175985500Y-89703370D01*
X175979491Y-89647478D01*
X175932336Y-89521050D01*
X175851472Y-89413028D01*
X175743450Y-89332164D01*
X175735139Y-89329064D01*
X175735137Y-89329063D01*
X175674615Y-89306490D01*
X175645636Y-89295681D01*
X175596426Y-89262033D01*
X175568606Y-89209307D01*
X175568606Y-89149693D01*
X175596426Y-89096967D01*
X175645636Y-89063318D01*
X175743450Y-89026836D01*
X175851472Y-88945972D01*
X175932336Y-88837950D01*
X175979491Y-88711522D01*
X175985500Y-88655630D01*
X175985500Y-88128370D01*
X175979491Y-88072478D01*
X175932336Y-87946050D01*
X175851472Y-87838028D01*
X175743450Y-87757164D01*
X175735139Y-87754064D01*
X175735137Y-87754063D01*
X175716167Y-87746988D01*
X175673930Y-87720549D01*
X175645512Y-87679619D01*
X175635500Y-87630806D01*
X175635500Y-82414253D01*
X175645308Y-82365920D01*
X175673179Y-82325232D01*
X175714701Y-82298629D01*
X175758725Y-82281574D01*
X175934272Y-82172880D01*
X176086857Y-82033780D01*
X176211285Y-81869011D01*
X176303318Y-81684184D01*
X176359822Y-81485592D01*
X176378873Y-81280000D01*
X176681127Y-81280000D01*
X176700178Y-81485592D01*
X176756682Y-81684184D01*
X176759234Y-81689310D01*
X176759236Y-81689314D01*
X176846160Y-81863881D01*
X176846162Y-81863885D01*
X176848715Y-81869011D01*
X176852164Y-81873578D01*
X176852167Y-81873583D01*
X176969685Y-82029202D01*
X176969689Y-82029207D01*
X176973143Y-82033780D01*
X176977379Y-82037641D01*
X176977383Y-82037646D01*
X177025747Y-82081735D01*
X177125728Y-82172880D01*
X177301275Y-82281574D01*
X177345298Y-82298629D01*
X177386821Y-82325232D01*
X177414692Y-82365920D01*
X177424500Y-82414253D01*
X177424500Y-87630806D01*
X177414488Y-87679619D01*
X177386070Y-87720549D01*
X177343833Y-87746988D01*
X177324862Y-87754063D01*
X177324857Y-87754065D01*
X177316550Y-87757164D01*
X177309450Y-87762478D01*
X177309446Y-87762481D01*
X177215627Y-87832713D01*
X177215623Y-87832716D01*
X177208528Y-87838028D01*
X177203216Y-87845123D01*
X177203213Y-87845127D01*
X177132981Y-87938946D01*
X177132978Y-87938950D01*
X177127664Y-87946050D01*
X177124565Y-87954357D01*
X177124563Y-87954362D01*
X177083218Y-88065212D01*
X177083216Y-88065219D01*
X177080509Y-88072478D01*
X177074500Y-88128370D01*
X177074500Y-88655630D01*
X177074852Y-88658910D01*
X177074853Y-88658916D01*
X177079680Y-88703813D01*
X177080509Y-88711522D01*
X177083216Y-88718781D01*
X177083218Y-88718787D01*
X177084472Y-88722148D01*
X177127664Y-88837950D01*
X177208528Y-88945972D01*
X177316550Y-89026836D01*
X177414363Y-89063318D01*
X177463573Y-89096967D01*
X177491393Y-89149693D01*
X177491393Y-89209307D01*
X177463573Y-89262033D01*
X177414363Y-89295681D01*
X177389995Y-89304770D01*
X177324860Y-89329064D01*
X177324856Y-89329065D01*
X177316550Y-89332164D01*
X177309450Y-89337478D01*
X177309446Y-89337481D01*
X177215627Y-89407713D01*
X177215623Y-89407716D01*
X177208528Y-89413028D01*
X177203216Y-89420123D01*
X177203213Y-89420127D01*
X177132981Y-89513946D01*
X177132978Y-89513950D01*
X177127664Y-89521050D01*
X177124565Y-89529357D01*
X177124563Y-89529362D01*
X177083218Y-89640212D01*
X177083216Y-89640219D01*
X177080509Y-89647478D01*
X177074500Y-89703370D01*
X177074500Y-90230630D01*
X177074852Y-90233910D01*
X177074853Y-90233916D01*
X177076762Y-90251668D01*
X177080509Y-90286522D01*
X177083216Y-90293781D01*
X177083218Y-90293787D01*
X177124563Y-90404637D01*
X177127664Y-90412950D01*
X177132980Y-90420051D01*
X177132981Y-90420053D01*
X177177678Y-90479761D01*
X177208528Y-90520972D01*
X177316550Y-90601836D01*
X177331369Y-90607363D01*
X177343833Y-90612012D01*
X177386070Y-90638451D01*
X177414488Y-90679381D01*
X177424500Y-90728194D01*
X177424500Y-91178541D01*
X177410747Y-91235300D01*
X177385713Y-91264239D01*
X177387898Y-91266424D01*
X177304190Y-91350131D01*
X177304187Y-91350134D01*
X177296924Y-91357398D01*
X177292412Y-91366626D01*
X177292410Y-91366630D01*
X177244648Y-91464328D01*
X177244646Y-91464331D01*
X177240418Y-91472982D01*
X177239029Y-91482510D01*
X177239029Y-91482513D01*
X177230146Y-91543480D01*
X177230145Y-91543488D01*
X177229500Y-91547918D01*
X177229500Y-91891082D01*
X177240418Y-91966018D01*
X177244648Y-91974671D01*
X177246692Y-91981285D01*
X177248580Y-92047711D01*
X177215901Y-92105574D01*
X177114779Y-92206696D01*
X177105291Y-92218928D01*
X177031565Y-92343592D01*
X177025417Y-92357799D01*
X176991180Y-92475643D01*
X176990605Y-92486909D01*
X177001585Y-92489500D01*
X178598415Y-92489500D01*
X178609394Y-92486909D01*
X178608819Y-92475643D01*
X178574582Y-92357799D01*
X178568434Y-92343592D01*
X178494708Y-92218928D01*
X178485217Y-92206692D01*
X178384100Y-92105575D01*
X178351420Y-92047713D01*
X178353308Y-91981287D01*
X178355352Y-91974669D01*
X178359582Y-91966018D01*
X178370500Y-91891082D01*
X178370500Y-91547918D01*
X178359582Y-91472982D01*
X178303076Y-91357398D01*
X178212102Y-91266424D01*
X178214286Y-91264239D01*
X178189253Y-91235300D01*
X178175500Y-91178541D01*
X178175500Y-90728194D01*
X178185512Y-90679381D01*
X178213930Y-90638451D01*
X178256167Y-90612012D01*
X178260006Y-90610580D01*
X178283450Y-90601836D01*
X178391472Y-90520972D01*
X178472336Y-90412950D01*
X178519491Y-90286522D01*
X178525500Y-90230630D01*
X178525500Y-89703370D01*
X178519491Y-89647478D01*
X178472336Y-89521050D01*
X178391472Y-89413028D01*
X178283450Y-89332164D01*
X178275139Y-89329064D01*
X178275137Y-89329063D01*
X178214615Y-89306490D01*
X178185636Y-89295681D01*
X178136426Y-89262033D01*
X178108606Y-89209307D01*
X178108606Y-89149693D01*
X178136426Y-89096967D01*
X178185636Y-89063318D01*
X178283450Y-89026836D01*
X178391472Y-88945972D01*
X178472336Y-88837950D01*
X178519491Y-88711522D01*
X178525500Y-88655630D01*
X178525500Y-88128370D01*
X178519491Y-88072478D01*
X178472336Y-87946050D01*
X178391472Y-87838028D01*
X178283450Y-87757164D01*
X178275139Y-87754064D01*
X178275137Y-87754063D01*
X178256167Y-87746988D01*
X178213930Y-87720549D01*
X178185512Y-87679619D01*
X178175500Y-87630806D01*
X178175500Y-82414253D01*
X178185308Y-82365920D01*
X178213179Y-82325232D01*
X178254701Y-82298629D01*
X178298725Y-82281574D01*
X178474272Y-82172880D01*
X178626857Y-82033780D01*
X178751285Y-81869011D01*
X178843318Y-81684184D01*
X178899822Y-81485592D01*
X178918873Y-81280000D01*
X179221127Y-81280000D01*
X179240178Y-81485592D01*
X179296682Y-81684184D01*
X179299234Y-81689310D01*
X179299236Y-81689314D01*
X179386160Y-81863881D01*
X179386162Y-81863885D01*
X179388715Y-81869011D01*
X179392164Y-81873578D01*
X179392167Y-81873583D01*
X179509685Y-82029202D01*
X179509689Y-82029207D01*
X179513143Y-82033780D01*
X179517379Y-82037641D01*
X179517383Y-82037646D01*
X179565747Y-82081735D01*
X179665728Y-82172880D01*
X179841275Y-82281574D01*
X179885298Y-82298629D01*
X179926821Y-82325232D01*
X179954692Y-82365920D01*
X179964500Y-82414253D01*
X179964500Y-87630806D01*
X179954488Y-87679619D01*
X179926070Y-87720549D01*
X179883833Y-87746988D01*
X179864862Y-87754063D01*
X179864857Y-87754065D01*
X179856550Y-87757164D01*
X179849450Y-87762478D01*
X179849446Y-87762481D01*
X179755627Y-87832713D01*
X179755623Y-87832716D01*
X179748528Y-87838028D01*
X179743216Y-87845123D01*
X179743213Y-87845127D01*
X179672981Y-87938946D01*
X179672978Y-87938950D01*
X179667664Y-87946050D01*
X179664565Y-87954357D01*
X179664563Y-87954362D01*
X179623218Y-88065212D01*
X179623216Y-88065219D01*
X179620509Y-88072478D01*
X179614500Y-88128370D01*
X179614500Y-88655630D01*
X179614852Y-88658910D01*
X179614853Y-88658916D01*
X179619680Y-88703813D01*
X179620509Y-88711522D01*
X179623216Y-88718781D01*
X179623218Y-88718787D01*
X179624472Y-88722148D01*
X179667664Y-88837950D01*
X179748528Y-88945972D01*
X179856550Y-89026836D01*
X179954363Y-89063318D01*
X180003573Y-89096967D01*
X180031393Y-89149693D01*
X180031393Y-89209307D01*
X180003573Y-89262033D01*
X179954363Y-89295681D01*
X179929995Y-89304770D01*
X179864860Y-89329064D01*
X179864856Y-89329065D01*
X179856550Y-89332164D01*
X179849450Y-89337478D01*
X179849446Y-89337481D01*
X179755627Y-89407713D01*
X179755623Y-89407716D01*
X179748528Y-89413028D01*
X179743216Y-89420123D01*
X179743213Y-89420127D01*
X179672981Y-89513946D01*
X179672978Y-89513950D01*
X179667664Y-89521050D01*
X179664565Y-89529357D01*
X179664563Y-89529362D01*
X179623218Y-89640212D01*
X179623216Y-89640219D01*
X179620509Y-89647478D01*
X179614500Y-89703370D01*
X179614500Y-90230630D01*
X179614852Y-90233910D01*
X179614853Y-90233916D01*
X179616762Y-90251668D01*
X179620509Y-90286522D01*
X179623216Y-90293781D01*
X179623218Y-90293787D01*
X179664563Y-90404637D01*
X179667664Y-90412950D01*
X179672980Y-90420051D01*
X179672981Y-90420053D01*
X179717678Y-90479761D01*
X179748528Y-90520972D01*
X179856550Y-90601836D01*
X179871369Y-90607363D01*
X179883833Y-90612012D01*
X179926070Y-90638451D01*
X179954488Y-90679381D01*
X179964500Y-90728194D01*
X179964500Y-91178541D01*
X179950747Y-91235300D01*
X179925713Y-91264239D01*
X179927898Y-91266424D01*
X179844190Y-91350131D01*
X179844187Y-91350134D01*
X179836924Y-91357398D01*
X179832412Y-91366626D01*
X179832410Y-91366630D01*
X179784648Y-91464328D01*
X179784646Y-91464331D01*
X179780418Y-91472982D01*
X179779029Y-91482510D01*
X179779029Y-91482513D01*
X179770146Y-91543480D01*
X179770145Y-91543488D01*
X179769500Y-91547918D01*
X179769500Y-91891082D01*
X179780418Y-91966018D01*
X179784648Y-91974671D01*
X179786692Y-91981285D01*
X179788580Y-92047711D01*
X179755901Y-92105574D01*
X179654779Y-92206696D01*
X179645291Y-92218928D01*
X179571565Y-92343592D01*
X179565417Y-92357799D01*
X179531180Y-92475643D01*
X179530605Y-92486909D01*
X179541585Y-92489500D01*
X181138415Y-92489500D01*
X181149394Y-92486909D01*
X181148819Y-92475643D01*
X181114582Y-92357799D01*
X181108434Y-92343592D01*
X181034708Y-92218928D01*
X181025217Y-92206692D01*
X180924100Y-92105575D01*
X180891420Y-92047713D01*
X180893308Y-91981287D01*
X180895352Y-91974669D01*
X180899582Y-91966018D01*
X180910500Y-91891082D01*
X180910500Y-91547918D01*
X180899582Y-91472982D01*
X180843076Y-91357398D01*
X180752102Y-91266424D01*
X180754286Y-91264239D01*
X180729253Y-91235300D01*
X180715500Y-91178541D01*
X180715500Y-90728194D01*
X180725512Y-90679381D01*
X180753930Y-90638451D01*
X180796167Y-90612012D01*
X180800006Y-90610580D01*
X180823450Y-90601836D01*
X180931472Y-90520972D01*
X181012336Y-90412950D01*
X181059491Y-90286522D01*
X181065500Y-90230630D01*
X181065500Y-89703370D01*
X181059491Y-89647478D01*
X181012336Y-89521050D01*
X180931472Y-89413028D01*
X180823450Y-89332164D01*
X180815139Y-89329064D01*
X180815137Y-89329063D01*
X180754615Y-89306490D01*
X180725636Y-89295681D01*
X180676426Y-89262033D01*
X180648606Y-89209307D01*
X180648606Y-89149693D01*
X180676426Y-89096967D01*
X180725636Y-89063318D01*
X180823450Y-89026836D01*
X180931472Y-88945972D01*
X181012336Y-88837950D01*
X181059491Y-88711522D01*
X181065500Y-88655630D01*
X181065500Y-88128370D01*
X181059491Y-88072478D01*
X181012336Y-87946050D01*
X180931472Y-87838028D01*
X180823450Y-87757164D01*
X180815139Y-87754064D01*
X180815137Y-87754063D01*
X180796167Y-87746988D01*
X180753930Y-87720549D01*
X180725512Y-87679619D01*
X180715500Y-87630806D01*
X180715500Y-82414253D01*
X180725308Y-82365920D01*
X180753179Y-82325232D01*
X180794701Y-82298629D01*
X180838725Y-82281574D01*
X181014272Y-82172880D01*
X181166857Y-82033780D01*
X181291285Y-81869011D01*
X181383318Y-81684184D01*
X181439822Y-81485592D01*
X181458873Y-81280000D01*
X181761127Y-81280000D01*
X181780178Y-81485592D01*
X181836682Y-81684184D01*
X181839234Y-81689310D01*
X181839236Y-81689314D01*
X181926160Y-81863881D01*
X181926162Y-81863885D01*
X181928715Y-81869011D01*
X181932164Y-81873578D01*
X181932167Y-81873583D01*
X182049685Y-82029202D01*
X182049689Y-82029207D01*
X182053143Y-82033780D01*
X182057379Y-82037641D01*
X182057383Y-82037646D01*
X182105747Y-82081735D01*
X182205728Y-82172880D01*
X182381275Y-82281574D01*
X182425298Y-82298629D01*
X182466821Y-82325232D01*
X182494692Y-82365920D01*
X182504500Y-82414253D01*
X182504500Y-87630806D01*
X182494488Y-87679619D01*
X182466070Y-87720549D01*
X182423833Y-87746988D01*
X182404862Y-87754063D01*
X182404857Y-87754065D01*
X182396550Y-87757164D01*
X182389450Y-87762478D01*
X182389446Y-87762481D01*
X182295627Y-87832713D01*
X182295623Y-87832716D01*
X182288528Y-87838028D01*
X182283216Y-87845123D01*
X182283213Y-87845127D01*
X182212981Y-87938946D01*
X182212978Y-87938950D01*
X182207664Y-87946050D01*
X182204565Y-87954357D01*
X182204563Y-87954362D01*
X182163218Y-88065212D01*
X182163216Y-88065219D01*
X182160509Y-88072478D01*
X182154500Y-88128370D01*
X182154500Y-88655630D01*
X182154852Y-88658910D01*
X182154853Y-88658916D01*
X182159680Y-88703813D01*
X182160509Y-88711522D01*
X182163216Y-88718781D01*
X182163218Y-88718787D01*
X182164472Y-88722148D01*
X182207664Y-88837950D01*
X182288528Y-88945972D01*
X182396550Y-89026836D01*
X182494363Y-89063318D01*
X182543573Y-89096967D01*
X182571393Y-89149693D01*
X182571393Y-89209307D01*
X182543573Y-89262033D01*
X182494363Y-89295681D01*
X182469995Y-89304770D01*
X182404860Y-89329064D01*
X182404856Y-89329065D01*
X182396550Y-89332164D01*
X182389450Y-89337478D01*
X182389446Y-89337481D01*
X182295627Y-89407713D01*
X182295623Y-89407716D01*
X182288528Y-89413028D01*
X182283216Y-89420123D01*
X182283213Y-89420127D01*
X182212981Y-89513946D01*
X182212978Y-89513950D01*
X182207664Y-89521050D01*
X182204565Y-89529357D01*
X182204563Y-89529362D01*
X182163218Y-89640212D01*
X182163216Y-89640219D01*
X182160509Y-89647478D01*
X182154500Y-89703370D01*
X182154500Y-90230630D01*
X182154852Y-90233910D01*
X182154853Y-90233916D01*
X182156762Y-90251668D01*
X182160509Y-90286522D01*
X182163216Y-90293781D01*
X182163218Y-90293787D01*
X182204563Y-90404637D01*
X182207664Y-90412950D01*
X182212980Y-90420051D01*
X182212981Y-90420053D01*
X182257678Y-90479761D01*
X182288528Y-90520972D01*
X182396550Y-90601836D01*
X182411369Y-90607363D01*
X182423833Y-90612012D01*
X182466070Y-90638451D01*
X182494488Y-90679381D01*
X182504500Y-90728194D01*
X182504500Y-91178541D01*
X182490747Y-91235300D01*
X182465713Y-91264239D01*
X182467898Y-91266424D01*
X182384190Y-91350131D01*
X182384187Y-91350134D01*
X182376924Y-91357398D01*
X182372412Y-91366626D01*
X182372410Y-91366630D01*
X182324648Y-91464328D01*
X182324646Y-91464331D01*
X182320418Y-91472982D01*
X182319029Y-91482510D01*
X182319029Y-91482513D01*
X182310146Y-91543480D01*
X182310145Y-91543488D01*
X182309500Y-91547918D01*
X182309500Y-91891082D01*
X182320418Y-91966018D01*
X182324648Y-91974671D01*
X182326692Y-91981285D01*
X182328580Y-92047711D01*
X182295901Y-92105574D01*
X182194779Y-92206696D01*
X182185291Y-92218928D01*
X182111565Y-92343592D01*
X182105417Y-92357799D01*
X182071180Y-92475643D01*
X182070605Y-92486909D01*
X182081585Y-92489500D01*
X183678415Y-92489500D01*
X183689394Y-92486909D01*
X183688819Y-92475643D01*
X183654582Y-92357799D01*
X183648434Y-92343592D01*
X183574708Y-92218928D01*
X183565217Y-92206692D01*
X183464100Y-92105575D01*
X183431420Y-92047713D01*
X183433308Y-91981287D01*
X183435352Y-91974669D01*
X183439582Y-91966018D01*
X183450500Y-91891082D01*
X183450500Y-91547918D01*
X183439582Y-91472982D01*
X183383076Y-91357398D01*
X183292102Y-91266424D01*
X183294286Y-91264239D01*
X183269253Y-91235300D01*
X183255500Y-91178541D01*
X183255500Y-90728194D01*
X183265512Y-90679381D01*
X183293930Y-90638451D01*
X183336167Y-90612012D01*
X183340006Y-90610580D01*
X183363450Y-90601836D01*
X183471472Y-90520972D01*
X183552336Y-90412950D01*
X183599491Y-90286522D01*
X183605500Y-90230630D01*
X183605500Y-89703370D01*
X183599491Y-89647478D01*
X183552336Y-89521050D01*
X183471472Y-89413028D01*
X183363450Y-89332164D01*
X183355139Y-89329064D01*
X183355137Y-89329063D01*
X183294615Y-89306490D01*
X183265636Y-89295681D01*
X183216426Y-89262033D01*
X183188606Y-89209307D01*
X183188606Y-89149693D01*
X183216426Y-89096967D01*
X183265636Y-89063318D01*
X183363450Y-89026836D01*
X183471472Y-88945972D01*
X183552336Y-88837950D01*
X183599491Y-88711522D01*
X183605500Y-88655630D01*
X183605500Y-88128370D01*
X183599491Y-88072478D01*
X183552336Y-87946050D01*
X183471472Y-87838028D01*
X183363450Y-87757164D01*
X183355139Y-87754064D01*
X183355137Y-87754063D01*
X183336167Y-87746988D01*
X183293930Y-87720549D01*
X183265512Y-87679619D01*
X183255500Y-87630806D01*
X183255500Y-82414253D01*
X183265308Y-82365920D01*
X183293179Y-82325232D01*
X183334701Y-82298629D01*
X183378725Y-82281574D01*
X183554272Y-82172880D01*
X183706857Y-82033780D01*
X183831285Y-81869011D01*
X183923318Y-81684184D01*
X183979822Y-81485592D01*
X183998873Y-81280000D01*
X184301127Y-81280000D01*
X184320178Y-81485592D01*
X184376682Y-81684184D01*
X184379234Y-81689310D01*
X184379236Y-81689314D01*
X184466160Y-81863881D01*
X184466162Y-81863885D01*
X184468715Y-81869011D01*
X184472164Y-81873578D01*
X184472167Y-81873583D01*
X184589685Y-82029202D01*
X184589689Y-82029207D01*
X184593143Y-82033780D01*
X184597379Y-82037641D01*
X184597383Y-82037646D01*
X184645747Y-82081735D01*
X184745728Y-82172880D01*
X184921275Y-82281574D01*
X185113806Y-82356161D01*
X185316763Y-82394100D01*
X185517508Y-82394100D01*
X185523237Y-82394100D01*
X185726194Y-82356161D01*
X185918725Y-82281574D01*
X186094272Y-82172880D01*
X186246857Y-82033780D01*
X186371285Y-81869011D01*
X186463318Y-81684184D01*
X186519822Y-81485592D01*
X186538873Y-81280000D01*
X186841127Y-81280000D01*
X186860178Y-81485592D01*
X186916682Y-81684184D01*
X186919234Y-81689310D01*
X186919236Y-81689314D01*
X187006160Y-81863881D01*
X187006162Y-81863885D01*
X187008715Y-81869011D01*
X187012164Y-81873578D01*
X187012167Y-81873583D01*
X187129685Y-82029202D01*
X187129689Y-82029207D01*
X187133143Y-82033780D01*
X187137379Y-82037641D01*
X187137383Y-82037646D01*
X187185747Y-82081735D01*
X187285728Y-82172880D01*
X187461275Y-82281574D01*
X187653806Y-82356161D01*
X187856763Y-82394100D01*
X188057508Y-82394100D01*
X188063237Y-82394100D01*
X188266194Y-82356161D01*
X188458725Y-82281574D01*
X188634272Y-82172880D01*
X188786857Y-82033780D01*
X188911285Y-81869011D01*
X189003318Y-81684184D01*
X189059822Y-81485592D01*
X189078873Y-81280000D01*
X189059822Y-81074408D01*
X189003318Y-80875816D01*
X188911285Y-80690989D01*
X188907832Y-80686416D01*
X188790314Y-80530797D01*
X188790310Y-80530793D01*
X188786857Y-80526220D01*
X188782620Y-80522357D01*
X188782616Y-80522353D01*
X188638506Y-80390980D01*
X188638507Y-80390980D01*
X188634272Y-80387120D01*
X188629406Y-80384107D01*
X188629402Y-80384104D01*
X188463596Y-80281442D01*
X188458725Y-80278426D01*
X188453387Y-80276358D01*
X188453383Y-80276356D01*
X188271540Y-80205910D01*
X188271539Y-80205909D01*
X188266194Y-80203839D01*
X188260556Y-80202785D01*
X188068866Y-80166952D01*
X188068863Y-80166951D01*
X188063237Y-80165900D01*
X187856763Y-80165900D01*
X187851137Y-80166951D01*
X187851133Y-80166952D01*
X187659443Y-80202785D01*
X187659440Y-80202785D01*
X187653806Y-80203839D01*
X187648463Y-80205908D01*
X187648459Y-80205910D01*
X187466616Y-80276356D01*
X187466608Y-80276359D01*
X187461275Y-80278426D01*
X187456408Y-80281439D01*
X187456403Y-80281442D01*
X187290597Y-80384104D01*
X187290587Y-80384110D01*
X187285728Y-80387120D01*
X187281497Y-80390976D01*
X187281493Y-80390980D01*
X187137383Y-80522353D01*
X187137373Y-80522363D01*
X187133143Y-80526220D01*
X187129694Y-80530786D01*
X187129685Y-80530797D01*
X187012167Y-80686416D01*
X187012160Y-80686426D01*
X187008715Y-80690989D01*
X187006165Y-80696109D01*
X187006160Y-80696118D01*
X186919236Y-80870685D01*
X186919232Y-80870693D01*
X186916682Y-80875816D01*
X186860178Y-81074408D01*
X186841127Y-81280000D01*
X186538873Y-81280000D01*
X186519822Y-81074408D01*
X186463318Y-80875816D01*
X186371285Y-80690989D01*
X186367832Y-80686416D01*
X186250314Y-80530797D01*
X186250310Y-80530793D01*
X186246857Y-80526220D01*
X186242620Y-80522357D01*
X186242616Y-80522353D01*
X186098506Y-80390980D01*
X186098507Y-80390980D01*
X186094272Y-80387120D01*
X186089406Y-80384107D01*
X186089402Y-80384104D01*
X185923596Y-80281442D01*
X185918725Y-80278426D01*
X185913387Y-80276358D01*
X185913383Y-80276356D01*
X185731540Y-80205910D01*
X185731539Y-80205909D01*
X185726194Y-80203839D01*
X185720556Y-80202785D01*
X185528866Y-80166952D01*
X185528863Y-80166951D01*
X185523237Y-80165900D01*
X185316763Y-80165900D01*
X185311137Y-80166951D01*
X185311133Y-80166952D01*
X185119443Y-80202785D01*
X185119440Y-80202785D01*
X185113806Y-80203839D01*
X185108463Y-80205908D01*
X185108459Y-80205910D01*
X184926616Y-80276356D01*
X184926608Y-80276359D01*
X184921275Y-80278426D01*
X184916408Y-80281439D01*
X184916403Y-80281442D01*
X184750597Y-80384104D01*
X184750587Y-80384110D01*
X184745728Y-80387120D01*
X184741497Y-80390976D01*
X184741493Y-80390980D01*
X184597383Y-80522353D01*
X184597373Y-80522363D01*
X184593143Y-80526220D01*
X184589694Y-80530786D01*
X184589685Y-80530797D01*
X184472167Y-80686416D01*
X184472160Y-80686426D01*
X184468715Y-80690989D01*
X184466165Y-80696109D01*
X184466160Y-80696118D01*
X184379236Y-80870685D01*
X184379232Y-80870693D01*
X184376682Y-80875816D01*
X184320178Y-81074408D01*
X184301127Y-81280000D01*
X183998873Y-81280000D01*
X183979822Y-81074408D01*
X183923318Y-80875816D01*
X183831285Y-80690989D01*
X183827832Y-80686416D01*
X183710314Y-80530797D01*
X183710310Y-80530793D01*
X183706857Y-80526220D01*
X183702620Y-80522357D01*
X183702616Y-80522353D01*
X183558506Y-80390980D01*
X183558507Y-80390980D01*
X183554272Y-80387120D01*
X183549406Y-80384107D01*
X183549402Y-80384104D01*
X183383596Y-80281442D01*
X183378725Y-80278426D01*
X183373387Y-80276358D01*
X183373383Y-80276356D01*
X183191540Y-80205910D01*
X183191539Y-80205909D01*
X183186194Y-80203839D01*
X183180556Y-80202785D01*
X182988866Y-80166952D01*
X182988863Y-80166951D01*
X182983237Y-80165900D01*
X182776763Y-80165900D01*
X182771137Y-80166951D01*
X182771133Y-80166952D01*
X182579443Y-80202785D01*
X182579440Y-80202785D01*
X182573806Y-80203839D01*
X182568463Y-80205908D01*
X182568459Y-80205910D01*
X182386616Y-80276356D01*
X182386608Y-80276359D01*
X182381275Y-80278426D01*
X182376408Y-80281439D01*
X182376403Y-80281442D01*
X182210597Y-80384104D01*
X182210587Y-80384110D01*
X182205728Y-80387120D01*
X182201497Y-80390976D01*
X182201493Y-80390980D01*
X182057383Y-80522353D01*
X182057373Y-80522363D01*
X182053143Y-80526220D01*
X182049694Y-80530786D01*
X182049685Y-80530797D01*
X181932167Y-80686416D01*
X181932160Y-80686426D01*
X181928715Y-80690989D01*
X181926165Y-80696109D01*
X181926160Y-80696118D01*
X181839236Y-80870685D01*
X181839232Y-80870693D01*
X181836682Y-80875816D01*
X181780178Y-81074408D01*
X181761127Y-81280000D01*
X181458873Y-81280000D01*
X181439822Y-81074408D01*
X181383318Y-80875816D01*
X181291285Y-80690989D01*
X181287832Y-80686416D01*
X181170314Y-80530797D01*
X181170310Y-80530793D01*
X181166857Y-80526220D01*
X181162620Y-80522357D01*
X181162616Y-80522353D01*
X181018506Y-80390980D01*
X181018507Y-80390980D01*
X181014272Y-80387120D01*
X181009406Y-80384107D01*
X181009402Y-80384104D01*
X180843596Y-80281442D01*
X180838725Y-80278426D01*
X180833387Y-80276358D01*
X180833383Y-80276356D01*
X180651540Y-80205910D01*
X180651539Y-80205909D01*
X180646194Y-80203839D01*
X180640556Y-80202785D01*
X180448866Y-80166952D01*
X180448863Y-80166951D01*
X180443237Y-80165900D01*
X180236763Y-80165900D01*
X180231137Y-80166951D01*
X180231133Y-80166952D01*
X180039443Y-80202785D01*
X180039440Y-80202785D01*
X180033806Y-80203839D01*
X180028463Y-80205908D01*
X180028459Y-80205910D01*
X179846616Y-80276356D01*
X179846608Y-80276359D01*
X179841275Y-80278426D01*
X179836408Y-80281439D01*
X179836403Y-80281442D01*
X179670597Y-80384104D01*
X179670587Y-80384110D01*
X179665728Y-80387120D01*
X179661497Y-80390976D01*
X179661493Y-80390980D01*
X179517383Y-80522353D01*
X179517373Y-80522363D01*
X179513143Y-80526220D01*
X179509694Y-80530786D01*
X179509685Y-80530797D01*
X179392167Y-80686416D01*
X179392160Y-80686426D01*
X179388715Y-80690989D01*
X179386165Y-80696109D01*
X179386160Y-80696118D01*
X179299236Y-80870685D01*
X179299232Y-80870693D01*
X179296682Y-80875816D01*
X179240178Y-81074408D01*
X179221127Y-81280000D01*
X178918873Y-81280000D01*
X178899822Y-81074408D01*
X178843318Y-80875816D01*
X178751285Y-80690989D01*
X178747832Y-80686416D01*
X178630314Y-80530797D01*
X178630310Y-80530793D01*
X178626857Y-80526220D01*
X178622620Y-80522357D01*
X178622616Y-80522353D01*
X178478506Y-80390980D01*
X178478507Y-80390980D01*
X178474272Y-80387120D01*
X178469406Y-80384107D01*
X178469402Y-80384104D01*
X178303596Y-80281442D01*
X178298725Y-80278426D01*
X178293387Y-80276358D01*
X178293383Y-80276356D01*
X178111540Y-80205910D01*
X178111539Y-80205909D01*
X178106194Y-80203839D01*
X178100556Y-80202785D01*
X177908866Y-80166952D01*
X177908863Y-80166951D01*
X177903237Y-80165900D01*
X177696763Y-80165900D01*
X177691137Y-80166951D01*
X177691133Y-80166952D01*
X177499443Y-80202785D01*
X177499440Y-80202785D01*
X177493806Y-80203839D01*
X177488463Y-80205908D01*
X177488459Y-80205910D01*
X177306616Y-80276356D01*
X177306608Y-80276359D01*
X177301275Y-80278426D01*
X177296408Y-80281439D01*
X177296403Y-80281442D01*
X177130597Y-80384104D01*
X177130587Y-80384110D01*
X177125728Y-80387120D01*
X177121497Y-80390976D01*
X177121493Y-80390980D01*
X176977383Y-80522353D01*
X176977373Y-80522363D01*
X176973143Y-80526220D01*
X176969694Y-80530786D01*
X176969685Y-80530797D01*
X176852167Y-80686416D01*
X176852160Y-80686426D01*
X176848715Y-80690989D01*
X176846165Y-80696109D01*
X176846160Y-80696118D01*
X176759236Y-80870685D01*
X176759232Y-80870693D01*
X176756682Y-80875816D01*
X176700178Y-81074408D01*
X176681127Y-81280000D01*
X176378873Y-81280000D01*
X176359822Y-81074408D01*
X176303318Y-80875816D01*
X176211285Y-80690989D01*
X176207832Y-80686416D01*
X176090314Y-80530797D01*
X176090310Y-80530793D01*
X176086857Y-80526220D01*
X176082620Y-80522357D01*
X176082616Y-80522353D01*
X175938506Y-80390980D01*
X175938507Y-80390980D01*
X175934272Y-80387120D01*
X175929406Y-80384107D01*
X175929402Y-80384104D01*
X175763596Y-80281442D01*
X175758725Y-80278426D01*
X175753387Y-80276358D01*
X175753383Y-80276356D01*
X175571540Y-80205910D01*
X175571539Y-80205909D01*
X175566194Y-80203839D01*
X175560556Y-80202785D01*
X175368866Y-80166952D01*
X175368863Y-80166951D01*
X175363237Y-80165900D01*
X175156763Y-80165900D01*
X175151137Y-80166951D01*
X175151133Y-80166952D01*
X174959443Y-80202785D01*
X174959440Y-80202785D01*
X174953806Y-80203839D01*
X174948463Y-80205908D01*
X174948459Y-80205910D01*
X174766616Y-80276356D01*
X174766608Y-80276359D01*
X174761275Y-80278426D01*
X174756408Y-80281439D01*
X174756403Y-80281442D01*
X174590597Y-80384104D01*
X174590587Y-80384110D01*
X174585728Y-80387120D01*
X174581497Y-80390976D01*
X174581493Y-80390980D01*
X174437383Y-80522353D01*
X174437373Y-80522363D01*
X174433143Y-80526220D01*
X174429694Y-80530786D01*
X174429685Y-80530797D01*
X174312167Y-80686416D01*
X174312160Y-80686426D01*
X174308715Y-80690989D01*
X174306165Y-80696109D01*
X174306160Y-80696118D01*
X174219236Y-80870685D01*
X174219232Y-80870693D01*
X174216682Y-80875816D01*
X174160178Y-81074408D01*
X174141127Y-81280000D01*
X173838873Y-81280000D01*
X173819822Y-81074408D01*
X173763318Y-80875816D01*
X173671285Y-80690989D01*
X173667832Y-80686416D01*
X173550314Y-80530797D01*
X173550310Y-80530793D01*
X173546857Y-80526220D01*
X173542620Y-80522357D01*
X173542616Y-80522353D01*
X173398506Y-80390980D01*
X173398507Y-80390980D01*
X173394272Y-80387120D01*
X173389406Y-80384107D01*
X173389402Y-80384104D01*
X173223596Y-80281442D01*
X173218725Y-80278426D01*
X173213387Y-80276358D01*
X173213383Y-80276356D01*
X173031540Y-80205910D01*
X173031539Y-80205909D01*
X173026194Y-80203839D01*
X173020556Y-80202785D01*
X172828866Y-80166952D01*
X172828863Y-80166951D01*
X172823237Y-80165900D01*
X172616763Y-80165900D01*
X172611137Y-80166951D01*
X172611133Y-80166952D01*
X172419443Y-80202785D01*
X172419440Y-80202785D01*
X172413806Y-80203839D01*
X172408463Y-80205908D01*
X172408459Y-80205910D01*
X172226616Y-80276356D01*
X172226608Y-80276359D01*
X172221275Y-80278426D01*
X172216408Y-80281439D01*
X172216403Y-80281442D01*
X172050597Y-80384104D01*
X172050587Y-80384110D01*
X172045728Y-80387120D01*
X172041497Y-80390976D01*
X172041493Y-80390980D01*
X171897383Y-80522353D01*
X171897373Y-80522363D01*
X171893143Y-80526220D01*
X171889694Y-80530786D01*
X171889685Y-80530797D01*
X171772167Y-80686416D01*
X171772160Y-80686426D01*
X171768715Y-80690989D01*
X171766165Y-80696109D01*
X171766160Y-80696118D01*
X171679236Y-80870685D01*
X171679232Y-80870693D01*
X171676682Y-80875816D01*
X171620178Y-81074408D01*
X171601127Y-81280000D01*
X171298873Y-81280000D01*
X171279822Y-81074408D01*
X171223318Y-80875816D01*
X171131285Y-80690989D01*
X171127832Y-80686416D01*
X171010314Y-80530797D01*
X171010310Y-80530793D01*
X171006857Y-80526220D01*
X171002620Y-80522357D01*
X171002616Y-80522353D01*
X170858506Y-80390980D01*
X170858507Y-80390980D01*
X170854272Y-80387120D01*
X170849406Y-80384107D01*
X170849402Y-80384104D01*
X170683596Y-80281442D01*
X170678725Y-80278426D01*
X170673387Y-80276358D01*
X170673383Y-80276356D01*
X170491540Y-80205910D01*
X170491539Y-80205909D01*
X170486194Y-80203839D01*
X170480556Y-80202785D01*
X170288866Y-80166952D01*
X170288863Y-80166951D01*
X170283237Y-80165900D01*
X170076763Y-80165900D01*
X170071137Y-80166951D01*
X170071133Y-80166952D01*
X169879443Y-80202785D01*
X169879440Y-80202785D01*
X169873806Y-80203839D01*
X169868463Y-80205908D01*
X169868459Y-80205910D01*
X169686616Y-80276356D01*
X169686608Y-80276359D01*
X169681275Y-80278426D01*
X169676408Y-80281439D01*
X169676403Y-80281442D01*
X169510597Y-80384104D01*
X169510587Y-80384110D01*
X169505728Y-80387120D01*
X169501497Y-80390976D01*
X169501493Y-80390980D01*
X169357383Y-80522353D01*
X169357373Y-80522363D01*
X169353143Y-80526220D01*
X169349694Y-80530786D01*
X169349685Y-80530797D01*
X169232167Y-80686416D01*
X169232160Y-80686426D01*
X169228715Y-80690989D01*
X169226165Y-80696109D01*
X169226160Y-80696118D01*
X169139236Y-80870685D01*
X169139232Y-80870693D01*
X169136682Y-80875816D01*
X169080178Y-81074408D01*
X169061127Y-81280000D01*
X167713576Y-81280000D01*
X167713576Y-80476912D01*
X167715959Y-80452721D01*
X167716101Y-80452007D01*
X167718484Y-80440027D01*
X167699042Y-80342287D01*
X167643677Y-80259426D01*
X167560816Y-80204061D01*
X167548838Y-80201678D01*
X167548835Y-80201677D01*
X167487750Y-80189527D01*
X167475056Y-80187002D01*
X167463076Y-80184619D01*
X167451096Y-80187002D01*
X167450382Y-80187144D01*
X167426191Y-80189527D01*
X161499810Y-80189527D01*
X161475619Y-80187144D01*
X161474905Y-80187002D01*
X161462925Y-80184619D01*
X161450945Y-80187002D01*
X161438251Y-80189527D01*
X161377165Y-80201677D01*
X161377160Y-80201678D01*
X161365185Y-80204061D01*
X161355030Y-80210846D01*
X161355028Y-80210847D01*
X161292476Y-80252642D01*
X161292473Y-80252644D01*
X161282324Y-80259426D01*
X161275542Y-80269575D01*
X161275540Y-80269578D01*
X161233745Y-80332130D01*
X161233744Y-80332132D01*
X161226959Y-80342287D01*
X161224576Y-80354262D01*
X161224575Y-80354267D01*
X161217273Y-80390980D01*
X161207517Y-80440027D01*
X161209900Y-80452007D01*
X161210042Y-80452721D01*
X161212425Y-80476912D01*
X161212425Y-93009090D01*
X161210041Y-93033281D01*
X161207517Y-93045975D01*
X159512500Y-93045975D01*
X159512500Y-78864500D01*
X159529113Y-78802500D01*
X159574500Y-78757113D01*
X159636500Y-78740500D01*
X188924430Y-78740500D01*
X188971883Y-78749939D01*
G37*
%TD.AperFunction*%
%TD*%
M02*
