%TF.GenerationSoftware,KiCad,Pcbnew,(7.0.0)*%
%TF.CreationDate,2023-03-08T01:03:57+01:00*%
%TF.ProjectId,simple-io-shield,73696d70-6c65-42d6-996f-2d736869656c,rev0*%
%TF.SameCoordinates,Original*%
%TF.FileFunction,Paste,Top*%
%TF.FilePolarity,Positive*%
%FSLAX46Y46*%
G04 Gerber Fmt 4.6, Leading zero omitted, Abs format (unit mm)*
G04 Created by KiCad (PCBNEW (7.0.0)) date 2023-03-08 01:03:57*
%MOMM*%
%LPD*%
G01*
G04 APERTURE LIST*
G04 Aperture macros list*
%AMRoundRect*
0 Rectangle with rounded corners*
0 $1 Rounding radius*
0 $2 $3 $4 $5 $6 $7 $8 $9 X,Y pos of 4 corners*
0 Add a 4 corners polygon primitive as box body*
4,1,4,$2,$3,$4,$5,$6,$7,$8,$9,$2,$3,0*
0 Add four circle primitives for the rounded corners*
1,1,$1+$1,$2,$3*
1,1,$1+$1,$4,$5*
1,1,$1+$1,$6,$7*
1,1,$1+$1,$8,$9*
0 Add four rect primitives between the rounded corners*
20,1,$1+$1,$2,$3,$4,$5,0*
20,1,$1+$1,$4,$5,$6,$7,0*
20,1,$1+$1,$6,$7,$8,$9,0*
20,1,$1+$1,$8,$9,$2,$3,0*%
G04 Aperture macros list end*
%ADD10RoundRect,0.218750X0.256250X-0.218750X0.256250X0.218750X-0.256250X0.218750X-0.256250X-0.218750X0*%
%ADD11RoundRect,0.135000X-0.185000X0.135000X-0.185000X-0.135000X0.185000X-0.135000X0.185000X0.135000X0*%
%ADD12R,1.000000X0.750000*%
G04 APERTURE END LIST*
D10*
%TO.C,D4*%
X177800000Y-89967000D03*
X177800000Y-88392000D03*
%TD*%
D11*
%TO.C,R5*%
X170180000Y-91719500D03*
X170180000Y-92739500D03*
%TD*%
%TO.C,R2*%
X177800000Y-123950000D03*
X177800000Y-124970000D03*
%TD*%
D10*
%TO.C,D3*%
X180340000Y-89967000D03*
X180340000Y-88392000D03*
%TD*%
D11*
%TO.C,R3*%
X180340000Y-123950000D03*
X180340000Y-124970000D03*
%TD*%
D12*
%TO.C,SW1*%
X164639999Y-104042999D03*
X170639999Y-104042999D03*
X164639999Y-107792999D03*
X170639999Y-107792999D03*
%TD*%
D10*
%TO.C,D2*%
X182880000Y-89967000D03*
X182880000Y-88392000D03*
%TD*%
D11*
%TO.C,R4*%
X187960000Y-123950000D03*
X187960000Y-124970000D03*
%TD*%
D10*
%TO.C,D6*%
X172720000Y-89967000D03*
X172720000Y-88392000D03*
%TD*%
D11*
%TO.C,R8*%
X182880000Y-123951240D03*
X182880000Y-124971240D03*
%TD*%
%TO.C,R7*%
X185420000Y-123950000D03*
X185420000Y-124970000D03*
%TD*%
D10*
%TO.C,D5*%
X175260000Y-89967000D03*
X175260000Y-88392000D03*
%TD*%
D11*
%TO.C,R1*%
X175260000Y-123950000D03*
X175260000Y-124970000D03*
%TD*%
D10*
%TO.C,D7*%
X170180000Y-89967000D03*
X170180000Y-88392000D03*
%TD*%
D11*
%TO.C,R11*%
X180340000Y-91719500D03*
X180340000Y-92739500D03*
%TD*%
D12*
%TO.C,SW2*%
X164639999Y-96422999D03*
X170639999Y-96422999D03*
X164639999Y-100172999D03*
X170639999Y-100172999D03*
%TD*%
D11*
%TO.C,R9*%
X175260000Y-91719500D03*
X175260000Y-92739500D03*
%TD*%
%TO.C,R6*%
X172720000Y-91719500D03*
X172720000Y-92739500D03*
%TD*%
%TO.C,R12*%
X182880000Y-91719500D03*
X182880000Y-92739500D03*
%TD*%
%TO.C,R10*%
X177800000Y-91719500D03*
X177800000Y-92739500D03*
%TD*%
D12*
%TO.C,SW0*%
X164639999Y-111662999D03*
X170639999Y-111662999D03*
X164639999Y-115412999D03*
X170639999Y-115412999D03*
%TD*%
M02*
