%TF.GenerationSoftware,KiCad,Pcbnew,(7.0.0)*%
%TF.CreationDate,2023-03-08T01:03:57+01:00*%
%TF.ProjectId,simple-io-shield,73696d70-6c65-42d6-996f-2d736869656c,rev0*%
%TF.SameCoordinates,Original*%
%TF.FileFunction,Legend,Top*%
%TF.FilePolarity,Positive*%
%FSLAX46Y46*%
G04 Gerber Fmt 4.6, Leading zero omitted, Abs format (unit mm)*
G04 Created by KiCad (PCBNEW (7.0.0)) date 2023-03-08 01:03:57*
%MOMM*%
%LPD*%
G01*
G04 APERTURE LIST*
G04 Aperture macros list*
%AMRoundRect*
0 Rectangle with rounded corners*
0 $1 Rounding radius*
0 $2 $3 $4 $5 $6 $7 $8 $9 X,Y pos of 4 corners*
0 Add a 4 corners polygon primitive as box body*
4,1,4,$2,$3,$4,$5,$6,$7,$8,$9,$2,$3,0*
0 Add four circle primitives for the rounded corners*
1,1,$1+$1,$2,$3*
1,1,$1+$1,$4,$5*
1,1,$1+$1,$6,$7*
1,1,$1+$1,$8,$9*
0 Add four rect primitives between the rounded corners*
20,1,$1+$1,$2,$3,$4,$5,0*
20,1,$1+$1,$4,$5,$6,$7,0*
20,1,$1+$1,$6,$7,$8,$9,0*
20,1,$1+$1,$8,$9,$2,$3,0*%
G04 Aperture macros list end*
%ADD10C,0.160000*%
%ADD11C,0.120000*%
%ADD12RoundRect,0.218750X0.256250X-0.218750X0.256250X0.218750X-0.256250X0.218750X-0.256250X-0.218750X0*%
%ADD13C,3.200000*%
%ADD14O,1.727200X1.727200*%
%ADD15R,1.727200X1.727200*%
%ADD16RoundRect,0.135000X-0.185000X0.135000X-0.185000X-0.135000X0.185000X-0.135000X0.185000X0.135000X0*%
%ADD17R,1.700000X1.700000*%
%ADD18O,1.700000X1.700000*%
%ADD19R,1.000000X0.750000*%
%ADD20R,2.000000X2.000000*%
%ADD21C,2.000000*%
%ADD22R,2.000000X3.200000*%
G04 APERTURE END LIST*
D10*
X163290475Y-119747380D02*
X162957142Y-119271190D01*
X162719047Y-119747380D02*
X162719047Y-118747380D01*
X162719047Y-118747380D02*
X163099999Y-118747380D01*
X163099999Y-118747380D02*
X163195237Y-118795000D01*
X163195237Y-118795000D02*
X163242856Y-118842619D01*
X163242856Y-118842619D02*
X163290475Y-118937857D01*
X163290475Y-118937857D02*
X163290475Y-119080714D01*
X163290475Y-119080714D02*
X163242856Y-119175952D01*
X163242856Y-119175952D02*
X163195237Y-119223571D01*
X163195237Y-119223571D02*
X163099999Y-119271190D01*
X163099999Y-119271190D02*
X162719047Y-119271190D01*
X163671428Y-119699761D02*
X163766666Y-119747380D01*
X163766666Y-119747380D02*
X163957142Y-119747380D01*
X163957142Y-119747380D02*
X164052380Y-119699761D01*
X164052380Y-119699761D02*
X164099999Y-119604523D01*
X164099999Y-119604523D02*
X164099999Y-119556904D01*
X164099999Y-119556904D02*
X164052380Y-119461666D01*
X164052380Y-119461666D02*
X163957142Y-119414047D01*
X163957142Y-119414047D02*
X163814285Y-119414047D01*
X163814285Y-119414047D02*
X163719047Y-119366428D01*
X163719047Y-119366428D02*
X163671428Y-119271190D01*
X163671428Y-119271190D02*
X163671428Y-119223571D01*
X163671428Y-119223571D02*
X163719047Y-119128333D01*
X163719047Y-119128333D02*
X163814285Y-119080714D01*
X163814285Y-119080714D02*
X163957142Y-119080714D01*
X163957142Y-119080714D02*
X164052380Y-119128333D01*
X164909523Y-119699761D02*
X164814285Y-119747380D01*
X164814285Y-119747380D02*
X164623809Y-119747380D01*
X164623809Y-119747380D02*
X164528571Y-119699761D01*
X164528571Y-119699761D02*
X164480952Y-119604523D01*
X164480952Y-119604523D02*
X164480952Y-119223571D01*
X164480952Y-119223571D02*
X164528571Y-119128333D01*
X164528571Y-119128333D02*
X164623809Y-119080714D01*
X164623809Y-119080714D02*
X164814285Y-119080714D01*
X164814285Y-119080714D02*
X164909523Y-119128333D01*
X164909523Y-119128333D02*
X164957142Y-119223571D01*
X164957142Y-119223571D02*
X164957142Y-119318809D01*
X164957142Y-119318809D02*
X164480952Y-119414047D01*
X165385714Y-119080714D02*
X165385714Y-119747380D01*
X165385714Y-119175952D02*
X165433333Y-119128333D01*
X165433333Y-119128333D02*
X165528571Y-119080714D01*
X165528571Y-119080714D02*
X165671428Y-119080714D01*
X165671428Y-119080714D02*
X165766666Y-119128333D01*
X165766666Y-119128333D02*
X165814285Y-119223571D01*
X165814285Y-119223571D02*
X165814285Y-119747380D01*
X166242857Y-119699761D02*
X166338095Y-119747380D01*
X166338095Y-119747380D02*
X166528571Y-119747380D01*
X166528571Y-119747380D02*
X166623809Y-119699761D01*
X166623809Y-119699761D02*
X166671428Y-119604523D01*
X166671428Y-119604523D02*
X166671428Y-119556904D01*
X166671428Y-119556904D02*
X166623809Y-119461666D01*
X166623809Y-119461666D02*
X166528571Y-119414047D01*
X166528571Y-119414047D02*
X166385714Y-119414047D01*
X166385714Y-119414047D02*
X166290476Y-119366428D01*
X166290476Y-119366428D02*
X166242857Y-119271190D01*
X166242857Y-119271190D02*
X166242857Y-119223571D01*
X166242857Y-119223571D02*
X166290476Y-119128333D01*
X166290476Y-119128333D02*
X166385714Y-119080714D01*
X166385714Y-119080714D02*
X166528571Y-119080714D01*
X166528571Y-119080714D02*
X166623809Y-119128333D01*
X167480952Y-119699761D02*
X167385714Y-119747380D01*
X167385714Y-119747380D02*
X167195238Y-119747380D01*
X167195238Y-119747380D02*
X167100000Y-119699761D01*
X167100000Y-119699761D02*
X167052381Y-119604523D01*
X167052381Y-119604523D02*
X167052381Y-119223571D01*
X167052381Y-119223571D02*
X167100000Y-119128333D01*
X167100000Y-119128333D02*
X167195238Y-119080714D01*
X167195238Y-119080714D02*
X167385714Y-119080714D01*
X167385714Y-119080714D02*
X167480952Y-119128333D01*
X167480952Y-119128333D02*
X167528571Y-119223571D01*
X167528571Y-119223571D02*
X167528571Y-119318809D01*
X167528571Y-119318809D02*
X167052381Y-119414047D01*
X161927380Y-127301714D02*
X161927380Y-127777904D01*
X161927380Y-127777904D02*
X162403571Y-127825523D01*
X162403571Y-127825523D02*
X162355952Y-127777904D01*
X162355952Y-127777904D02*
X162308333Y-127682666D01*
X162308333Y-127682666D02*
X162308333Y-127444571D01*
X162308333Y-127444571D02*
X162355952Y-127349333D01*
X162355952Y-127349333D02*
X162403571Y-127301714D01*
X162403571Y-127301714D02*
X162498809Y-127254095D01*
X162498809Y-127254095D02*
X162736904Y-127254095D01*
X162736904Y-127254095D02*
X162832142Y-127301714D01*
X162832142Y-127301714D02*
X162879761Y-127349333D01*
X162879761Y-127349333D02*
X162927380Y-127444571D01*
X162927380Y-127444571D02*
X162927380Y-127682666D01*
X162927380Y-127682666D02*
X162879761Y-127777904D01*
X162879761Y-127777904D02*
X162832142Y-127825523D01*
X161927380Y-126968380D02*
X162927380Y-126635047D01*
X162927380Y-126635047D02*
X161927380Y-126301714D01*
X165608095Y-126923000D02*
X165512857Y-126875380D01*
X165512857Y-126875380D02*
X165370000Y-126875380D01*
X165370000Y-126875380D02*
X165227143Y-126923000D01*
X165227143Y-126923000D02*
X165131905Y-127018238D01*
X165131905Y-127018238D02*
X165084286Y-127113476D01*
X165084286Y-127113476D02*
X165036667Y-127303952D01*
X165036667Y-127303952D02*
X165036667Y-127446809D01*
X165036667Y-127446809D02*
X165084286Y-127637285D01*
X165084286Y-127637285D02*
X165131905Y-127732523D01*
X165131905Y-127732523D02*
X165227143Y-127827761D01*
X165227143Y-127827761D02*
X165370000Y-127875380D01*
X165370000Y-127875380D02*
X165465238Y-127875380D01*
X165465238Y-127875380D02*
X165608095Y-127827761D01*
X165608095Y-127827761D02*
X165655714Y-127780142D01*
X165655714Y-127780142D02*
X165655714Y-127446809D01*
X165655714Y-127446809D02*
X165465238Y-127446809D01*
X166084286Y-127875380D02*
X166084286Y-126875380D01*
X166084286Y-126875380D02*
X166655714Y-127875380D01*
X166655714Y-127875380D02*
X166655714Y-126875380D01*
X167131905Y-127875380D02*
X167131905Y-126875380D01*
X167131905Y-126875380D02*
X167370000Y-126875380D01*
X167370000Y-126875380D02*
X167512857Y-126923000D01*
X167512857Y-126923000D02*
X167608095Y-127018238D01*
X167608095Y-127018238D02*
X167655714Y-127113476D01*
X167655714Y-127113476D02*
X167703333Y-127303952D01*
X167703333Y-127303952D02*
X167703333Y-127446809D01*
X167703333Y-127446809D02*
X167655714Y-127637285D01*
X167655714Y-127637285D02*
X167608095Y-127732523D01*
X167608095Y-127732523D02*
X167512857Y-127827761D01*
X167512857Y-127827761D02*
X167370000Y-127875380D01*
X167370000Y-127875380D02*
X167131905Y-127875380D01*
X169547380Y-127920761D02*
X170547380Y-127587428D01*
X170547380Y-127587428D02*
X169547380Y-127254095D01*
X170547380Y-126920761D02*
X169547380Y-126920761D01*
X170547380Y-126444571D02*
X169547380Y-126444571D01*
X169547380Y-126444571D02*
X170547380Y-125873143D01*
X170547380Y-125873143D02*
X169547380Y-125873143D01*
X185501666Y-127825523D02*
X185501666Y-127349333D01*
X185787380Y-127920761D02*
X184787380Y-127587428D01*
X184787380Y-127587428D02*
X185787380Y-127254095D01*
X185120714Y-126492190D02*
X185787380Y-126492190D01*
X184739761Y-126730285D02*
X185454047Y-126968380D01*
X185454047Y-126968380D02*
X185454047Y-126349333D01*
X177881666Y-127825523D02*
X177881666Y-127349333D01*
X178167380Y-127920761D02*
X177167380Y-127587428D01*
X177167380Y-127587428D02*
X178167380Y-127254095D01*
X178167380Y-126396952D02*
X178167380Y-126968380D01*
X178167380Y-126682666D02*
X177167380Y-126682666D01*
X177167380Y-126682666D02*
X177310238Y-126777904D01*
X177310238Y-126777904D02*
X177405476Y-126873142D01*
X177405476Y-126873142D02*
X177453095Y-126968380D01*
X180165714Y-95331666D02*
X180641904Y-95331666D01*
X180070476Y-95617380D02*
X180403809Y-94617380D01*
X180403809Y-94617380D02*
X180737142Y-95617380D01*
X181546666Y-94617380D02*
X181070476Y-94617380D01*
X181070476Y-94617380D02*
X181022857Y-95093571D01*
X181022857Y-95093571D02*
X181070476Y-95045952D01*
X181070476Y-95045952D02*
X181165714Y-94998333D01*
X181165714Y-94998333D02*
X181403809Y-94998333D01*
X181403809Y-94998333D02*
X181499047Y-95045952D01*
X181499047Y-95045952D02*
X181546666Y-95093571D01*
X181546666Y-95093571D02*
X181594285Y-95188809D01*
X181594285Y-95188809D02*
X181594285Y-95426904D01*
X181594285Y-95426904D02*
X181546666Y-95522142D01*
X181546666Y-95522142D02*
X181499047Y-95569761D01*
X181499047Y-95569761D02*
X181403809Y-95617380D01*
X181403809Y-95617380D02*
X181165714Y-95617380D01*
X181165714Y-95617380D02*
X181070476Y-95569761D01*
X181070476Y-95569761D02*
X181022857Y-95522142D01*
X182737142Y-94569761D02*
X181880000Y-95855476D01*
X183070476Y-95617380D02*
X183070476Y-94617380D01*
X183070476Y-94617380D02*
X183451428Y-94617380D01*
X183451428Y-94617380D02*
X183546666Y-94665000D01*
X183546666Y-94665000D02*
X183594285Y-94712619D01*
X183594285Y-94712619D02*
X183641904Y-94807857D01*
X183641904Y-94807857D02*
X183641904Y-94950714D01*
X183641904Y-94950714D02*
X183594285Y-95045952D01*
X183594285Y-95045952D02*
X183546666Y-95093571D01*
X183546666Y-95093571D02*
X183451428Y-95141190D01*
X183451428Y-95141190D02*
X183070476Y-95141190D01*
X184641904Y-95522142D02*
X184594285Y-95569761D01*
X184594285Y-95569761D02*
X184451428Y-95617380D01*
X184451428Y-95617380D02*
X184356190Y-95617380D01*
X184356190Y-95617380D02*
X184213333Y-95569761D01*
X184213333Y-95569761D02*
X184118095Y-95474523D01*
X184118095Y-95474523D02*
X184070476Y-95379285D01*
X184070476Y-95379285D02*
X184022857Y-95188809D01*
X184022857Y-95188809D02*
X184022857Y-95045952D01*
X184022857Y-95045952D02*
X184070476Y-94855476D01*
X184070476Y-94855476D02*
X184118095Y-94760238D01*
X184118095Y-94760238D02*
X184213333Y-94665000D01*
X184213333Y-94665000D02*
X184356190Y-94617380D01*
X184356190Y-94617380D02*
X184451428Y-94617380D01*
X184451428Y-94617380D02*
X184594285Y-94665000D01*
X184594285Y-94665000D02*
X184641904Y-94712619D01*
X185546666Y-94617380D02*
X185070476Y-94617380D01*
X185070476Y-94617380D02*
X185022857Y-95093571D01*
X185022857Y-95093571D02*
X185070476Y-95045952D01*
X185070476Y-95045952D02*
X185165714Y-94998333D01*
X185165714Y-94998333D02*
X185403809Y-94998333D01*
X185403809Y-94998333D02*
X185499047Y-95045952D01*
X185499047Y-95045952D02*
X185546666Y-95093571D01*
X185546666Y-95093571D02*
X185594285Y-95188809D01*
X185594285Y-95188809D02*
X185594285Y-95426904D01*
X185594285Y-95426904D02*
X185546666Y-95522142D01*
X185546666Y-95522142D02*
X185499047Y-95569761D01*
X185499047Y-95569761D02*
X185403809Y-95617380D01*
X185403809Y-95617380D02*
X185165714Y-95617380D01*
X185165714Y-95617380D02*
X185070476Y-95569761D01*
X185070476Y-95569761D02*
X185022857Y-95522142D01*
X182961666Y-127825523D02*
X182961666Y-127349333D01*
X183247380Y-127920761D02*
X182247380Y-127587428D01*
X182247380Y-127587428D02*
X183247380Y-127254095D01*
X182247380Y-127015999D02*
X182247380Y-126396952D01*
X182247380Y-126396952D02*
X182628333Y-126730285D01*
X182628333Y-126730285D02*
X182628333Y-126587428D01*
X182628333Y-126587428D02*
X182675952Y-126492190D01*
X182675952Y-126492190D02*
X182723571Y-126444571D01*
X182723571Y-126444571D02*
X182818809Y-126396952D01*
X182818809Y-126396952D02*
X183056904Y-126396952D01*
X183056904Y-126396952D02*
X183152142Y-126444571D01*
X183152142Y-126444571D02*
X183199761Y-126492190D01*
X183199761Y-126492190D02*
X183247380Y-126587428D01*
X183247380Y-126587428D02*
X183247380Y-126873142D01*
X183247380Y-126873142D02*
X183199761Y-126968380D01*
X183199761Y-126968380D02*
X183152142Y-127015999D01*
X173055666Y-116252285D02*
X173055666Y-115776095D01*
X173341380Y-116347523D02*
X172341380Y-116014190D01*
X172341380Y-116014190D02*
X173341380Y-115680857D01*
X172341380Y-115157047D02*
X172341380Y-115061809D01*
X172341380Y-115061809D02*
X172389000Y-114966571D01*
X172389000Y-114966571D02*
X172436619Y-114918952D01*
X172436619Y-114918952D02*
X172531857Y-114871333D01*
X172531857Y-114871333D02*
X172722333Y-114823714D01*
X172722333Y-114823714D02*
X172960428Y-114823714D01*
X172960428Y-114823714D02*
X173150904Y-114871333D01*
X173150904Y-114871333D02*
X173246142Y-114918952D01*
X173246142Y-114918952D02*
X173293761Y-114966571D01*
X173293761Y-114966571D02*
X173341380Y-115061809D01*
X173341380Y-115061809D02*
X173341380Y-115157047D01*
X173341380Y-115157047D02*
X173293761Y-115252285D01*
X173293761Y-115252285D02*
X173246142Y-115299904D01*
X173246142Y-115299904D02*
X173150904Y-115347523D01*
X173150904Y-115347523D02*
X172960428Y-115395142D01*
X172960428Y-115395142D02*
X172722333Y-115395142D01*
X172722333Y-115395142D02*
X172531857Y-115347523D01*
X172531857Y-115347523D02*
X172436619Y-115299904D01*
X172436619Y-115299904D02*
X172389000Y-115252285D01*
X172389000Y-115252285D02*
X172341380Y-115157047D01*
X172293761Y-113680857D02*
X173579476Y-114537999D01*
X173341380Y-113347523D02*
X172341380Y-113347523D01*
X172341380Y-113347523D02*
X172341380Y-112966571D01*
X172341380Y-112966571D02*
X172389000Y-112871333D01*
X172389000Y-112871333D02*
X172436619Y-112823714D01*
X172436619Y-112823714D02*
X172531857Y-112776095D01*
X172531857Y-112776095D02*
X172674714Y-112776095D01*
X172674714Y-112776095D02*
X172769952Y-112823714D01*
X172769952Y-112823714D02*
X172817571Y-112871333D01*
X172817571Y-112871333D02*
X172865190Y-112966571D01*
X172865190Y-112966571D02*
X172865190Y-113347523D01*
X173246142Y-111776095D02*
X173293761Y-111823714D01*
X173293761Y-111823714D02*
X173341380Y-111966571D01*
X173341380Y-111966571D02*
X173341380Y-112061809D01*
X173341380Y-112061809D02*
X173293761Y-112204666D01*
X173293761Y-112204666D02*
X173198523Y-112299904D01*
X173198523Y-112299904D02*
X173103285Y-112347523D01*
X173103285Y-112347523D02*
X172912809Y-112395142D01*
X172912809Y-112395142D02*
X172769952Y-112395142D01*
X172769952Y-112395142D02*
X172579476Y-112347523D01*
X172579476Y-112347523D02*
X172484238Y-112299904D01*
X172484238Y-112299904D02*
X172389000Y-112204666D01*
X172389000Y-112204666D02*
X172341380Y-112061809D01*
X172341380Y-112061809D02*
X172341380Y-111966571D01*
X172341380Y-111966571D02*
X172389000Y-111823714D01*
X172389000Y-111823714D02*
X172436619Y-111776095D01*
X172341380Y-111157047D02*
X172341380Y-111061809D01*
X172341380Y-111061809D02*
X172389000Y-110966571D01*
X172389000Y-110966571D02*
X172436619Y-110918952D01*
X172436619Y-110918952D02*
X172531857Y-110871333D01*
X172531857Y-110871333D02*
X172722333Y-110823714D01*
X172722333Y-110823714D02*
X172960428Y-110823714D01*
X172960428Y-110823714D02*
X173150904Y-110871333D01*
X173150904Y-110871333D02*
X173246142Y-110918952D01*
X173246142Y-110918952D02*
X173293761Y-110966571D01*
X173293761Y-110966571D02*
X173341380Y-111061809D01*
X173341380Y-111061809D02*
X173341380Y-111157047D01*
X173341380Y-111157047D02*
X173293761Y-111252285D01*
X173293761Y-111252285D02*
X173246142Y-111299904D01*
X173246142Y-111299904D02*
X173150904Y-111347523D01*
X173150904Y-111347523D02*
X172960428Y-111395142D01*
X172960428Y-111395142D02*
X172722333Y-111395142D01*
X172722333Y-111395142D02*
X172531857Y-111347523D01*
X172531857Y-111347523D02*
X172436619Y-111299904D01*
X172436619Y-111299904D02*
X172389000Y-111252285D01*
X172389000Y-111252285D02*
X172341380Y-111157047D01*
X187565380Y-89241142D02*
X186898714Y-89241142D01*
X187089190Y-89241142D02*
X186993952Y-89193523D01*
X186993952Y-89193523D02*
X186946333Y-89145904D01*
X186946333Y-89145904D02*
X186898714Y-89050666D01*
X186898714Y-89050666D02*
X186898714Y-88955428D01*
X187517761Y-88241142D02*
X187565380Y-88336380D01*
X187565380Y-88336380D02*
X187565380Y-88526856D01*
X187565380Y-88526856D02*
X187517761Y-88622094D01*
X187517761Y-88622094D02*
X187422523Y-88669713D01*
X187422523Y-88669713D02*
X187041571Y-88669713D01*
X187041571Y-88669713D02*
X186946333Y-88622094D01*
X186946333Y-88622094D02*
X186898714Y-88526856D01*
X186898714Y-88526856D02*
X186898714Y-88336380D01*
X186898714Y-88336380D02*
X186946333Y-88241142D01*
X186946333Y-88241142D02*
X187041571Y-88193523D01*
X187041571Y-88193523D02*
X187136809Y-88193523D01*
X187136809Y-88193523D02*
X187232047Y-88669713D01*
X186898714Y-87860189D02*
X187565380Y-87622094D01*
X187565380Y-87622094D02*
X186898714Y-87383999D01*
X186565380Y-86812570D02*
X186565380Y-86717332D01*
X186565380Y-86717332D02*
X186613000Y-86622094D01*
X186613000Y-86622094D02*
X186660619Y-86574475D01*
X186660619Y-86574475D02*
X186755857Y-86526856D01*
X186755857Y-86526856D02*
X186946333Y-86479237D01*
X186946333Y-86479237D02*
X187184428Y-86479237D01*
X187184428Y-86479237D02*
X187374904Y-86526856D01*
X187374904Y-86526856D02*
X187470142Y-86574475D01*
X187470142Y-86574475D02*
X187517761Y-86622094D01*
X187517761Y-86622094D02*
X187565380Y-86717332D01*
X187565380Y-86717332D02*
X187565380Y-86812570D01*
X187565380Y-86812570D02*
X187517761Y-86907808D01*
X187517761Y-86907808D02*
X187470142Y-86955427D01*
X187470142Y-86955427D02*
X187374904Y-87003046D01*
X187374904Y-87003046D02*
X187184428Y-87050665D01*
X187184428Y-87050665D02*
X186946333Y-87050665D01*
X186946333Y-87050665D02*
X186755857Y-87003046D01*
X186755857Y-87003046D02*
X186660619Y-86955427D01*
X186660619Y-86955427D02*
X186613000Y-86907808D01*
X186613000Y-86907808D02*
X186565380Y-86812570D01*
X174627380Y-86788095D02*
X174627380Y-87264285D01*
X174627380Y-87264285D02*
X175103571Y-87311904D01*
X175103571Y-87311904D02*
X175055952Y-87264285D01*
X175055952Y-87264285D02*
X175008333Y-87169047D01*
X175008333Y-87169047D02*
X175008333Y-86930952D01*
X175008333Y-86930952D02*
X175055952Y-86835714D01*
X175055952Y-86835714D02*
X175103571Y-86788095D01*
X175103571Y-86788095D02*
X175198809Y-86740476D01*
X175198809Y-86740476D02*
X175436904Y-86740476D01*
X175436904Y-86740476D02*
X175532142Y-86788095D01*
X175532142Y-86788095D02*
X175579761Y-86835714D01*
X175579761Y-86835714D02*
X175627380Y-86930952D01*
X175627380Y-86930952D02*
X175627380Y-87169047D01*
X175627380Y-87169047D02*
X175579761Y-87264285D01*
X175579761Y-87264285D02*
X175532142Y-87311904D01*
X174579761Y-85597619D02*
X175865476Y-86454761D01*
X175627380Y-85264285D02*
X174627380Y-85264285D01*
X174627380Y-85264285D02*
X174627380Y-84883333D01*
X174627380Y-84883333D02*
X174675000Y-84788095D01*
X174675000Y-84788095D02*
X174722619Y-84740476D01*
X174722619Y-84740476D02*
X174817857Y-84692857D01*
X174817857Y-84692857D02*
X174960714Y-84692857D01*
X174960714Y-84692857D02*
X175055952Y-84740476D01*
X175055952Y-84740476D02*
X175103571Y-84788095D01*
X175103571Y-84788095D02*
X175151190Y-84883333D01*
X175151190Y-84883333D02*
X175151190Y-85264285D01*
X175627380Y-84264285D02*
X174627380Y-84264285D01*
X174627380Y-84264285D02*
X174627380Y-84026190D01*
X174627380Y-84026190D02*
X174675000Y-83883333D01*
X174675000Y-83883333D02*
X174770238Y-83788095D01*
X174770238Y-83788095D02*
X174865476Y-83740476D01*
X174865476Y-83740476D02*
X175055952Y-83692857D01*
X175055952Y-83692857D02*
X175198809Y-83692857D01*
X175198809Y-83692857D02*
X175389285Y-83740476D01*
X175389285Y-83740476D02*
X175484523Y-83788095D01*
X175484523Y-83788095D02*
X175579761Y-83883333D01*
X175579761Y-83883333D02*
X175627380Y-84026190D01*
X175627380Y-84026190D02*
X175627380Y-84264285D01*
X174627380Y-82788095D02*
X174627380Y-83264285D01*
X174627380Y-83264285D02*
X175103571Y-83311904D01*
X175103571Y-83311904D02*
X175055952Y-83264285D01*
X175055952Y-83264285D02*
X175008333Y-83169047D01*
X175008333Y-83169047D02*
X175008333Y-82930952D01*
X175008333Y-82930952D02*
X175055952Y-82835714D01*
X175055952Y-82835714D02*
X175103571Y-82788095D01*
X175103571Y-82788095D02*
X175198809Y-82740476D01*
X175198809Y-82740476D02*
X175436904Y-82740476D01*
X175436904Y-82740476D02*
X175532142Y-82788095D01*
X175532142Y-82788095D02*
X175579761Y-82835714D01*
X175579761Y-82835714D02*
X175627380Y-82930952D01*
X175627380Y-82930952D02*
X175627380Y-83169047D01*
X175627380Y-83169047D02*
X175579761Y-83264285D01*
X175579761Y-83264285D02*
X175532142Y-83311904D01*
X177500714Y-86835714D02*
X178167380Y-86835714D01*
X177119761Y-87073809D02*
X177834047Y-87311904D01*
X177834047Y-87311904D02*
X177834047Y-86692857D01*
X177119761Y-85597619D02*
X178405476Y-86454761D01*
X178167380Y-85264285D02*
X177167380Y-85264285D01*
X177167380Y-85264285D02*
X177167380Y-84883333D01*
X177167380Y-84883333D02*
X177215000Y-84788095D01*
X177215000Y-84788095D02*
X177262619Y-84740476D01*
X177262619Y-84740476D02*
X177357857Y-84692857D01*
X177357857Y-84692857D02*
X177500714Y-84692857D01*
X177500714Y-84692857D02*
X177595952Y-84740476D01*
X177595952Y-84740476D02*
X177643571Y-84788095D01*
X177643571Y-84788095D02*
X177691190Y-84883333D01*
X177691190Y-84883333D02*
X177691190Y-85264285D01*
X178167380Y-84264285D02*
X177167380Y-84264285D01*
X177167380Y-84264285D02*
X177167380Y-84026190D01*
X177167380Y-84026190D02*
X177215000Y-83883333D01*
X177215000Y-83883333D02*
X177310238Y-83788095D01*
X177310238Y-83788095D02*
X177405476Y-83740476D01*
X177405476Y-83740476D02*
X177595952Y-83692857D01*
X177595952Y-83692857D02*
X177738809Y-83692857D01*
X177738809Y-83692857D02*
X177929285Y-83740476D01*
X177929285Y-83740476D02*
X178024523Y-83788095D01*
X178024523Y-83788095D02*
X178119761Y-83883333D01*
X178119761Y-83883333D02*
X178167380Y-84026190D01*
X178167380Y-84026190D02*
X178167380Y-84264285D01*
X177500714Y-82835714D02*
X178167380Y-82835714D01*
X177119761Y-83073809D02*
X177834047Y-83311904D01*
X177834047Y-83311904D02*
X177834047Y-82692857D01*
X180421666Y-118903047D02*
X180421666Y-118426857D01*
X180707380Y-118998285D02*
X179707380Y-118664952D01*
X179707380Y-118664952D02*
X180707380Y-118331619D01*
X179707380Y-118093523D02*
X179707380Y-117474476D01*
X179707380Y-117474476D02*
X180088333Y-117807809D01*
X180088333Y-117807809D02*
X180088333Y-117664952D01*
X180088333Y-117664952D02*
X180135952Y-117569714D01*
X180135952Y-117569714D02*
X180183571Y-117522095D01*
X180183571Y-117522095D02*
X180278809Y-117474476D01*
X180278809Y-117474476D02*
X180516904Y-117474476D01*
X180516904Y-117474476D02*
X180612142Y-117522095D01*
X180612142Y-117522095D02*
X180659761Y-117569714D01*
X180659761Y-117569714D02*
X180707380Y-117664952D01*
X180707380Y-117664952D02*
X180707380Y-117950666D01*
X180707380Y-117950666D02*
X180659761Y-118045904D01*
X180659761Y-118045904D02*
X180612142Y-118093523D01*
X179659761Y-116331619D02*
X180945476Y-117188761D01*
X180707380Y-115998285D02*
X179707380Y-115998285D01*
X179707380Y-115998285D02*
X179707380Y-115617333D01*
X179707380Y-115617333D02*
X179755000Y-115522095D01*
X179755000Y-115522095D02*
X179802619Y-115474476D01*
X179802619Y-115474476D02*
X179897857Y-115426857D01*
X179897857Y-115426857D02*
X180040714Y-115426857D01*
X180040714Y-115426857D02*
X180135952Y-115474476D01*
X180135952Y-115474476D02*
X180183571Y-115522095D01*
X180183571Y-115522095D02*
X180231190Y-115617333D01*
X180231190Y-115617333D02*
X180231190Y-115998285D01*
X180612142Y-114426857D02*
X180659761Y-114474476D01*
X180659761Y-114474476D02*
X180707380Y-114617333D01*
X180707380Y-114617333D02*
X180707380Y-114712571D01*
X180707380Y-114712571D02*
X180659761Y-114855428D01*
X180659761Y-114855428D02*
X180564523Y-114950666D01*
X180564523Y-114950666D02*
X180469285Y-114998285D01*
X180469285Y-114998285D02*
X180278809Y-115045904D01*
X180278809Y-115045904D02*
X180135952Y-115045904D01*
X180135952Y-115045904D02*
X179945476Y-114998285D01*
X179945476Y-114998285D02*
X179850238Y-114950666D01*
X179850238Y-114950666D02*
X179755000Y-114855428D01*
X179755000Y-114855428D02*
X179707380Y-114712571D01*
X179707380Y-114712571D02*
X179707380Y-114617333D01*
X179707380Y-114617333D02*
X179755000Y-114474476D01*
X179755000Y-114474476D02*
X179802619Y-114426857D01*
X179707380Y-114093523D02*
X179707380Y-113474476D01*
X179707380Y-113474476D02*
X180088333Y-113807809D01*
X180088333Y-113807809D02*
X180088333Y-113664952D01*
X180088333Y-113664952D02*
X180135952Y-113569714D01*
X180135952Y-113569714D02*
X180183571Y-113522095D01*
X180183571Y-113522095D02*
X180278809Y-113474476D01*
X180278809Y-113474476D02*
X180516904Y-113474476D01*
X180516904Y-113474476D02*
X180612142Y-113522095D01*
X180612142Y-113522095D02*
X180659761Y-113569714D01*
X180659761Y-113569714D02*
X180707380Y-113664952D01*
X180707380Y-113664952D02*
X180707380Y-113950666D01*
X180707380Y-113950666D02*
X180659761Y-114045904D01*
X180659761Y-114045904D02*
X180612142Y-114093523D01*
X190962714Y-124712285D02*
X191772238Y-124712285D01*
X191772238Y-124712285D02*
X191867476Y-124759904D01*
X191867476Y-124759904D02*
X191915095Y-124807523D01*
X191915095Y-124807523D02*
X191962714Y-124902761D01*
X191962714Y-124902761D02*
X191962714Y-125045618D01*
X191962714Y-125045618D02*
X191915095Y-125140856D01*
X191581761Y-124712285D02*
X191629380Y-124807523D01*
X191629380Y-124807523D02*
X191629380Y-124997999D01*
X191629380Y-124997999D02*
X191581761Y-125093237D01*
X191581761Y-125093237D02*
X191534142Y-125140856D01*
X191534142Y-125140856D02*
X191438904Y-125188475D01*
X191438904Y-125188475D02*
X191153190Y-125188475D01*
X191153190Y-125188475D02*
X191057952Y-125140856D01*
X191057952Y-125140856D02*
X191010333Y-125093237D01*
X191010333Y-125093237D02*
X190962714Y-124997999D01*
X190962714Y-124997999D02*
X190962714Y-124807523D01*
X190962714Y-124807523D02*
X191010333Y-124712285D01*
X191629380Y-124236094D02*
X190962714Y-124236094D01*
X190629380Y-124236094D02*
X190677000Y-124283713D01*
X190677000Y-124283713D02*
X190724619Y-124236094D01*
X190724619Y-124236094D02*
X190677000Y-124188475D01*
X190677000Y-124188475D02*
X190629380Y-124236094D01*
X190629380Y-124236094D02*
X190724619Y-124236094D01*
X190962714Y-123902761D02*
X190962714Y-123521809D01*
X190629380Y-123759904D02*
X191486523Y-123759904D01*
X191486523Y-123759904D02*
X191581761Y-123712285D01*
X191581761Y-123712285D02*
X191629380Y-123617047D01*
X191629380Y-123617047D02*
X191629380Y-123521809D01*
X191629380Y-123188475D02*
X190629380Y-123188475D01*
X191629380Y-122759904D02*
X191105571Y-122759904D01*
X191105571Y-122759904D02*
X191010333Y-122807523D01*
X191010333Y-122807523D02*
X190962714Y-122902761D01*
X190962714Y-122902761D02*
X190962714Y-123045618D01*
X190962714Y-123045618D02*
X191010333Y-123140856D01*
X191010333Y-123140856D02*
X191057952Y-123188475D01*
X190962714Y-121855142D02*
X191629380Y-121855142D01*
X190962714Y-122283713D02*
X191486523Y-122283713D01*
X191486523Y-122283713D02*
X191581761Y-122236094D01*
X191581761Y-122236094D02*
X191629380Y-122140856D01*
X191629380Y-122140856D02*
X191629380Y-121997999D01*
X191629380Y-121997999D02*
X191581761Y-121902761D01*
X191581761Y-121902761D02*
X191534142Y-121855142D01*
X191629380Y-121378951D02*
X190629380Y-121378951D01*
X191010333Y-121378951D02*
X190962714Y-121283713D01*
X190962714Y-121283713D02*
X190962714Y-121093237D01*
X190962714Y-121093237D02*
X191010333Y-120997999D01*
X191010333Y-120997999D02*
X191057952Y-120950380D01*
X191057952Y-120950380D02*
X191153190Y-120902761D01*
X191153190Y-120902761D02*
X191438904Y-120902761D01*
X191438904Y-120902761D02*
X191534142Y-120950380D01*
X191534142Y-120950380D02*
X191581761Y-120997999D01*
X191581761Y-120997999D02*
X191629380Y-121093237D01*
X191629380Y-121093237D02*
X191629380Y-121283713D01*
X191629380Y-121283713D02*
X191581761Y-121378951D01*
X191534142Y-120474189D02*
X191581761Y-120426570D01*
X191581761Y-120426570D02*
X191629380Y-120474189D01*
X191629380Y-120474189D02*
X191581761Y-120521808D01*
X191581761Y-120521808D02*
X191534142Y-120474189D01*
X191534142Y-120474189D02*
X191629380Y-120474189D01*
X191581761Y-119569428D02*
X191629380Y-119664666D01*
X191629380Y-119664666D02*
X191629380Y-119855142D01*
X191629380Y-119855142D02*
X191581761Y-119950380D01*
X191581761Y-119950380D02*
X191534142Y-119997999D01*
X191534142Y-119997999D02*
X191438904Y-120045618D01*
X191438904Y-120045618D02*
X191153190Y-120045618D01*
X191153190Y-120045618D02*
X191057952Y-119997999D01*
X191057952Y-119997999D02*
X191010333Y-119950380D01*
X191010333Y-119950380D02*
X190962714Y-119855142D01*
X190962714Y-119855142D02*
X190962714Y-119664666D01*
X190962714Y-119664666D02*
X191010333Y-119569428D01*
X191629380Y-118997999D02*
X191581761Y-119093237D01*
X191581761Y-119093237D02*
X191534142Y-119140856D01*
X191534142Y-119140856D02*
X191438904Y-119188475D01*
X191438904Y-119188475D02*
X191153190Y-119188475D01*
X191153190Y-119188475D02*
X191057952Y-119140856D01*
X191057952Y-119140856D02*
X191010333Y-119093237D01*
X191010333Y-119093237D02*
X190962714Y-118997999D01*
X190962714Y-118997999D02*
X190962714Y-118855142D01*
X190962714Y-118855142D02*
X191010333Y-118759904D01*
X191010333Y-118759904D02*
X191057952Y-118712285D01*
X191057952Y-118712285D02*
X191153190Y-118664666D01*
X191153190Y-118664666D02*
X191438904Y-118664666D01*
X191438904Y-118664666D02*
X191534142Y-118712285D01*
X191534142Y-118712285D02*
X191581761Y-118759904D01*
X191581761Y-118759904D02*
X191629380Y-118855142D01*
X191629380Y-118855142D02*
X191629380Y-118997999D01*
X191629380Y-118236094D02*
X190962714Y-118236094D01*
X191057952Y-118236094D02*
X191010333Y-118188475D01*
X191010333Y-118188475D02*
X190962714Y-118093237D01*
X190962714Y-118093237D02*
X190962714Y-117950380D01*
X190962714Y-117950380D02*
X191010333Y-117855142D01*
X191010333Y-117855142D02*
X191105571Y-117807523D01*
X191105571Y-117807523D02*
X191629380Y-117807523D01*
X191105571Y-117807523D02*
X191010333Y-117759904D01*
X191010333Y-117759904D02*
X190962714Y-117664666D01*
X190962714Y-117664666D02*
X190962714Y-117521809D01*
X190962714Y-117521809D02*
X191010333Y-117426570D01*
X191010333Y-117426570D02*
X191105571Y-117378951D01*
X191105571Y-117378951D02*
X191629380Y-117378951D01*
X190581761Y-116188476D02*
X191867476Y-117045618D01*
X191629380Y-115855142D02*
X190629380Y-115855142D01*
X191629380Y-115426571D02*
X191105571Y-115426571D01*
X191105571Y-115426571D02*
X191010333Y-115474190D01*
X191010333Y-115474190D02*
X190962714Y-115569428D01*
X190962714Y-115569428D02*
X190962714Y-115712285D01*
X190962714Y-115712285D02*
X191010333Y-115807523D01*
X191010333Y-115807523D02*
X191057952Y-115855142D01*
X190962714Y-115093237D02*
X190962714Y-114712285D01*
X190629380Y-114950380D02*
X191486523Y-114950380D01*
X191486523Y-114950380D02*
X191581761Y-114902761D01*
X191581761Y-114902761D02*
X191629380Y-114807523D01*
X191629380Y-114807523D02*
X191629380Y-114712285D01*
X191629380Y-114236094D02*
X191581761Y-114331332D01*
X191581761Y-114331332D02*
X191486523Y-114378951D01*
X191486523Y-114378951D02*
X190629380Y-114378951D01*
X190962714Y-113950379D02*
X191629380Y-113759903D01*
X191629380Y-113759903D02*
X191153190Y-113569427D01*
X191153190Y-113569427D02*
X191629380Y-113378951D01*
X191629380Y-113378951D02*
X190962714Y-113188475D01*
X191581761Y-112426570D02*
X191629380Y-112521808D01*
X191629380Y-112521808D02*
X191629380Y-112712284D01*
X191629380Y-112712284D02*
X191581761Y-112807522D01*
X191581761Y-112807522D02*
X191486523Y-112855141D01*
X191486523Y-112855141D02*
X191105571Y-112855141D01*
X191105571Y-112855141D02*
X191010333Y-112807522D01*
X191010333Y-112807522D02*
X190962714Y-112712284D01*
X190962714Y-112712284D02*
X190962714Y-112521808D01*
X190962714Y-112521808D02*
X191010333Y-112426570D01*
X191010333Y-112426570D02*
X191105571Y-112378951D01*
X191105571Y-112378951D02*
X191200809Y-112378951D01*
X191200809Y-112378951D02*
X191296047Y-112855141D01*
X191629380Y-111950379D02*
X190962714Y-111950379D01*
X190629380Y-111950379D02*
X190677000Y-111997998D01*
X190677000Y-111997998D02*
X190724619Y-111950379D01*
X190724619Y-111950379D02*
X190677000Y-111902760D01*
X190677000Y-111902760D02*
X190629380Y-111950379D01*
X190629380Y-111950379D02*
X190724619Y-111950379D01*
X190962714Y-111569427D02*
X190962714Y-111045618D01*
X190962714Y-111045618D02*
X191629380Y-111569427D01*
X191629380Y-111569427D02*
X191629380Y-111045618D01*
X190581761Y-109950380D02*
X191867476Y-110807522D01*
X191581761Y-109664665D02*
X191629380Y-109569427D01*
X191629380Y-109569427D02*
X191629380Y-109378951D01*
X191629380Y-109378951D02*
X191581761Y-109283713D01*
X191581761Y-109283713D02*
X191486523Y-109236094D01*
X191486523Y-109236094D02*
X191438904Y-109236094D01*
X191438904Y-109236094D02*
X191343666Y-109283713D01*
X191343666Y-109283713D02*
X191296047Y-109378951D01*
X191296047Y-109378951D02*
X191296047Y-109521808D01*
X191296047Y-109521808D02*
X191248428Y-109617046D01*
X191248428Y-109617046D02*
X191153190Y-109664665D01*
X191153190Y-109664665D02*
X191105571Y-109664665D01*
X191105571Y-109664665D02*
X191010333Y-109617046D01*
X191010333Y-109617046D02*
X190962714Y-109521808D01*
X190962714Y-109521808D02*
X190962714Y-109378951D01*
X190962714Y-109378951D02*
X191010333Y-109283713D01*
X191629380Y-108807522D02*
X190962714Y-108807522D01*
X190629380Y-108807522D02*
X190677000Y-108855141D01*
X190677000Y-108855141D02*
X190724619Y-108807522D01*
X190724619Y-108807522D02*
X190677000Y-108759903D01*
X190677000Y-108759903D02*
X190629380Y-108807522D01*
X190629380Y-108807522D02*
X190724619Y-108807522D01*
X191629380Y-108331332D02*
X190962714Y-108331332D01*
X191057952Y-108331332D02*
X191010333Y-108283713D01*
X191010333Y-108283713D02*
X190962714Y-108188475D01*
X190962714Y-108188475D02*
X190962714Y-108045618D01*
X190962714Y-108045618D02*
X191010333Y-107950380D01*
X191010333Y-107950380D02*
X191105571Y-107902761D01*
X191105571Y-107902761D02*
X191629380Y-107902761D01*
X191105571Y-107902761D02*
X191010333Y-107855142D01*
X191010333Y-107855142D02*
X190962714Y-107759904D01*
X190962714Y-107759904D02*
X190962714Y-107617047D01*
X190962714Y-107617047D02*
X191010333Y-107521808D01*
X191010333Y-107521808D02*
X191105571Y-107474189D01*
X191105571Y-107474189D02*
X191629380Y-107474189D01*
X190962714Y-106997999D02*
X191962714Y-106997999D01*
X191010333Y-106997999D02*
X190962714Y-106902761D01*
X190962714Y-106902761D02*
X190962714Y-106712285D01*
X190962714Y-106712285D02*
X191010333Y-106617047D01*
X191010333Y-106617047D02*
X191057952Y-106569428D01*
X191057952Y-106569428D02*
X191153190Y-106521809D01*
X191153190Y-106521809D02*
X191438904Y-106521809D01*
X191438904Y-106521809D02*
X191534142Y-106569428D01*
X191534142Y-106569428D02*
X191581761Y-106617047D01*
X191581761Y-106617047D02*
X191629380Y-106712285D01*
X191629380Y-106712285D02*
X191629380Y-106902761D01*
X191629380Y-106902761D02*
X191581761Y-106997999D01*
X191629380Y-105950380D02*
X191581761Y-106045618D01*
X191581761Y-106045618D02*
X191486523Y-106093237D01*
X191486523Y-106093237D02*
X190629380Y-106093237D01*
X191581761Y-105188475D02*
X191629380Y-105283713D01*
X191629380Y-105283713D02*
X191629380Y-105474189D01*
X191629380Y-105474189D02*
X191581761Y-105569427D01*
X191581761Y-105569427D02*
X191486523Y-105617046D01*
X191486523Y-105617046D02*
X191105571Y-105617046D01*
X191105571Y-105617046D02*
X191010333Y-105569427D01*
X191010333Y-105569427D02*
X190962714Y-105474189D01*
X190962714Y-105474189D02*
X190962714Y-105283713D01*
X190962714Y-105283713D02*
X191010333Y-105188475D01*
X191010333Y-105188475D02*
X191105571Y-105140856D01*
X191105571Y-105140856D02*
X191200809Y-105140856D01*
X191200809Y-105140856D02*
X191296047Y-105617046D01*
X191248428Y-104712284D02*
X191248428Y-103950380D01*
X191629380Y-103474189D02*
X190962714Y-103474189D01*
X190629380Y-103474189D02*
X190677000Y-103521808D01*
X190677000Y-103521808D02*
X190724619Y-103474189D01*
X190724619Y-103474189D02*
X190677000Y-103426570D01*
X190677000Y-103426570D02*
X190629380Y-103474189D01*
X190629380Y-103474189D02*
X190724619Y-103474189D01*
X191629380Y-102855142D02*
X191581761Y-102950380D01*
X191581761Y-102950380D02*
X191534142Y-102997999D01*
X191534142Y-102997999D02*
X191438904Y-103045618D01*
X191438904Y-103045618D02*
X191153190Y-103045618D01*
X191153190Y-103045618D02*
X191057952Y-102997999D01*
X191057952Y-102997999D02*
X191010333Y-102950380D01*
X191010333Y-102950380D02*
X190962714Y-102855142D01*
X190962714Y-102855142D02*
X190962714Y-102712285D01*
X190962714Y-102712285D02*
X191010333Y-102617047D01*
X191010333Y-102617047D02*
X191057952Y-102569428D01*
X191057952Y-102569428D02*
X191153190Y-102521809D01*
X191153190Y-102521809D02*
X191438904Y-102521809D01*
X191438904Y-102521809D02*
X191534142Y-102569428D01*
X191534142Y-102569428D02*
X191581761Y-102617047D01*
X191581761Y-102617047D02*
X191629380Y-102712285D01*
X191629380Y-102712285D02*
X191629380Y-102855142D01*
X191248428Y-102093237D02*
X191248428Y-101331333D01*
X191581761Y-100902761D02*
X191629380Y-100807523D01*
X191629380Y-100807523D02*
X191629380Y-100617047D01*
X191629380Y-100617047D02*
X191581761Y-100521809D01*
X191581761Y-100521809D02*
X191486523Y-100474190D01*
X191486523Y-100474190D02*
X191438904Y-100474190D01*
X191438904Y-100474190D02*
X191343666Y-100521809D01*
X191343666Y-100521809D02*
X191296047Y-100617047D01*
X191296047Y-100617047D02*
X191296047Y-100759904D01*
X191296047Y-100759904D02*
X191248428Y-100855142D01*
X191248428Y-100855142D02*
X191153190Y-100902761D01*
X191153190Y-100902761D02*
X191105571Y-100902761D01*
X191105571Y-100902761D02*
X191010333Y-100855142D01*
X191010333Y-100855142D02*
X190962714Y-100759904D01*
X190962714Y-100759904D02*
X190962714Y-100617047D01*
X190962714Y-100617047D02*
X191010333Y-100521809D01*
X191629380Y-100045618D02*
X190629380Y-100045618D01*
X191629380Y-99617047D02*
X191105571Y-99617047D01*
X191105571Y-99617047D02*
X191010333Y-99664666D01*
X191010333Y-99664666D02*
X190962714Y-99759904D01*
X190962714Y-99759904D02*
X190962714Y-99902761D01*
X190962714Y-99902761D02*
X191010333Y-99997999D01*
X191010333Y-99997999D02*
X191057952Y-100045618D01*
X191629380Y-99140856D02*
X190962714Y-99140856D01*
X190629380Y-99140856D02*
X190677000Y-99188475D01*
X190677000Y-99188475D02*
X190724619Y-99140856D01*
X190724619Y-99140856D02*
X190677000Y-99093237D01*
X190677000Y-99093237D02*
X190629380Y-99140856D01*
X190629380Y-99140856D02*
X190724619Y-99140856D01*
X191581761Y-98283714D02*
X191629380Y-98378952D01*
X191629380Y-98378952D02*
X191629380Y-98569428D01*
X191629380Y-98569428D02*
X191581761Y-98664666D01*
X191581761Y-98664666D02*
X191486523Y-98712285D01*
X191486523Y-98712285D02*
X191105571Y-98712285D01*
X191105571Y-98712285D02*
X191010333Y-98664666D01*
X191010333Y-98664666D02*
X190962714Y-98569428D01*
X190962714Y-98569428D02*
X190962714Y-98378952D01*
X190962714Y-98378952D02*
X191010333Y-98283714D01*
X191010333Y-98283714D02*
X191105571Y-98236095D01*
X191105571Y-98236095D02*
X191200809Y-98236095D01*
X191200809Y-98236095D02*
X191296047Y-98712285D01*
X191629380Y-97664666D02*
X191581761Y-97759904D01*
X191581761Y-97759904D02*
X191486523Y-97807523D01*
X191486523Y-97807523D02*
X190629380Y-97807523D01*
X191629380Y-96855142D02*
X190629380Y-96855142D01*
X191581761Y-96855142D02*
X191629380Y-96950380D01*
X191629380Y-96950380D02*
X191629380Y-97140856D01*
X191629380Y-97140856D02*
X191581761Y-97236094D01*
X191581761Y-97236094D02*
X191534142Y-97283713D01*
X191534142Y-97283713D02*
X191438904Y-97331332D01*
X191438904Y-97331332D02*
X191153190Y-97331332D01*
X191153190Y-97331332D02*
X191057952Y-97283713D01*
X191057952Y-97283713D02*
X191010333Y-97236094D01*
X191010333Y-97236094D02*
X190962714Y-97140856D01*
X190962714Y-97140856D02*
X190962714Y-96950380D01*
X190962714Y-96950380D02*
X191010333Y-96855142D01*
X188041666Y-127825523D02*
X188041666Y-127349333D01*
X188327380Y-127920761D02*
X187327380Y-127587428D01*
X187327380Y-127587428D02*
X188327380Y-127254095D01*
X187327380Y-126444571D02*
X187327380Y-126920761D01*
X187327380Y-126920761D02*
X187803571Y-126968380D01*
X187803571Y-126968380D02*
X187755952Y-126920761D01*
X187755952Y-126920761D02*
X187708333Y-126825523D01*
X187708333Y-126825523D02*
X187708333Y-126587428D01*
X187708333Y-126587428D02*
X187755952Y-126492190D01*
X187755952Y-126492190D02*
X187803571Y-126444571D01*
X187803571Y-126444571D02*
X187898809Y-126396952D01*
X187898809Y-126396952D02*
X188136904Y-126396952D01*
X188136904Y-126396952D02*
X188232142Y-126444571D01*
X188232142Y-126444571D02*
X188279761Y-126492190D01*
X188279761Y-126492190D02*
X188327380Y-126587428D01*
X188327380Y-126587428D02*
X188327380Y-126825523D01*
X188327380Y-126825523D02*
X188279761Y-126920761D01*
X188279761Y-126920761D02*
X188232142Y-126968380D01*
X182342619Y-87311904D02*
X182295000Y-87264285D01*
X182295000Y-87264285D02*
X182247380Y-87169047D01*
X182247380Y-87169047D02*
X182247380Y-86930952D01*
X182247380Y-86930952D02*
X182295000Y-86835714D01*
X182295000Y-86835714D02*
X182342619Y-86788095D01*
X182342619Y-86788095D02*
X182437857Y-86740476D01*
X182437857Y-86740476D02*
X182533095Y-86740476D01*
X182533095Y-86740476D02*
X182675952Y-86788095D01*
X182675952Y-86788095D02*
X183247380Y-87359523D01*
X183247380Y-87359523D02*
X183247380Y-86740476D01*
X182199761Y-85597619D02*
X183485476Y-86454761D01*
X183247380Y-85264285D02*
X182247380Y-85264285D01*
X182247380Y-85264285D02*
X182247380Y-84883333D01*
X182247380Y-84883333D02*
X182295000Y-84788095D01*
X182295000Y-84788095D02*
X182342619Y-84740476D01*
X182342619Y-84740476D02*
X182437857Y-84692857D01*
X182437857Y-84692857D02*
X182580714Y-84692857D01*
X182580714Y-84692857D02*
X182675952Y-84740476D01*
X182675952Y-84740476D02*
X182723571Y-84788095D01*
X182723571Y-84788095D02*
X182771190Y-84883333D01*
X182771190Y-84883333D02*
X182771190Y-85264285D01*
X183247380Y-84264285D02*
X182247380Y-84264285D01*
X182247380Y-84264285D02*
X182247380Y-84026190D01*
X182247380Y-84026190D02*
X182295000Y-83883333D01*
X182295000Y-83883333D02*
X182390238Y-83788095D01*
X182390238Y-83788095D02*
X182485476Y-83740476D01*
X182485476Y-83740476D02*
X182675952Y-83692857D01*
X182675952Y-83692857D02*
X182818809Y-83692857D01*
X182818809Y-83692857D02*
X183009285Y-83740476D01*
X183009285Y-83740476D02*
X183104523Y-83788095D01*
X183104523Y-83788095D02*
X183199761Y-83883333D01*
X183199761Y-83883333D02*
X183247380Y-84026190D01*
X183247380Y-84026190D02*
X183247380Y-84264285D01*
X182342619Y-83311904D02*
X182295000Y-83264285D01*
X182295000Y-83264285D02*
X182247380Y-83169047D01*
X182247380Y-83169047D02*
X182247380Y-82930952D01*
X182247380Y-82930952D02*
X182295000Y-82835714D01*
X182295000Y-82835714D02*
X182342619Y-82788095D01*
X182342619Y-82788095D02*
X182437857Y-82740476D01*
X182437857Y-82740476D02*
X182533095Y-82740476D01*
X182533095Y-82740476D02*
X182675952Y-82788095D01*
X182675952Y-82788095D02*
X183247380Y-83359523D01*
X183247380Y-83359523D02*
X183247380Y-82740476D01*
X173055666Y-108632285D02*
X173055666Y-108156095D01*
X173341380Y-108727523D02*
X172341380Y-108394190D01*
X172341380Y-108394190D02*
X173341380Y-108060857D01*
X173341380Y-107203714D02*
X173341380Y-107775142D01*
X173341380Y-107489428D02*
X172341380Y-107489428D01*
X172341380Y-107489428D02*
X172484238Y-107584666D01*
X172484238Y-107584666D02*
X172579476Y-107679904D01*
X172579476Y-107679904D02*
X172627095Y-107775142D01*
X172293761Y-106060857D02*
X173579476Y-106917999D01*
X173341380Y-105727523D02*
X172341380Y-105727523D01*
X172341380Y-105727523D02*
X172341380Y-105346571D01*
X172341380Y-105346571D02*
X172389000Y-105251333D01*
X172389000Y-105251333D02*
X172436619Y-105203714D01*
X172436619Y-105203714D02*
X172531857Y-105156095D01*
X172531857Y-105156095D02*
X172674714Y-105156095D01*
X172674714Y-105156095D02*
X172769952Y-105203714D01*
X172769952Y-105203714D02*
X172817571Y-105251333D01*
X172817571Y-105251333D02*
X172865190Y-105346571D01*
X172865190Y-105346571D02*
X172865190Y-105727523D01*
X173246142Y-104156095D02*
X173293761Y-104203714D01*
X173293761Y-104203714D02*
X173341380Y-104346571D01*
X173341380Y-104346571D02*
X173341380Y-104441809D01*
X173341380Y-104441809D02*
X173293761Y-104584666D01*
X173293761Y-104584666D02*
X173198523Y-104679904D01*
X173198523Y-104679904D02*
X173103285Y-104727523D01*
X173103285Y-104727523D02*
X172912809Y-104775142D01*
X172912809Y-104775142D02*
X172769952Y-104775142D01*
X172769952Y-104775142D02*
X172579476Y-104727523D01*
X172579476Y-104727523D02*
X172484238Y-104679904D01*
X172484238Y-104679904D02*
X172389000Y-104584666D01*
X172389000Y-104584666D02*
X172341380Y-104441809D01*
X172341380Y-104441809D02*
X172341380Y-104346571D01*
X172341380Y-104346571D02*
X172389000Y-104203714D01*
X172389000Y-104203714D02*
X172436619Y-104156095D01*
X173341380Y-103203714D02*
X173341380Y-103775142D01*
X173341380Y-103489428D02*
X172341380Y-103489428D01*
X172341380Y-103489428D02*
X172484238Y-103584666D01*
X172484238Y-103584666D02*
X172579476Y-103679904D01*
X172579476Y-103679904D02*
X172627095Y-103775142D01*
X173055666Y-101012285D02*
X173055666Y-100536095D01*
X173341380Y-101107523D02*
X172341380Y-100774190D01*
X172341380Y-100774190D02*
X173341380Y-100440857D01*
X172436619Y-100155142D02*
X172389000Y-100107523D01*
X172389000Y-100107523D02*
X172341380Y-100012285D01*
X172341380Y-100012285D02*
X172341380Y-99774190D01*
X172341380Y-99774190D02*
X172389000Y-99678952D01*
X172389000Y-99678952D02*
X172436619Y-99631333D01*
X172436619Y-99631333D02*
X172531857Y-99583714D01*
X172531857Y-99583714D02*
X172627095Y-99583714D01*
X172627095Y-99583714D02*
X172769952Y-99631333D01*
X172769952Y-99631333D02*
X173341380Y-100202761D01*
X173341380Y-100202761D02*
X173341380Y-99583714D01*
X172293761Y-98440857D02*
X173579476Y-99297999D01*
X173341380Y-98107523D02*
X172341380Y-98107523D01*
X172341380Y-98107523D02*
X172341380Y-97726571D01*
X172341380Y-97726571D02*
X172389000Y-97631333D01*
X172389000Y-97631333D02*
X172436619Y-97583714D01*
X172436619Y-97583714D02*
X172531857Y-97536095D01*
X172531857Y-97536095D02*
X172674714Y-97536095D01*
X172674714Y-97536095D02*
X172769952Y-97583714D01*
X172769952Y-97583714D02*
X172817571Y-97631333D01*
X172817571Y-97631333D02*
X172865190Y-97726571D01*
X172865190Y-97726571D02*
X172865190Y-98107523D01*
X173246142Y-96536095D02*
X173293761Y-96583714D01*
X173293761Y-96583714D02*
X173341380Y-96726571D01*
X173341380Y-96726571D02*
X173341380Y-96821809D01*
X173341380Y-96821809D02*
X173293761Y-96964666D01*
X173293761Y-96964666D02*
X173198523Y-97059904D01*
X173198523Y-97059904D02*
X173103285Y-97107523D01*
X173103285Y-97107523D02*
X172912809Y-97155142D01*
X172912809Y-97155142D02*
X172769952Y-97155142D01*
X172769952Y-97155142D02*
X172579476Y-97107523D01*
X172579476Y-97107523D02*
X172484238Y-97059904D01*
X172484238Y-97059904D02*
X172389000Y-96964666D01*
X172389000Y-96964666D02*
X172341380Y-96821809D01*
X172341380Y-96821809D02*
X172341380Y-96726571D01*
X172341380Y-96726571D02*
X172389000Y-96583714D01*
X172389000Y-96583714D02*
X172436619Y-96536095D01*
X172436619Y-96155142D02*
X172389000Y-96107523D01*
X172389000Y-96107523D02*
X172341380Y-96012285D01*
X172341380Y-96012285D02*
X172341380Y-95774190D01*
X172341380Y-95774190D02*
X172389000Y-95678952D01*
X172389000Y-95678952D02*
X172436619Y-95631333D01*
X172436619Y-95631333D02*
X172531857Y-95583714D01*
X172531857Y-95583714D02*
X172627095Y-95583714D01*
X172627095Y-95583714D02*
X172769952Y-95631333D01*
X172769952Y-95631333D02*
X173341380Y-96202761D01*
X173341380Y-96202761D02*
X173341380Y-95583714D01*
X185501666Y-118903047D02*
X185501666Y-118426857D01*
X185787380Y-118998285D02*
X184787380Y-118664952D01*
X184787380Y-118664952D02*
X185787380Y-118331619D01*
X185120714Y-117569714D02*
X185787380Y-117569714D01*
X184739761Y-117807809D02*
X185454047Y-118045904D01*
X185454047Y-118045904D02*
X185454047Y-117426857D01*
X184739761Y-116331619D02*
X186025476Y-117188761D01*
X185787380Y-115998285D02*
X184787380Y-115998285D01*
X184787380Y-115998285D02*
X184787380Y-115617333D01*
X184787380Y-115617333D02*
X184835000Y-115522095D01*
X184835000Y-115522095D02*
X184882619Y-115474476D01*
X184882619Y-115474476D02*
X184977857Y-115426857D01*
X184977857Y-115426857D02*
X185120714Y-115426857D01*
X185120714Y-115426857D02*
X185215952Y-115474476D01*
X185215952Y-115474476D02*
X185263571Y-115522095D01*
X185263571Y-115522095D02*
X185311190Y-115617333D01*
X185311190Y-115617333D02*
X185311190Y-115998285D01*
X185692142Y-114426857D02*
X185739761Y-114474476D01*
X185739761Y-114474476D02*
X185787380Y-114617333D01*
X185787380Y-114617333D02*
X185787380Y-114712571D01*
X185787380Y-114712571D02*
X185739761Y-114855428D01*
X185739761Y-114855428D02*
X185644523Y-114950666D01*
X185644523Y-114950666D02*
X185549285Y-114998285D01*
X185549285Y-114998285D02*
X185358809Y-115045904D01*
X185358809Y-115045904D02*
X185215952Y-115045904D01*
X185215952Y-115045904D02*
X185025476Y-114998285D01*
X185025476Y-114998285D02*
X184930238Y-114950666D01*
X184930238Y-114950666D02*
X184835000Y-114855428D01*
X184835000Y-114855428D02*
X184787380Y-114712571D01*
X184787380Y-114712571D02*
X184787380Y-114617333D01*
X184787380Y-114617333D02*
X184835000Y-114474476D01*
X184835000Y-114474476D02*
X184882619Y-114426857D01*
X185120714Y-113569714D02*
X185787380Y-113569714D01*
X184739761Y-113807809D02*
X185454047Y-114045904D01*
X185454047Y-114045904D02*
X185454047Y-113426857D01*
X172087380Y-86835714D02*
X172087380Y-87026190D01*
X172087380Y-87026190D02*
X172135000Y-87121428D01*
X172135000Y-87121428D02*
X172182619Y-87169047D01*
X172182619Y-87169047D02*
X172325476Y-87264285D01*
X172325476Y-87264285D02*
X172515952Y-87311904D01*
X172515952Y-87311904D02*
X172896904Y-87311904D01*
X172896904Y-87311904D02*
X172992142Y-87264285D01*
X172992142Y-87264285D02*
X173039761Y-87216666D01*
X173039761Y-87216666D02*
X173087380Y-87121428D01*
X173087380Y-87121428D02*
X173087380Y-86930952D01*
X173087380Y-86930952D02*
X173039761Y-86835714D01*
X173039761Y-86835714D02*
X172992142Y-86788095D01*
X172992142Y-86788095D02*
X172896904Y-86740476D01*
X172896904Y-86740476D02*
X172658809Y-86740476D01*
X172658809Y-86740476D02*
X172563571Y-86788095D01*
X172563571Y-86788095D02*
X172515952Y-86835714D01*
X172515952Y-86835714D02*
X172468333Y-86930952D01*
X172468333Y-86930952D02*
X172468333Y-87121428D01*
X172468333Y-87121428D02*
X172515952Y-87216666D01*
X172515952Y-87216666D02*
X172563571Y-87264285D01*
X172563571Y-87264285D02*
X172658809Y-87311904D01*
X172039761Y-85597619D02*
X173325476Y-86454761D01*
X173087380Y-85264285D02*
X172087380Y-85264285D01*
X172087380Y-85264285D02*
X172087380Y-84883333D01*
X172087380Y-84883333D02*
X172135000Y-84788095D01*
X172135000Y-84788095D02*
X172182619Y-84740476D01*
X172182619Y-84740476D02*
X172277857Y-84692857D01*
X172277857Y-84692857D02*
X172420714Y-84692857D01*
X172420714Y-84692857D02*
X172515952Y-84740476D01*
X172515952Y-84740476D02*
X172563571Y-84788095D01*
X172563571Y-84788095D02*
X172611190Y-84883333D01*
X172611190Y-84883333D02*
X172611190Y-85264285D01*
X173087380Y-84264285D02*
X172087380Y-84264285D01*
X172087380Y-84264285D02*
X172087380Y-84026190D01*
X172087380Y-84026190D02*
X172135000Y-83883333D01*
X172135000Y-83883333D02*
X172230238Y-83788095D01*
X172230238Y-83788095D02*
X172325476Y-83740476D01*
X172325476Y-83740476D02*
X172515952Y-83692857D01*
X172515952Y-83692857D02*
X172658809Y-83692857D01*
X172658809Y-83692857D02*
X172849285Y-83740476D01*
X172849285Y-83740476D02*
X172944523Y-83788095D01*
X172944523Y-83788095D02*
X173039761Y-83883333D01*
X173039761Y-83883333D02*
X173087380Y-84026190D01*
X173087380Y-84026190D02*
X173087380Y-84264285D01*
X172087380Y-82835714D02*
X172087380Y-83026190D01*
X172087380Y-83026190D02*
X172135000Y-83121428D01*
X172135000Y-83121428D02*
X172182619Y-83169047D01*
X172182619Y-83169047D02*
X172325476Y-83264285D01*
X172325476Y-83264285D02*
X172515952Y-83311904D01*
X172515952Y-83311904D02*
X172896904Y-83311904D01*
X172896904Y-83311904D02*
X172992142Y-83264285D01*
X172992142Y-83264285D02*
X173039761Y-83216666D01*
X173039761Y-83216666D02*
X173087380Y-83121428D01*
X173087380Y-83121428D02*
X173087380Y-82930952D01*
X173087380Y-82930952D02*
X173039761Y-82835714D01*
X173039761Y-82835714D02*
X172992142Y-82788095D01*
X172992142Y-82788095D02*
X172896904Y-82740476D01*
X172896904Y-82740476D02*
X172658809Y-82740476D01*
X172658809Y-82740476D02*
X172563571Y-82788095D01*
X172563571Y-82788095D02*
X172515952Y-82835714D01*
X172515952Y-82835714D02*
X172468333Y-82930952D01*
X172468333Y-82930952D02*
X172468333Y-83121428D01*
X172468333Y-83121428D02*
X172515952Y-83216666D01*
X172515952Y-83216666D02*
X172563571Y-83264285D01*
X172563571Y-83264285D02*
X172658809Y-83311904D01*
X179707380Y-87359523D02*
X179707380Y-86740476D01*
X179707380Y-86740476D02*
X180088333Y-87073809D01*
X180088333Y-87073809D02*
X180088333Y-86930952D01*
X180088333Y-86930952D02*
X180135952Y-86835714D01*
X180135952Y-86835714D02*
X180183571Y-86788095D01*
X180183571Y-86788095D02*
X180278809Y-86740476D01*
X180278809Y-86740476D02*
X180516904Y-86740476D01*
X180516904Y-86740476D02*
X180612142Y-86788095D01*
X180612142Y-86788095D02*
X180659761Y-86835714D01*
X180659761Y-86835714D02*
X180707380Y-86930952D01*
X180707380Y-86930952D02*
X180707380Y-87216666D01*
X180707380Y-87216666D02*
X180659761Y-87311904D01*
X180659761Y-87311904D02*
X180612142Y-87359523D01*
X179659761Y-85597619D02*
X180945476Y-86454761D01*
X180707380Y-85264285D02*
X179707380Y-85264285D01*
X179707380Y-85264285D02*
X179707380Y-84883333D01*
X179707380Y-84883333D02*
X179755000Y-84788095D01*
X179755000Y-84788095D02*
X179802619Y-84740476D01*
X179802619Y-84740476D02*
X179897857Y-84692857D01*
X179897857Y-84692857D02*
X180040714Y-84692857D01*
X180040714Y-84692857D02*
X180135952Y-84740476D01*
X180135952Y-84740476D02*
X180183571Y-84788095D01*
X180183571Y-84788095D02*
X180231190Y-84883333D01*
X180231190Y-84883333D02*
X180231190Y-85264285D01*
X180707380Y-84264285D02*
X179707380Y-84264285D01*
X179707380Y-84264285D02*
X179707380Y-84026190D01*
X179707380Y-84026190D02*
X179755000Y-83883333D01*
X179755000Y-83883333D02*
X179850238Y-83788095D01*
X179850238Y-83788095D02*
X179945476Y-83740476D01*
X179945476Y-83740476D02*
X180135952Y-83692857D01*
X180135952Y-83692857D02*
X180278809Y-83692857D01*
X180278809Y-83692857D02*
X180469285Y-83740476D01*
X180469285Y-83740476D02*
X180564523Y-83788095D01*
X180564523Y-83788095D02*
X180659761Y-83883333D01*
X180659761Y-83883333D02*
X180707380Y-84026190D01*
X180707380Y-84026190D02*
X180707380Y-84264285D01*
X179707380Y-83359523D02*
X179707380Y-82740476D01*
X179707380Y-82740476D02*
X180088333Y-83073809D01*
X180088333Y-83073809D02*
X180088333Y-82930952D01*
X180088333Y-82930952D02*
X180135952Y-82835714D01*
X180135952Y-82835714D02*
X180183571Y-82788095D01*
X180183571Y-82788095D02*
X180278809Y-82740476D01*
X180278809Y-82740476D02*
X180516904Y-82740476D01*
X180516904Y-82740476D02*
X180612142Y-82788095D01*
X180612142Y-82788095D02*
X180659761Y-82835714D01*
X180659761Y-82835714D02*
X180707380Y-82930952D01*
X180707380Y-82930952D02*
X180707380Y-83216666D01*
X180707380Y-83216666D02*
X180659761Y-83311904D01*
X180659761Y-83311904D02*
X180612142Y-83359523D01*
X175341666Y-127825523D02*
X175341666Y-127349333D01*
X175627380Y-127920761D02*
X174627380Y-127587428D01*
X174627380Y-127587428D02*
X175627380Y-127254095D01*
X174627380Y-126730285D02*
X174627380Y-126635047D01*
X174627380Y-126635047D02*
X174675000Y-126539809D01*
X174675000Y-126539809D02*
X174722619Y-126492190D01*
X174722619Y-126492190D02*
X174817857Y-126444571D01*
X174817857Y-126444571D02*
X175008333Y-126396952D01*
X175008333Y-126396952D02*
X175246428Y-126396952D01*
X175246428Y-126396952D02*
X175436904Y-126444571D01*
X175436904Y-126444571D02*
X175532142Y-126492190D01*
X175532142Y-126492190D02*
X175579761Y-126539809D01*
X175579761Y-126539809D02*
X175627380Y-126635047D01*
X175627380Y-126635047D02*
X175627380Y-126730285D01*
X175627380Y-126730285D02*
X175579761Y-126825523D01*
X175579761Y-126825523D02*
X175532142Y-126873142D01*
X175532142Y-126873142D02*
X175436904Y-126920761D01*
X175436904Y-126920761D02*
X175246428Y-126968380D01*
X175246428Y-126968380D02*
X175008333Y-126968380D01*
X175008333Y-126968380D02*
X174817857Y-126920761D01*
X174817857Y-126920761D02*
X174722619Y-126873142D01*
X174722619Y-126873142D02*
X174675000Y-126825523D01*
X174675000Y-126825523D02*
X174627380Y-126730285D01*
X168975523Y-119223571D02*
X169308856Y-119223571D01*
X169451713Y-119747380D02*
X168975523Y-119747380D01*
X168975523Y-119747380D02*
X168975523Y-118747380D01*
X168975523Y-118747380D02*
X169451713Y-118747380D01*
X169880285Y-119747380D02*
X169880285Y-118747380D01*
X169880285Y-118747380D02*
X170451713Y-119747380D01*
X170451713Y-119747380D02*
X170451713Y-118747380D01*
X171527904Y-119747380D02*
X171527904Y-118747380D01*
X171527904Y-118747380D02*
X171908856Y-118747380D01*
X171908856Y-118747380D02*
X172004094Y-118795000D01*
X172004094Y-118795000D02*
X172051713Y-118842619D01*
X172051713Y-118842619D02*
X172099332Y-118937857D01*
X172099332Y-118937857D02*
X172099332Y-119080714D01*
X172099332Y-119080714D02*
X172051713Y-119175952D01*
X172051713Y-119175952D02*
X172004094Y-119223571D01*
X172004094Y-119223571D02*
X171908856Y-119271190D01*
X171908856Y-119271190D02*
X171527904Y-119271190D01*
X172956475Y-119080714D02*
X172956475Y-119747380D01*
X172527904Y-119080714D02*
X172527904Y-119604523D01*
X172527904Y-119604523D02*
X172575523Y-119699761D01*
X172575523Y-119699761D02*
X172670761Y-119747380D01*
X172670761Y-119747380D02*
X172813618Y-119747380D01*
X172813618Y-119747380D02*
X172908856Y-119699761D01*
X172908856Y-119699761D02*
X172956475Y-119652142D01*
X173575523Y-119747380D02*
X173480285Y-119699761D01*
X173480285Y-119699761D02*
X173432666Y-119604523D01*
X173432666Y-119604523D02*
X173432666Y-118747380D01*
X174099333Y-119747380D02*
X174004095Y-119699761D01*
X174004095Y-119699761D02*
X173956476Y-119604523D01*
X173956476Y-119604523D02*
X173956476Y-118747380D01*
X174480286Y-118747380D02*
X174480286Y-119556904D01*
X174480286Y-119556904D02*
X174527905Y-119652142D01*
X174527905Y-119652142D02*
X174575524Y-119699761D01*
X174575524Y-119699761D02*
X174670762Y-119747380D01*
X174670762Y-119747380D02*
X174861238Y-119747380D01*
X174861238Y-119747380D02*
X174956476Y-119699761D01*
X174956476Y-119699761D02*
X175004095Y-119652142D01*
X175004095Y-119652142D02*
X175051714Y-119556904D01*
X175051714Y-119556904D02*
X175051714Y-118747380D01*
X175527905Y-119080714D02*
X175527905Y-120080714D01*
X175527905Y-119128333D02*
X175623143Y-119080714D01*
X175623143Y-119080714D02*
X175813619Y-119080714D01*
X175813619Y-119080714D02*
X175908857Y-119128333D01*
X175908857Y-119128333D02*
X175956476Y-119175952D01*
X175956476Y-119175952D02*
X176004095Y-119271190D01*
X176004095Y-119271190D02*
X176004095Y-119556904D01*
X176004095Y-119556904D02*
X175956476Y-119652142D01*
X175956476Y-119652142D02*
X175908857Y-119699761D01*
X175908857Y-119699761D02*
X175813619Y-119747380D01*
X175813619Y-119747380D02*
X175623143Y-119747380D01*
X175623143Y-119747380D02*
X175527905Y-119699761D01*
X180421666Y-127825523D02*
X180421666Y-127349333D01*
X180707380Y-127920761D02*
X179707380Y-127587428D01*
X179707380Y-127587428D02*
X180707380Y-127254095D01*
X179802619Y-126968380D02*
X179755000Y-126920761D01*
X179755000Y-126920761D02*
X179707380Y-126825523D01*
X179707380Y-126825523D02*
X179707380Y-126587428D01*
X179707380Y-126587428D02*
X179755000Y-126492190D01*
X179755000Y-126492190D02*
X179802619Y-126444571D01*
X179802619Y-126444571D02*
X179897857Y-126396952D01*
X179897857Y-126396952D02*
X179993095Y-126396952D01*
X179993095Y-126396952D02*
X180135952Y-126444571D01*
X180135952Y-126444571D02*
X180707380Y-127015999D01*
X180707380Y-127015999D02*
X180707380Y-126396952D01*
X169547380Y-87359523D02*
X169547380Y-86692857D01*
X169547380Y-86692857D02*
X170547380Y-87121428D01*
X169499761Y-85597619D02*
X170785476Y-86454761D01*
X170547380Y-85264285D02*
X169547380Y-85264285D01*
X169547380Y-85264285D02*
X169547380Y-84883333D01*
X169547380Y-84883333D02*
X169595000Y-84788095D01*
X169595000Y-84788095D02*
X169642619Y-84740476D01*
X169642619Y-84740476D02*
X169737857Y-84692857D01*
X169737857Y-84692857D02*
X169880714Y-84692857D01*
X169880714Y-84692857D02*
X169975952Y-84740476D01*
X169975952Y-84740476D02*
X170023571Y-84788095D01*
X170023571Y-84788095D02*
X170071190Y-84883333D01*
X170071190Y-84883333D02*
X170071190Y-85264285D01*
X170547380Y-84264285D02*
X169547380Y-84264285D01*
X169547380Y-84264285D02*
X169547380Y-84026190D01*
X169547380Y-84026190D02*
X169595000Y-83883333D01*
X169595000Y-83883333D02*
X169690238Y-83788095D01*
X169690238Y-83788095D02*
X169785476Y-83740476D01*
X169785476Y-83740476D02*
X169975952Y-83692857D01*
X169975952Y-83692857D02*
X170118809Y-83692857D01*
X170118809Y-83692857D02*
X170309285Y-83740476D01*
X170309285Y-83740476D02*
X170404523Y-83788095D01*
X170404523Y-83788095D02*
X170499761Y-83883333D01*
X170499761Y-83883333D02*
X170547380Y-84026190D01*
X170547380Y-84026190D02*
X170547380Y-84264285D01*
X169547380Y-83359523D02*
X169547380Y-82692857D01*
X169547380Y-82692857D02*
X170547380Y-83121428D01*
D11*
%TO.C,D4*%
X177065000Y-90664500D02*
X178535000Y-90664500D01*
X178535000Y-90664500D02*
X178535000Y-88379500D01*
X177065000Y-88379500D02*
X177065000Y-90664500D01*
%TO.C,R5*%
X170560000Y-92075859D02*
X170560000Y-92383141D01*
X169800000Y-92075859D02*
X169800000Y-92383141D01*
%TO.C,J2*%
X166430000Y-120590000D02*
X163770000Y-120590000D01*
X166430000Y-120590000D02*
X166430000Y-123190000D01*
X163770000Y-120590000D02*
X163770000Y-125790000D01*
X166430000Y-123190000D02*
X163830000Y-123190000D01*
X163830000Y-123190000D02*
X163830000Y-125790000D01*
X166430000Y-124460000D02*
X166430000Y-125790000D01*
X166430000Y-125790000D02*
X165100000Y-125790000D01*
X163830000Y-125790000D02*
X163770000Y-125790000D01*
%TO.C,R2*%
X178180000Y-124306359D02*
X178180000Y-124613641D01*
X177420000Y-124306359D02*
X177420000Y-124613641D01*
%TO.C,D3*%
X179605000Y-90664500D02*
X181075000Y-90664500D01*
X181075000Y-90664500D02*
X181075000Y-88379500D01*
X179605000Y-88379500D02*
X179605000Y-90664500D01*
%TO.C,R3*%
X180720000Y-124306359D02*
X180720000Y-124613641D01*
X179960000Y-124306359D02*
X179960000Y-124613641D01*
%TO.C,SW1*%
X164920000Y-106958000D02*
X164920000Y-104878000D01*
X166190000Y-103198000D02*
X165700000Y-103688000D01*
X166190000Y-103198000D02*
X169090000Y-103198000D01*
X166190000Y-108638000D02*
X165700000Y-108148000D01*
X166190000Y-108638000D02*
X169090000Y-108638000D01*
X169090000Y-103198000D02*
X169580000Y-103688000D01*
X169090000Y-108638000D02*
X169580000Y-108148000D01*
X170360000Y-106958000D02*
X170360000Y-104878000D01*
%TO.C,SW3*%
X178820000Y-112060000D02*
X178820000Y-111460000D01*
X179120000Y-111760000D02*
X178820000Y-112060000D01*
X178820000Y-111460000D02*
X179120000Y-111760000D01*
X177020000Y-110360000D02*
X188820000Y-110360000D01*
X177020000Y-106260000D02*
X177020000Y-110360000D01*
X188820000Y-106260000D02*
X188820000Y-110360000D01*
X182920000Y-104760000D02*
X182920000Y-103760000D01*
X182420000Y-104260000D02*
X183420000Y-104260000D01*
X177020000Y-102260000D02*
X177020000Y-98160000D01*
X177020000Y-98160000D02*
X179420000Y-98160000D01*
X181620000Y-98160000D02*
X184220000Y-98160000D01*
X186420000Y-98160000D02*
X188820000Y-98160000D01*
X188820000Y-98160000D02*
X188820000Y-102260000D01*
X185920000Y-104260000D02*
G75*
G03*
X185920000Y-104260000I-3000000J0D01*
G01*
%TO.C,D2*%
X182145000Y-90664500D02*
X183615000Y-90664500D01*
X183615000Y-90664500D02*
X183615000Y-88379500D01*
X182145000Y-88379500D02*
X182145000Y-90664500D01*
%TO.C,R4*%
X188340000Y-124306359D02*
X188340000Y-124613641D01*
X187580000Y-124306359D02*
X187580000Y-124613641D01*
%TO.C,D6*%
X171985000Y-90664500D02*
X173455000Y-90664500D01*
X173455000Y-90664500D02*
X173455000Y-88379500D01*
X171985000Y-88379500D02*
X171985000Y-90664500D01*
%TO.C,R8*%
X183260000Y-124307599D02*
X183260000Y-124614881D01*
X182500000Y-124307599D02*
X182500000Y-124614881D01*
%TO.C,R7*%
X185800000Y-124306359D02*
X185800000Y-124613641D01*
X185040000Y-124306359D02*
X185040000Y-124613641D01*
%TO.C,D5*%
X174525000Y-90664500D02*
X175995000Y-90664500D01*
X175995000Y-90664500D02*
X175995000Y-88379500D01*
X174525000Y-88379500D02*
X174525000Y-90664500D01*
%TO.C,R1*%
X175640000Y-124306359D02*
X175640000Y-124613641D01*
X174880000Y-124306359D02*
X174880000Y-124613641D01*
%TO.C,D7*%
X169445000Y-90664500D02*
X170915000Y-90664500D01*
X170915000Y-90664500D02*
X170915000Y-88379500D01*
X169445000Y-88379500D02*
X169445000Y-90664500D01*
%TO.C,R11*%
X180720000Y-92075859D02*
X180720000Y-92383141D01*
X179960000Y-92075859D02*
X179960000Y-92383141D01*
%TO.C,SW2*%
X164920000Y-99338000D02*
X164920000Y-97258000D01*
X166190000Y-95578000D02*
X165700000Y-96068000D01*
X166190000Y-95578000D02*
X169090000Y-95578000D01*
X166190000Y-101018000D02*
X165700000Y-100528000D01*
X166190000Y-101018000D02*
X169090000Y-101018000D01*
X169090000Y-95578000D02*
X169580000Y-96068000D01*
X169090000Y-101018000D02*
X169580000Y-100528000D01*
X170360000Y-99338000D02*
X170360000Y-97258000D01*
%TO.C,R9*%
X175640000Y-92075859D02*
X175640000Y-92383141D01*
X174880000Y-92075859D02*
X174880000Y-92383141D01*
%TO.C,R6*%
X173100000Y-92075859D02*
X173100000Y-92383141D01*
X172340000Y-92075859D02*
X172340000Y-92383141D01*
%TO.C,R12*%
X183260000Y-92075859D02*
X183260000Y-92383141D01*
X182500000Y-92075859D02*
X182500000Y-92383141D01*
%TO.C,R10*%
X178180000Y-92075859D02*
X178180000Y-92383141D01*
X177420000Y-92075859D02*
X177420000Y-92383141D01*
%TO.C,SW0*%
X164920000Y-114578000D02*
X164920000Y-112498000D01*
X166190000Y-110818000D02*
X165700000Y-111308000D01*
X166190000Y-110818000D02*
X169090000Y-110818000D01*
X166190000Y-116258000D02*
X165700000Y-115768000D01*
X166190000Y-116258000D02*
X169090000Y-116258000D01*
X169090000Y-110818000D02*
X169580000Y-111308000D01*
X169090000Y-116258000D02*
X169580000Y-115768000D01*
X170360000Y-114578000D02*
X170360000Y-112498000D01*
%TO.C,J1*%
X168850000Y-120590000D02*
X170180000Y-120590000D01*
X168850000Y-121920000D02*
X168850000Y-120590000D01*
X168850000Y-123190000D02*
X168850000Y-123250000D01*
X168850000Y-123190000D02*
X171450000Y-123190000D01*
X168850000Y-123250000D02*
X174050000Y-123250000D01*
X171450000Y-120590000D02*
X174050000Y-120590000D01*
X171450000Y-123190000D02*
X171450000Y-120590000D01*
X174050000Y-120590000D02*
X174050000Y-123250000D01*
%TD*%
%LPC*%
%TO.C,REF\u002A\u002A*%
G36*
X161462925Y-93045975D02*
G01*
X161462925Y-92545746D01*
X161968334Y-92545746D01*
X164564039Y-92545716D01*
X164687614Y-92542440D01*
X164809552Y-92533034D01*
X164929703Y-92517648D01*
X165047916Y-92496431D01*
X165164043Y-92469533D01*
X165277933Y-92437105D01*
X165389436Y-92399296D01*
X165498402Y-92356256D01*
X165604682Y-92308135D01*
X165708125Y-92255082D01*
X165808582Y-92197249D01*
X165905903Y-92134784D01*
X165999937Y-92067838D01*
X166090536Y-91996561D01*
X166177548Y-91921102D01*
X166260825Y-91841611D01*
X166340216Y-91758239D01*
X166415571Y-91671135D01*
X166486741Y-91580449D01*
X166553575Y-91486331D01*
X166615924Y-91388932D01*
X166673638Y-91288400D01*
X166726566Y-91184886D01*
X166774560Y-91078540D01*
X166817468Y-90969511D01*
X166855142Y-90857950D01*
X166887431Y-90744007D01*
X166914186Y-90627831D01*
X166935256Y-90509572D01*
X166950491Y-90389381D01*
X166959743Y-90267406D01*
X166962860Y-90143799D01*
X166962860Y-87551194D01*
X165143848Y-87551194D01*
X164920606Y-87551194D01*
X164920593Y-87551194D01*
X162645811Y-87551194D01*
X162643211Y-87553795D01*
X163657102Y-88567169D01*
X165952570Y-88567169D01*
X165952570Y-90145882D01*
X165950760Y-90217542D01*
X165945390Y-90288253D01*
X165936547Y-90357928D01*
X165924317Y-90426481D01*
X165908788Y-90493823D01*
X165890047Y-90559868D01*
X165868181Y-90624530D01*
X165843277Y-90687721D01*
X165815424Y-90749354D01*
X165784706Y-90809343D01*
X165751213Y-90867600D01*
X165715030Y-90924039D01*
X165676246Y-90978572D01*
X165634947Y-91031113D01*
X165591220Y-91081574D01*
X165545154Y-91129869D01*
X165496833Y-91175910D01*
X165446347Y-91219612D01*
X165393782Y-91260886D01*
X165339226Y-91299646D01*
X165282765Y-91335805D01*
X165224486Y-91369275D01*
X165164478Y-91399971D01*
X165102826Y-91427805D01*
X165039618Y-91452690D01*
X164974942Y-91474539D01*
X164908884Y-91493265D01*
X164841532Y-91508782D01*
X164772972Y-91521001D01*
X164703293Y-91529837D01*
X164632581Y-91535203D01*
X164560922Y-91537010D01*
X162980657Y-91537010D01*
X162980657Y-89989304D01*
X162983257Y-89986206D01*
X163762022Y-90757736D01*
X164466371Y-90052353D01*
X162981708Y-88566139D01*
X161968334Y-87551216D01*
X161968334Y-92545746D01*
X161462925Y-92545746D01*
X161462925Y-86994149D01*
X161962635Y-86994149D01*
X164920593Y-86994149D01*
X164920593Y-86927483D01*
X165143848Y-86927483D01*
X166957175Y-86668587D01*
X166957175Y-85951317D01*
X166358314Y-85847678D01*
X166151455Y-85813126D01*
X166006329Y-85790085D01*
X166137768Y-85770749D01*
X166265615Y-85750676D01*
X166389869Y-85729867D01*
X166510527Y-85708326D01*
X166627589Y-85686055D01*
X166741052Y-85663059D01*
X166850915Y-85639339D01*
X166957175Y-85614899D01*
X166957175Y-84893494D01*
X166957174Y-84893494D01*
X165143849Y-84635628D01*
X165143849Y-85197350D01*
X165301694Y-85224365D01*
X165460473Y-85249416D01*
X165620175Y-85272505D01*
X165780789Y-85293633D01*
X165942305Y-85312803D01*
X166104709Y-85330016D01*
X166267993Y-85345275D01*
X166432143Y-85358582D01*
X165742261Y-85422661D01*
X165510379Y-85445778D01*
X165333300Y-85463976D01*
X165211099Y-85477279D01*
X165143848Y-85485710D01*
X165143848Y-86086190D01*
X165331609Y-86116655D01*
X165510175Y-86144105D01*
X165679541Y-86168548D01*
X165839703Y-86189989D01*
X165990657Y-86208436D01*
X166132396Y-86223894D01*
X166264918Y-86236371D01*
X166388217Y-86245873D01*
X165776368Y-86304779D01*
X165143848Y-86365761D01*
X165143848Y-86927483D01*
X164920593Y-86927483D01*
X164920593Y-86228821D01*
X163873628Y-86228821D01*
X163873628Y-85801461D01*
X164920593Y-85801461D01*
X164920593Y-85039231D01*
X162758968Y-85039231D01*
X161962635Y-85039231D01*
X161962635Y-85801461D01*
X163042156Y-85801461D01*
X163042156Y-86228821D01*
X161962635Y-86228821D01*
X161962635Y-86994149D01*
X161462925Y-86994149D01*
X161462925Y-84791184D01*
X161962635Y-84791184D01*
X162758968Y-84791191D01*
X162758968Y-84367432D01*
X165143848Y-84367432D01*
X166957174Y-84367432D01*
X166957174Y-83339073D01*
X166594406Y-83339073D01*
X166594406Y-83789177D01*
X166195464Y-83789177D01*
X166195464Y-83339073D01*
X165850782Y-83339073D01*
X165850782Y-83789177D01*
X165506617Y-83789177D01*
X165506617Y-83339073D01*
X165143848Y-83339073D01*
X165143848Y-84367432D01*
X162758968Y-84367432D01*
X162758968Y-84174172D01*
X164920593Y-84174172D01*
X164920593Y-83411942D01*
X162758968Y-83411942D01*
X162758968Y-82994904D01*
X165143848Y-82994904D01*
X166957174Y-82994904D01*
X166957174Y-82416642D01*
X165143848Y-82416642D01*
X165143848Y-82994904D01*
X162758968Y-82994904D01*
X162758968Y-82914299D01*
X161962635Y-82106079D01*
X161962635Y-84791184D01*
X161462925Y-84791184D01*
X161462925Y-81817200D01*
X162014324Y-81817200D01*
X162776552Y-82579430D01*
X164920606Y-82579430D01*
X164920606Y-82105034D01*
X165143848Y-82105034D01*
X165506617Y-82105034D01*
X165506617Y-81647698D01*
X166694141Y-82152062D01*
X166957174Y-82152062D01*
X166957174Y-81026551D01*
X166594406Y-81026551D01*
X166594406Y-81519028D01*
X165506617Y-81026551D01*
X165143848Y-81026551D01*
X165143848Y-82105034D01*
X164920606Y-82105034D01*
X164920606Y-80939736D01*
X164197136Y-80939736D01*
X164197136Y-81817200D01*
X162014324Y-81817200D01*
X161462925Y-81817200D01*
X161462925Y-80440026D01*
X167463075Y-80440026D01*
X167463075Y-93045975D01*
X161968334Y-93045975D01*
X161462925Y-93045975D01*
G37*
%TD*%
D12*
%TO.C,D4*%
X177800000Y-89967000D03*
X177800000Y-88392000D03*
%TD*%
D13*
%TO.C,XA1*%
X138430000Y-129540000D03*
X139700000Y-81280000D03*
D14*
X162559999Y-129539999D03*
X175259999Y-129539999D03*
X177799999Y-129539999D03*
X180339999Y-129539999D03*
X182879999Y-129539999D03*
X185419999Y-129539999D03*
X187959999Y-129539999D03*
X187959999Y-81279999D03*
X185419999Y-81279999D03*
X182879999Y-81279999D03*
X180339999Y-81279999D03*
X177799999Y-81279999D03*
X175259999Y-81279999D03*
X172719999Y-81279999D03*
X170179999Y-81279999D03*
D15*
X165099999Y-129539999D03*
X167639999Y-129539999D03*
D14*
X170179999Y-129539999D03*
%TD*%
D16*
%TO.C,R5*%
X170180000Y-91719500D03*
X170180000Y-92739500D03*
%TD*%
D17*
%TO.C,J2*%
X165099999Y-124459999D03*
D18*
X165099999Y-121919999D03*
%TD*%
D16*
%TO.C,R2*%
X177800000Y-123950000D03*
X177800000Y-124970000D03*
%TD*%
D12*
%TO.C,D3*%
X180340000Y-89967000D03*
X180340000Y-88392000D03*
%TD*%
D16*
%TO.C,R3*%
X180340000Y-123950000D03*
X180340000Y-124970000D03*
%TD*%
D19*
%TO.C,SW1*%
X164639999Y-104042999D03*
X170639999Y-104042999D03*
X164639999Y-107792999D03*
X170639999Y-107792999D03*
%TD*%
D20*
%TO.C,SW3*%
X180419999Y-111759999D03*
D21*
X185420000Y-111760000D03*
X182920000Y-111760000D03*
D22*
X177319999Y-104259999D03*
X188519999Y-104259999D03*
D21*
X185420000Y-97260000D03*
X180420000Y-97260000D03*
%TD*%
D12*
%TO.C,D2*%
X182880000Y-89967000D03*
X182880000Y-88392000D03*
%TD*%
D16*
%TO.C,R4*%
X187960000Y-123950000D03*
X187960000Y-124970000D03*
%TD*%
D12*
%TO.C,D6*%
X172720000Y-89967000D03*
X172720000Y-88392000D03*
%TD*%
D16*
%TO.C,R8*%
X182880000Y-123951240D03*
X182880000Y-124971240D03*
%TD*%
%TO.C,R7*%
X185420000Y-123950000D03*
X185420000Y-124970000D03*
%TD*%
D12*
%TO.C,D5*%
X175260000Y-89967000D03*
X175260000Y-88392000D03*
%TD*%
D16*
%TO.C,R1*%
X175260000Y-123950000D03*
X175260000Y-124970000D03*
%TD*%
D12*
%TO.C,D7*%
X170180000Y-89967000D03*
X170180000Y-88392000D03*
%TD*%
D16*
%TO.C,R11*%
X180340000Y-91719500D03*
X180340000Y-92739500D03*
%TD*%
D19*
%TO.C,SW2*%
X164639999Y-96422999D03*
X170639999Y-96422999D03*
X164639999Y-100172999D03*
X170639999Y-100172999D03*
%TD*%
D16*
%TO.C,R9*%
X175260000Y-91719500D03*
X175260000Y-92739500D03*
%TD*%
%TO.C,R6*%
X172720000Y-91719500D03*
X172720000Y-92739500D03*
%TD*%
%TO.C,R12*%
X182880000Y-91719500D03*
X182880000Y-92739500D03*
%TD*%
%TO.C,R10*%
X177800000Y-91719500D03*
X177800000Y-92739500D03*
%TD*%
D19*
%TO.C,SW0*%
X164639999Y-111662999D03*
X170639999Y-111662999D03*
X164639999Y-115412999D03*
X170639999Y-115412999D03*
%TD*%
D17*
%TO.C,J1*%
X170179999Y-121919999D03*
D18*
X172719999Y-121919999D03*
%TD*%
M02*
