%TF.GenerationSoftware,KiCad,Pcbnew,(7.0.0)*%
%TF.CreationDate,2023-03-17T06:32:27+01:00*%
%TF.ProjectId,simple-io-shield,73696d70-6c65-42d6-996f-2d736869656c,rev0*%
%TF.SameCoordinates,Original*%
%TF.FileFunction,Soldermask,Bot*%
%TF.FilePolarity,Negative*%
%FSLAX46Y46*%
G04 Gerber Fmt 4.6, Leading zero omitted, Abs format (unit mm)*
G04 Created by KiCad (PCBNEW (7.0.0)) date 2023-03-17 06:32:27*
%MOMM*%
%LPD*%
G01*
G04 APERTURE LIST*
%ADD10O,1.727200X1.727200*%
%ADD11R,1.727200X1.727200*%
%ADD12R,1.700000X1.700000*%
%ADD13O,1.700000X1.700000*%
%ADD14R,2.000000X2.000000*%
%ADD15C,2.000000*%
%ADD16R,2.000000X3.200000*%
G04 APERTURE END LIST*
%TO.C,REF\u002A\u002A*%
G36*
X161466926Y-93045975D02*
G01*
X161466926Y-90143799D01*
X161967141Y-90143799D01*
X161970258Y-90267406D01*
X161979510Y-90389381D01*
X161994745Y-90509572D01*
X162015815Y-90627831D01*
X162042570Y-90744007D01*
X162074859Y-90857950D01*
X162112533Y-90969511D01*
X162155441Y-91078540D01*
X162203435Y-91184886D01*
X162256363Y-91288400D01*
X162314077Y-91388932D01*
X162376426Y-91486331D01*
X162443260Y-91580449D01*
X162514430Y-91671135D01*
X162589785Y-91758239D01*
X162669176Y-91841611D01*
X162752453Y-91921102D01*
X162839465Y-91996561D01*
X162930064Y-92067838D01*
X163024098Y-92134784D01*
X163121419Y-92197249D01*
X163221876Y-92255082D01*
X163325319Y-92308135D01*
X163431599Y-92356256D01*
X163540565Y-92399296D01*
X163652068Y-92437105D01*
X163765958Y-92469533D01*
X163882085Y-92496431D01*
X164000298Y-92517648D01*
X164120449Y-92533034D01*
X164242387Y-92542440D01*
X164365962Y-92545716D01*
X166961667Y-92545746D01*
X166961667Y-87551216D01*
X165948293Y-88566139D01*
X164463630Y-90052353D01*
X165167979Y-90757736D01*
X165946744Y-89986206D01*
X165949344Y-89989304D01*
X165949344Y-91537010D01*
X164369079Y-91537010D01*
X164297420Y-91535203D01*
X164226708Y-91529837D01*
X164157029Y-91521001D01*
X164088469Y-91508782D01*
X164021117Y-91493265D01*
X163955059Y-91474539D01*
X163890383Y-91452690D01*
X163827175Y-91427805D01*
X163765523Y-91399971D01*
X163705515Y-91369275D01*
X163647236Y-91335805D01*
X163590775Y-91299646D01*
X163536219Y-91260886D01*
X163483654Y-91219612D01*
X163433168Y-91175910D01*
X163384847Y-91129869D01*
X163338781Y-91081574D01*
X163295054Y-91031113D01*
X163253755Y-90978572D01*
X163214971Y-90924039D01*
X163178788Y-90867600D01*
X163145295Y-90809343D01*
X163114577Y-90749354D01*
X163086724Y-90687721D01*
X163061820Y-90624530D01*
X163039954Y-90559868D01*
X163021213Y-90493823D01*
X163005684Y-90426481D01*
X162993454Y-90357928D01*
X162984611Y-90288253D01*
X162979241Y-90217542D01*
X162977431Y-90145882D01*
X162977431Y-88567169D01*
X165272899Y-88567169D01*
X166286790Y-87553795D01*
X166284190Y-87551194D01*
X164009408Y-87551194D01*
X164009395Y-87551194D01*
X163786153Y-87551194D01*
X161967141Y-87551194D01*
X161967141Y-90143799D01*
X161466926Y-90143799D01*
X161466926Y-86994149D01*
X164009408Y-86994149D01*
X166967366Y-86994149D01*
X166967366Y-86228821D01*
X165887845Y-86228821D01*
X165887845Y-85801461D01*
X166967366Y-85801461D01*
X166967366Y-85039231D01*
X166171033Y-85039231D01*
X164009408Y-85039231D01*
X164009408Y-85801461D01*
X165056373Y-85801461D01*
X165056373Y-86228821D01*
X164009408Y-86228821D01*
X164009408Y-86994149D01*
X161466926Y-86994149D01*
X161466926Y-86668587D01*
X161972826Y-86668587D01*
X163786153Y-86927483D01*
X163786153Y-86365761D01*
X163153633Y-86304779D01*
X162541784Y-86245873D01*
X162665083Y-86236371D01*
X162797605Y-86223894D01*
X162939344Y-86208436D01*
X163090298Y-86189989D01*
X163250460Y-86168548D01*
X163419826Y-86144105D01*
X163598392Y-86116655D01*
X163786153Y-86086190D01*
X163786153Y-85485710D01*
X163718902Y-85477279D01*
X163596701Y-85463976D01*
X163419622Y-85445778D01*
X163187740Y-85422661D01*
X162497858Y-85358582D01*
X162662008Y-85345275D01*
X162825292Y-85330016D01*
X162987696Y-85312803D01*
X163149212Y-85293633D01*
X163309826Y-85272505D01*
X163469528Y-85249416D01*
X163628307Y-85224365D01*
X163786152Y-85197350D01*
X163786152Y-84635628D01*
X161972827Y-84893494D01*
X161972826Y-84893494D01*
X161972826Y-85614899D01*
X162079086Y-85639339D01*
X162188949Y-85663059D01*
X162302412Y-85686055D01*
X162419474Y-85708326D01*
X162540132Y-85729867D01*
X162664386Y-85750676D01*
X162792233Y-85770749D01*
X162923672Y-85790085D01*
X162778546Y-85813126D01*
X162571687Y-85847678D01*
X161972826Y-85951317D01*
X161972826Y-86668587D01*
X161466926Y-86668587D01*
X161466926Y-83339073D01*
X161972827Y-83339073D01*
X161972827Y-84367432D01*
X163786153Y-84367432D01*
X163786153Y-84174172D01*
X164009408Y-84174172D01*
X166171033Y-84174172D01*
X166171033Y-84791191D01*
X166967366Y-84791184D01*
X166967366Y-82106079D01*
X166171033Y-82914299D01*
X166171033Y-83411942D01*
X164009408Y-83411942D01*
X164009408Y-84174172D01*
X163786153Y-84174172D01*
X163786153Y-83339073D01*
X163423384Y-83339073D01*
X163423384Y-83789177D01*
X163079219Y-83789177D01*
X163079219Y-83339073D01*
X162734537Y-83339073D01*
X162734537Y-83789177D01*
X162335595Y-83789177D01*
X162335595Y-83339073D01*
X161972827Y-83339073D01*
X161466926Y-83339073D01*
X161466926Y-82416642D01*
X161972827Y-82416642D01*
X161972827Y-82994904D01*
X163786153Y-82994904D01*
X163786153Y-82416642D01*
X161972827Y-82416642D01*
X161466926Y-82416642D01*
X161466926Y-81026551D01*
X161972827Y-81026551D01*
X161972827Y-82152062D01*
X162235860Y-82152062D01*
X163423384Y-81647698D01*
X163423384Y-82105034D01*
X163786153Y-82105034D01*
X163786153Y-81026551D01*
X163423384Y-81026551D01*
X162335595Y-81519028D01*
X162335595Y-81026551D01*
X161972827Y-81026551D01*
X161466926Y-81026551D01*
X161466926Y-80939736D01*
X164009395Y-80939736D01*
X164009395Y-82579430D01*
X166153449Y-82579430D01*
X166915677Y-81817200D01*
X164732865Y-81817200D01*
X164732865Y-80939736D01*
X164009395Y-80939736D01*
X161466926Y-80939736D01*
X161466926Y-80440026D01*
X167467076Y-80440026D01*
X167467076Y-93045975D01*
X166961667Y-93045975D01*
X161466926Y-93045975D01*
G37*
%TD*%
D10*
%TO.C,XA1*%
X162559999Y-129539999D03*
X175259999Y-129539999D03*
X177799999Y-129539999D03*
X180339999Y-129539999D03*
X182879999Y-129539999D03*
X185419999Y-129539999D03*
X187959999Y-129539999D03*
X187959999Y-81279999D03*
X185419999Y-81279999D03*
X182879999Y-81279999D03*
X180339999Y-81279999D03*
X177799999Y-81279999D03*
X175259999Y-81279999D03*
X172719999Y-81279999D03*
X170179999Y-81279999D03*
D11*
X165099999Y-129539999D03*
X167639999Y-129539999D03*
D10*
X170179999Y-129539999D03*
%TD*%
D12*
%TO.C,J2*%
X165099999Y-124459999D03*
D13*
X165099999Y-121919999D03*
%TD*%
D14*
%TO.C,SW3*%
X180419999Y-111759999D03*
D15*
X185420000Y-111760000D03*
X182920000Y-111760000D03*
D16*
X177319999Y-104259999D03*
X188519999Y-104259999D03*
D15*
X185420000Y-97260000D03*
X180420000Y-97260000D03*
%TD*%
D12*
%TO.C,J1*%
X170179999Y-121919999D03*
D13*
X172719999Y-121919999D03*
%TD*%
M02*
